%TF.GenerationSoftware,KiCad,Pcbnew,9.0.6*%
%TF.CreationDate,2025-12-12T18:18:47+02:00*%
%TF.ProjectId,pcb_layout,7063625f-6c61-4796-9f75-742e6b696361,rev?*%
%TF.SameCoordinates,PX649cd60PY55d4a80*%
%TF.FileFunction,Legend,Top*%
%TF.FilePolarity,Positive*%
%FSLAX46Y46*%
G04 Gerber Fmt 4.6, Leading zero omitted, Abs format (unit mm)*
G04 Created by KiCad (PCBNEW 9.0.6) date 2025-12-12 18:18:47*
%MOMM*%
%LPD*%
G01*
G04 APERTURE LIST*
G04 Aperture macros list*
%AMRoundRect*
0 Rectangle with rounded corners*
0 $1 Rounding radius*
0 $2 $3 $4 $5 $6 $7 $8 $9 X,Y pos of 4 corners*
0 Add a 4 corners polygon primitive as box body*
4,1,4,$2,$3,$4,$5,$6,$7,$8,$9,$2,$3,0*
0 Add four circle primitives for the rounded corners*
1,1,$1+$1,$2,$3*
1,1,$1+$1,$4,$5*
1,1,$1+$1,$6,$7*
1,1,$1+$1,$8,$9*
0 Add four rect primitives between the rounded corners*
20,1,$1+$1,$2,$3,$4,$5,0*
20,1,$1+$1,$4,$5,$6,$7,0*
20,1,$1+$1,$6,$7,$8,$9,0*
20,1,$1+$1,$8,$9,$2,$3,0*%
G04 Aperture macros list end*
%ADD10C,0.125000*%
%ADD11C,0.100000*%
%ADD12C,0.150000*%
%ADD13C,0.120000*%
%ADD14RoundRect,0.226200X0.663700X0.226200X-0.663700X0.226200X-0.663700X-0.226200X0.663700X-0.226200X0*%
%ADD15RoundRect,0.152400X-1.255000X-0.500000X1.255000X-0.500000X1.255000X0.500000X-1.255000X0.500000X0*%
%ADD16R,0.600000X1.000000*%
%ADD17RoundRect,0.226200X0.226200X-0.663700X0.226200X0.663700X-0.226200X0.663700X-0.226200X-0.663700X0*%
%ADD18RoundRect,0.324341X-0.528059X0.340559X-0.528059X-0.340559X0.528059X-0.340559X0.528059X0.340559X0*%
%ADD19RoundRect,0.226200X-0.226200X0.663700X-0.226200X-0.663700X0.226200X-0.663700X0.226200X0.663700X0*%
%ADD20R,1.000000X0.600000*%
%ADD21RoundRect,0.324341X-0.340559X-0.528059X0.340559X-0.528059X0.340559X0.528059X-0.340559X0.528059X0*%
%ADD22C,2.000000*%
%ADD23RoundRect,0.319950X0.532450X-0.319950X0.532450X0.319950X-0.532450X0.319950X-0.532450X-0.319950X0*%
%ADD24RoundRect,0.226200X-0.663700X-0.226200X0.663700X-0.226200X0.663700X0.226200X-0.663700X0.226200X0*%
%ADD25RoundRect,0.324341X0.340559X0.528059X-0.340559X0.528059X-0.340559X-0.528059X0.340559X-0.528059X0*%
%ADD26RoundRect,0.152400X1.255000X0.500000X-1.255000X0.500000X-1.255000X-0.500000X1.255000X-0.500000X0*%
%ADD27RoundRect,0.308616X0.493784X0.493784X-0.493784X0.493784X-0.493784X-0.493784X0.493784X-0.493784X0*%
%ADD28RoundRect,0.308616X0.843784X0.493784X-0.843784X0.493784X-0.843784X-0.493784X0.843784X-0.493784X0*%
%ADD29RoundRect,0.308616X-0.493784X-0.493784X0.493784X-0.493784X0.493784X0.493784X-0.493784X0.493784X0*%
%ADD30RoundRect,0.308616X-0.843784X-0.493784X0.843784X-0.493784X0.843784X0.493784X-0.843784X0.493784X0*%
G04 APERTURE END LIST*
D10*
X11771759Y7144064D02*
X11724140Y7096444D01*
X11724140Y7096444D02*
X11581283Y7048825D01*
X11581283Y7048825D02*
X11486045Y7048825D01*
X11486045Y7048825D02*
X11343188Y7096444D01*
X11343188Y7096444D02*
X11247950Y7191683D01*
X11247950Y7191683D02*
X11200331Y7286921D01*
X11200331Y7286921D02*
X11152712Y7477397D01*
X11152712Y7477397D02*
X11152712Y7620254D01*
X11152712Y7620254D02*
X11200331Y7810730D01*
X11200331Y7810730D02*
X11247950Y7905968D01*
X11247950Y7905968D02*
X11343188Y8001206D01*
X11343188Y8001206D02*
X11486045Y8048825D01*
X11486045Y8048825D02*
X11581283Y8048825D01*
X11581283Y8048825D02*
X11724140Y8001206D01*
X11724140Y8001206D02*
X11771759Y7953587D01*
X12200331Y7048825D02*
X12200331Y7715492D01*
X12200331Y7525016D02*
X12247950Y7620254D01*
X12247950Y7620254D02*
X12295569Y7667873D01*
X12295569Y7667873D02*
X12390807Y7715492D01*
X12390807Y7715492D02*
X12486045Y7715492D01*
X12819379Y7048825D02*
X12819379Y7715492D01*
X12819379Y8048825D02*
X12771760Y8001206D01*
X12771760Y8001206D02*
X12819379Y7953587D01*
X12819379Y7953587D02*
X12866998Y8001206D01*
X12866998Y8001206D02*
X12819379Y8048825D01*
X12819379Y8048825D02*
X12819379Y7953587D01*
X13247950Y7096444D02*
X13343188Y7048825D01*
X13343188Y7048825D02*
X13533664Y7048825D01*
X13533664Y7048825D02*
X13628902Y7096444D01*
X13628902Y7096444D02*
X13676521Y7191683D01*
X13676521Y7191683D02*
X13676521Y7239302D01*
X13676521Y7239302D02*
X13628902Y7334540D01*
X13628902Y7334540D02*
X13533664Y7382159D01*
X13533664Y7382159D02*
X13390807Y7382159D01*
X13390807Y7382159D02*
X13295569Y7429778D01*
X13295569Y7429778D02*
X13247950Y7525016D01*
X13247950Y7525016D02*
X13247950Y7572635D01*
X13247950Y7572635D02*
X13295569Y7667873D01*
X13295569Y7667873D02*
X13390807Y7715492D01*
X13390807Y7715492D02*
X13533664Y7715492D01*
X13533664Y7715492D02*
X13628902Y7667873D01*
X13962236Y7715492D02*
X14343188Y7715492D01*
X14105093Y8048825D02*
X14105093Y7191683D01*
X14105093Y7191683D02*
X14152712Y7096444D01*
X14152712Y7096444D02*
X14247950Y7048825D01*
X14247950Y7048825D02*
X14343188Y7048825D01*
X15057474Y7096444D02*
X14962236Y7048825D01*
X14962236Y7048825D02*
X14771760Y7048825D01*
X14771760Y7048825D02*
X14676522Y7096444D01*
X14676522Y7096444D02*
X14628903Y7191683D01*
X14628903Y7191683D02*
X14628903Y7572635D01*
X14628903Y7572635D02*
X14676522Y7667873D01*
X14676522Y7667873D02*
X14771760Y7715492D01*
X14771760Y7715492D02*
X14962236Y7715492D01*
X14962236Y7715492D02*
X15057474Y7667873D01*
X15057474Y7667873D02*
X15105093Y7572635D01*
X15105093Y7572635D02*
X15105093Y7477397D01*
X15105093Y7477397D02*
X14628903Y7382159D01*
X15962236Y7048825D02*
X15962236Y7572635D01*
X15962236Y7572635D02*
X15914617Y7667873D01*
X15914617Y7667873D02*
X15819379Y7715492D01*
X15819379Y7715492D02*
X15628903Y7715492D01*
X15628903Y7715492D02*
X15533665Y7667873D01*
X15962236Y7096444D02*
X15866998Y7048825D01*
X15866998Y7048825D02*
X15628903Y7048825D01*
X15628903Y7048825D02*
X15533665Y7096444D01*
X15533665Y7096444D02*
X15486046Y7191683D01*
X15486046Y7191683D02*
X15486046Y7286921D01*
X15486046Y7286921D02*
X15533665Y7382159D01*
X15533665Y7382159D02*
X15628903Y7429778D01*
X15628903Y7429778D02*
X15866998Y7429778D01*
X15866998Y7429778D02*
X15962236Y7477397D01*
X17152713Y7334540D02*
X17628903Y7334540D01*
X17057475Y7048825D02*
X17390808Y8048825D01*
X17390808Y8048825D02*
X17724141Y7048825D01*
X18200332Y7048825D02*
X18105094Y7096444D01*
X18105094Y7096444D02*
X18057475Y7191683D01*
X18057475Y7191683D02*
X18057475Y8048825D01*
X18962237Y7096444D02*
X18866999Y7048825D01*
X18866999Y7048825D02*
X18676523Y7048825D01*
X18676523Y7048825D02*
X18581285Y7096444D01*
X18581285Y7096444D02*
X18533666Y7191683D01*
X18533666Y7191683D02*
X18533666Y7572635D01*
X18533666Y7572635D02*
X18581285Y7667873D01*
X18581285Y7667873D02*
X18676523Y7715492D01*
X18676523Y7715492D02*
X18866999Y7715492D01*
X18866999Y7715492D02*
X18962237Y7667873D01*
X18962237Y7667873D02*
X19009856Y7572635D01*
X19009856Y7572635D02*
X19009856Y7477397D01*
X19009856Y7477397D02*
X18533666Y7382159D01*
X19343190Y7048825D02*
X19866999Y7715492D01*
X19343190Y7715492D02*
X19866999Y7048825D01*
X20676523Y7048825D02*
X20676523Y7572635D01*
X20676523Y7572635D02*
X20628904Y7667873D01*
X20628904Y7667873D02*
X20533666Y7715492D01*
X20533666Y7715492D02*
X20343190Y7715492D01*
X20343190Y7715492D02*
X20247952Y7667873D01*
X20676523Y7096444D02*
X20581285Y7048825D01*
X20581285Y7048825D02*
X20343190Y7048825D01*
X20343190Y7048825D02*
X20247952Y7096444D01*
X20247952Y7096444D02*
X20200333Y7191683D01*
X20200333Y7191683D02*
X20200333Y7286921D01*
X20200333Y7286921D02*
X20247952Y7382159D01*
X20247952Y7382159D02*
X20343190Y7429778D01*
X20343190Y7429778D02*
X20581285Y7429778D01*
X20581285Y7429778D02*
X20676523Y7477397D01*
X21152714Y7715492D02*
X21152714Y7048825D01*
X21152714Y7620254D02*
X21200333Y7667873D01*
X21200333Y7667873D02*
X21295571Y7715492D01*
X21295571Y7715492D02*
X21438428Y7715492D01*
X21438428Y7715492D02*
X21533666Y7667873D01*
X21533666Y7667873D02*
X21581285Y7572635D01*
X21581285Y7572635D02*
X21581285Y7048825D01*
X22486047Y7048825D02*
X22486047Y8048825D01*
X22486047Y7096444D02*
X22390809Y7048825D01*
X22390809Y7048825D02*
X22200333Y7048825D01*
X22200333Y7048825D02*
X22105095Y7096444D01*
X22105095Y7096444D02*
X22057476Y7144064D01*
X22057476Y7144064D02*
X22009857Y7239302D01*
X22009857Y7239302D02*
X22009857Y7525016D01*
X22009857Y7525016D02*
X22057476Y7620254D01*
X22057476Y7620254D02*
X22105095Y7667873D01*
X22105095Y7667873D02*
X22200333Y7715492D01*
X22200333Y7715492D02*
X22390809Y7715492D01*
X22390809Y7715492D02*
X22486047Y7667873D01*
X22962238Y7048825D02*
X22962238Y7715492D01*
X22962238Y7525016D02*
X23009857Y7620254D01*
X23009857Y7620254D02*
X23057476Y7667873D01*
X23057476Y7667873D02*
X23152714Y7715492D01*
X23152714Y7715492D02*
X23247952Y7715492D01*
X24009857Y7715492D02*
X24009857Y7048825D01*
X23581286Y7715492D02*
X23581286Y7191683D01*
X23581286Y7191683D02*
X23628905Y7096444D01*
X23628905Y7096444D02*
X23724143Y7048825D01*
X23724143Y7048825D02*
X23867000Y7048825D01*
X23867000Y7048825D02*
X23962238Y7096444D01*
X23962238Y7096444D02*
X24009857Y7144064D01*
X11628902Y6105548D02*
X11628902Y5438881D01*
X11390807Y6486500D02*
X11152712Y5772215D01*
X11152712Y5772215D02*
X11771759Y5772215D01*
X12057474Y6438881D02*
X12676521Y6438881D01*
X12676521Y6438881D02*
X12343188Y6057929D01*
X12343188Y6057929D02*
X12486045Y6057929D01*
X12486045Y6057929D02*
X12581283Y6010310D01*
X12581283Y6010310D02*
X12628902Y5962691D01*
X12628902Y5962691D02*
X12676521Y5867453D01*
X12676521Y5867453D02*
X12676521Y5629358D01*
X12676521Y5629358D02*
X12628902Y5534120D01*
X12628902Y5534120D02*
X12581283Y5486500D01*
X12581283Y5486500D02*
X12486045Y5438881D01*
X12486045Y5438881D02*
X12200331Y5438881D01*
X12200331Y5438881D02*
X12105093Y5486500D01*
X12105093Y5486500D02*
X12057474Y5534120D01*
X13533664Y6105548D02*
X13533664Y5438881D01*
X13295569Y6486500D02*
X13057474Y5772215D01*
X13057474Y5772215D02*
X13676521Y5772215D01*
X14057474Y5962691D02*
X14390807Y5962691D01*
X14533664Y5438881D02*
X14057474Y5438881D01*
X14057474Y5438881D02*
X14057474Y6438881D01*
X14057474Y6438881D02*
X14533664Y6438881D01*
D11*
X10565312Y3622820D02*
X10517693Y3575200D01*
X10517693Y3575200D02*
X10374836Y3527581D01*
X10374836Y3527581D02*
X10279598Y3527581D01*
X10279598Y3527581D02*
X10136741Y3575200D01*
X10136741Y3575200D02*
X10041503Y3670439D01*
X10041503Y3670439D02*
X9993884Y3765677D01*
X9993884Y3765677D02*
X9946265Y3956153D01*
X9946265Y3956153D02*
X9946265Y4099010D01*
X9946265Y4099010D02*
X9993884Y4289486D01*
X9993884Y4289486D02*
X10041503Y4384724D01*
X10041503Y4384724D02*
X10136741Y4479962D01*
X10136741Y4479962D02*
X10279598Y4527581D01*
X10279598Y4527581D02*
X10374836Y4527581D01*
X10374836Y4527581D02*
X10517693Y4479962D01*
X10517693Y4479962D02*
X10565312Y4432343D01*
X10993884Y4051391D02*
X11327217Y4051391D01*
X11470074Y3527581D02*
X10993884Y3527581D01*
X10993884Y3527581D02*
X10993884Y4527581D01*
X10993884Y4527581D02*
X11470074Y4527581D01*
X12231979Y4051391D02*
X11898646Y4051391D01*
X11898646Y3527581D02*
X11898646Y4527581D01*
X11898646Y4527581D02*
X12374836Y4527581D01*
X12708170Y4432343D02*
X12755789Y4479962D01*
X12755789Y4479962D02*
X12851027Y4527581D01*
X12851027Y4527581D02*
X13089122Y4527581D01*
X13089122Y4527581D02*
X13184360Y4479962D01*
X13184360Y4479962D02*
X13231979Y4432343D01*
X13231979Y4432343D02*
X13279598Y4337105D01*
X13279598Y4337105D02*
X13279598Y4241867D01*
X13279598Y4241867D02*
X13231979Y4099010D01*
X13231979Y4099010D02*
X12660551Y3527581D01*
X12660551Y3527581D02*
X13279598Y3527581D01*
X13708170Y3908534D02*
X14470075Y3908534D01*
X14946265Y3527581D02*
X14946265Y4527581D01*
X14946265Y4527581D02*
X15327217Y4527581D01*
X15327217Y4527581D02*
X15422455Y4479962D01*
X15422455Y4479962D02*
X15470074Y4432343D01*
X15470074Y4432343D02*
X15517693Y4337105D01*
X15517693Y4337105D02*
X15517693Y4194248D01*
X15517693Y4194248D02*
X15470074Y4099010D01*
X15470074Y4099010D02*
X15422455Y4051391D01*
X15422455Y4051391D02*
X15327217Y4003772D01*
X15327217Y4003772D02*
X14946265Y4003772D01*
X15946265Y3527581D02*
X15946265Y4194248D01*
X15946265Y4003772D02*
X15993884Y4099010D01*
X15993884Y4099010D02*
X16041503Y4146629D01*
X16041503Y4146629D02*
X16136741Y4194248D01*
X16136741Y4194248D02*
X16231979Y4194248D01*
X17279599Y4432343D02*
X17327218Y4479962D01*
X17327218Y4479962D02*
X17422456Y4527581D01*
X17422456Y4527581D02*
X17660551Y4527581D01*
X17660551Y4527581D02*
X17755789Y4479962D01*
X17755789Y4479962D02*
X17803408Y4432343D01*
X17803408Y4432343D02*
X17851027Y4337105D01*
X17851027Y4337105D02*
X17851027Y4241867D01*
X17851027Y4241867D02*
X17803408Y4099010D01*
X17803408Y4099010D02*
X17231980Y3527581D01*
X17231980Y3527581D02*
X17851027Y3527581D01*
X18470075Y4527581D02*
X18565313Y4527581D01*
X18565313Y4527581D02*
X18660551Y4479962D01*
X18660551Y4479962D02*
X18708170Y4432343D01*
X18708170Y4432343D02*
X18755789Y4337105D01*
X18755789Y4337105D02*
X18803408Y4146629D01*
X18803408Y4146629D02*
X18803408Y3908534D01*
X18803408Y3908534D02*
X18755789Y3718058D01*
X18755789Y3718058D02*
X18708170Y3622820D01*
X18708170Y3622820D02*
X18660551Y3575200D01*
X18660551Y3575200D02*
X18565313Y3527581D01*
X18565313Y3527581D02*
X18470075Y3527581D01*
X18470075Y3527581D02*
X18374837Y3575200D01*
X18374837Y3575200D02*
X18327218Y3622820D01*
X18327218Y3622820D02*
X18279599Y3718058D01*
X18279599Y3718058D02*
X18231980Y3908534D01*
X18231980Y3908534D02*
X18231980Y4146629D01*
X18231980Y4146629D02*
X18279599Y4337105D01*
X18279599Y4337105D02*
X18327218Y4432343D01*
X18327218Y4432343D02*
X18374837Y4479962D01*
X18374837Y4479962D02*
X18470075Y4527581D01*
X19184361Y4432343D02*
X19231980Y4479962D01*
X19231980Y4479962D02*
X19327218Y4527581D01*
X19327218Y4527581D02*
X19565313Y4527581D01*
X19565313Y4527581D02*
X19660551Y4479962D01*
X19660551Y4479962D02*
X19708170Y4432343D01*
X19708170Y4432343D02*
X19755789Y4337105D01*
X19755789Y4337105D02*
X19755789Y4241867D01*
X19755789Y4241867D02*
X19708170Y4099010D01*
X19708170Y4099010D02*
X19136742Y3527581D01*
X19136742Y3527581D02*
X19755789Y3527581D01*
X20660551Y4527581D02*
X20184361Y4527581D01*
X20184361Y4527581D02*
X20136742Y4051391D01*
X20136742Y4051391D02*
X20184361Y4099010D01*
X20184361Y4099010D02*
X20279599Y4146629D01*
X20279599Y4146629D02*
X20517694Y4146629D01*
X20517694Y4146629D02*
X20612932Y4099010D01*
X20612932Y4099010D02*
X20660551Y4051391D01*
X20660551Y4051391D02*
X20708170Y3956153D01*
X20708170Y3956153D02*
X20708170Y3718058D01*
X20708170Y3718058D02*
X20660551Y3622820D01*
X20660551Y3622820D02*
X20612932Y3575200D01*
X20612932Y3575200D02*
X20517694Y3527581D01*
X20517694Y3527581D02*
X20279599Y3527581D01*
X20279599Y3527581D02*
X20184361Y3575200D01*
X20184361Y3575200D02*
X20136742Y3622820D01*
X21136742Y3908534D02*
X21898647Y3908534D01*
X22327218Y4432343D02*
X22374837Y4479962D01*
X22374837Y4479962D02*
X22470075Y4527581D01*
X22470075Y4527581D02*
X22708170Y4527581D01*
X22708170Y4527581D02*
X22803408Y4479962D01*
X22803408Y4479962D02*
X22851027Y4432343D01*
X22851027Y4432343D02*
X22898646Y4337105D01*
X22898646Y4337105D02*
X22898646Y4241867D01*
X22898646Y4241867D02*
X22851027Y4099010D01*
X22851027Y4099010D02*
X22279599Y3527581D01*
X22279599Y3527581D02*
X22898646Y3527581D01*
X23517694Y4527581D02*
X23612932Y4527581D01*
X23612932Y4527581D02*
X23708170Y4479962D01*
X23708170Y4479962D02*
X23755789Y4432343D01*
X23755789Y4432343D02*
X23803408Y4337105D01*
X23803408Y4337105D02*
X23851027Y4146629D01*
X23851027Y4146629D02*
X23851027Y3908534D01*
X23851027Y3908534D02*
X23803408Y3718058D01*
X23803408Y3718058D02*
X23755789Y3622820D01*
X23755789Y3622820D02*
X23708170Y3575200D01*
X23708170Y3575200D02*
X23612932Y3527581D01*
X23612932Y3527581D02*
X23517694Y3527581D01*
X23517694Y3527581D02*
X23422456Y3575200D01*
X23422456Y3575200D02*
X23374837Y3622820D01*
X23374837Y3622820D02*
X23327218Y3718058D01*
X23327218Y3718058D02*
X23279599Y3908534D01*
X23279599Y3908534D02*
X23279599Y4146629D01*
X23279599Y4146629D02*
X23327218Y4337105D01*
X23327218Y4337105D02*
X23374837Y4432343D01*
X23374837Y4432343D02*
X23422456Y4479962D01*
X23422456Y4479962D02*
X23517694Y4527581D01*
X24231980Y4432343D02*
X24279599Y4479962D01*
X24279599Y4479962D02*
X24374837Y4527581D01*
X24374837Y4527581D02*
X24612932Y4527581D01*
X24612932Y4527581D02*
X24708170Y4479962D01*
X24708170Y4479962D02*
X24755789Y4432343D01*
X24755789Y4432343D02*
X24803408Y4337105D01*
X24803408Y4337105D02*
X24803408Y4241867D01*
X24803408Y4241867D02*
X24755789Y4099010D01*
X24755789Y4099010D02*
X24184361Y3527581D01*
X24184361Y3527581D02*
X24803408Y3527581D01*
X25660551Y4527581D02*
X25470075Y4527581D01*
X25470075Y4527581D02*
X25374837Y4479962D01*
X25374837Y4479962D02*
X25327218Y4432343D01*
X25327218Y4432343D02*
X25231980Y4289486D01*
X25231980Y4289486D02*
X25184361Y4099010D01*
X25184361Y4099010D02*
X25184361Y3718058D01*
X25184361Y3718058D02*
X25231980Y3622820D01*
X25231980Y3622820D02*
X25279599Y3575200D01*
X25279599Y3575200D02*
X25374837Y3527581D01*
X25374837Y3527581D02*
X25565313Y3527581D01*
X25565313Y3527581D02*
X25660551Y3575200D01*
X25660551Y3575200D02*
X25708170Y3622820D01*
X25708170Y3622820D02*
X25755789Y3718058D01*
X25755789Y3718058D02*
X25755789Y3956153D01*
X25755789Y3956153D02*
X25708170Y4051391D01*
X25708170Y4051391D02*
X25660551Y4099010D01*
X25660551Y4099010D02*
X25565313Y4146629D01*
X25565313Y4146629D02*
X25374837Y4146629D01*
X25374837Y4146629D02*
X25279599Y4099010D01*
X25279599Y4099010D02*
X25231980Y4051391D01*
X25231980Y4051391D02*
X25184361Y3956153D01*
D12*
X20194761Y33569943D02*
X20099523Y33617562D01*
X20099523Y33617562D02*
X20004285Y33712800D01*
X20004285Y33712800D02*
X19861428Y33855658D01*
X19861428Y33855658D02*
X19766190Y33903277D01*
X19766190Y33903277D02*
X19670952Y33903277D01*
X19718571Y33665181D02*
X19623333Y33712800D01*
X19623333Y33712800D02*
X19528095Y33808039D01*
X19528095Y33808039D02*
X19480476Y33998515D01*
X19480476Y33998515D02*
X19480476Y34331848D01*
X19480476Y34331848D02*
X19528095Y34522324D01*
X19528095Y34522324D02*
X19623333Y34617562D01*
X19623333Y34617562D02*
X19718571Y34665181D01*
X19718571Y34665181D02*
X19909047Y34665181D01*
X19909047Y34665181D02*
X20004285Y34617562D01*
X20004285Y34617562D02*
X20099523Y34522324D01*
X20099523Y34522324D02*
X20147142Y34331848D01*
X20147142Y34331848D02*
X20147142Y33998515D01*
X20147142Y33998515D02*
X20099523Y33808039D01*
X20099523Y33808039D02*
X20004285Y33712800D01*
X20004285Y33712800D02*
X19909047Y33665181D01*
X19909047Y33665181D02*
X19718571Y33665181D01*
X21004285Y34665181D02*
X20813809Y34665181D01*
X20813809Y34665181D02*
X20718571Y34617562D01*
X20718571Y34617562D02*
X20670952Y34569943D01*
X20670952Y34569943D02*
X20575714Y34427086D01*
X20575714Y34427086D02*
X20528095Y34236610D01*
X20528095Y34236610D02*
X20528095Y33855658D01*
X20528095Y33855658D02*
X20575714Y33760420D01*
X20575714Y33760420D02*
X20623333Y33712800D01*
X20623333Y33712800D02*
X20718571Y33665181D01*
X20718571Y33665181D02*
X20909047Y33665181D01*
X20909047Y33665181D02*
X21004285Y33712800D01*
X21004285Y33712800D02*
X21051904Y33760420D01*
X21051904Y33760420D02*
X21099523Y33855658D01*
X21099523Y33855658D02*
X21099523Y34093753D01*
X21099523Y34093753D02*
X21051904Y34188991D01*
X21051904Y34188991D02*
X21004285Y34236610D01*
X21004285Y34236610D02*
X20909047Y34284229D01*
X20909047Y34284229D02*
X20718571Y34284229D01*
X20718571Y34284229D02*
X20623333Y34236610D01*
X20623333Y34236610D02*
X20575714Y34188991D01*
X20575714Y34188991D02*
X20528095Y34093753D01*
X32546190Y2245181D02*
X32546190Y1530896D01*
X32546190Y1530896D02*
X32498571Y1388039D01*
X32498571Y1388039D02*
X32403333Y1292800D01*
X32403333Y1292800D02*
X32260476Y1245181D01*
X32260476Y1245181D02*
X32165238Y1245181D01*
X33165238Y1245181D02*
X33070000Y1292800D01*
X33070000Y1292800D02*
X33022381Y1340420D01*
X33022381Y1340420D02*
X32974762Y1435658D01*
X32974762Y1435658D02*
X32974762Y1721372D01*
X32974762Y1721372D02*
X33022381Y1816610D01*
X33022381Y1816610D02*
X33070000Y1864229D01*
X33070000Y1864229D02*
X33165238Y1911848D01*
X33165238Y1911848D02*
X33308095Y1911848D01*
X33308095Y1911848D02*
X33403333Y1864229D01*
X33403333Y1864229D02*
X33450952Y1816610D01*
X33450952Y1816610D02*
X33498571Y1721372D01*
X33498571Y1721372D02*
X33498571Y1435658D01*
X33498571Y1435658D02*
X33450952Y1340420D01*
X33450952Y1340420D02*
X33403333Y1292800D01*
X33403333Y1292800D02*
X33308095Y1245181D01*
X33308095Y1245181D02*
X33165238Y1245181D01*
X34355714Y1911848D02*
X34355714Y1245181D01*
X33927143Y1911848D02*
X33927143Y1388039D01*
X33927143Y1388039D02*
X33974762Y1292800D01*
X33974762Y1292800D02*
X34070000Y1245181D01*
X34070000Y1245181D02*
X34212857Y1245181D01*
X34212857Y1245181D02*
X34308095Y1292800D01*
X34308095Y1292800D02*
X34355714Y1340420D01*
X34689048Y1911848D02*
X35070000Y1911848D01*
X34831905Y2245181D02*
X34831905Y1388039D01*
X34831905Y1388039D02*
X34879524Y1292800D01*
X34879524Y1292800D02*
X34974762Y1245181D01*
X34974762Y1245181D02*
X35070000Y1245181D01*
X35927143Y1245181D02*
X35355715Y1245181D01*
X35641429Y1245181D02*
X35641429Y2245181D01*
X35641429Y2245181D02*
X35546191Y2102324D01*
X35546191Y2102324D02*
X35450953Y2007086D01*
X35450953Y2007086D02*
X35355715Y1959467D01*
X36814819Y30923334D02*
X36814819Y31113810D01*
X36814819Y31113810D02*
X36862438Y31209048D01*
X36862438Y31209048D02*
X36957676Y31304286D01*
X36957676Y31304286D02*
X37148152Y31351905D01*
X37148152Y31351905D02*
X37481485Y31351905D01*
X37481485Y31351905D02*
X37671961Y31304286D01*
X37671961Y31304286D02*
X37767200Y31209048D01*
X37767200Y31209048D02*
X37814819Y31113810D01*
X37814819Y31113810D02*
X37814819Y30923334D01*
X37814819Y30923334D02*
X37767200Y30828096D01*
X37767200Y30828096D02*
X37671961Y30732858D01*
X37671961Y30732858D02*
X37481485Y30685239D01*
X37481485Y30685239D02*
X37148152Y30685239D01*
X37148152Y30685239D02*
X36957676Y30732858D01*
X36957676Y30732858D02*
X36862438Y30828096D01*
X36862438Y30828096D02*
X36814819Y30923334D01*
X37814819Y32209048D02*
X37291009Y32209048D01*
X37291009Y32209048D02*
X37195771Y32161429D01*
X37195771Y32161429D02*
X37148152Y32066191D01*
X37148152Y32066191D02*
X37148152Y31875715D01*
X37148152Y31875715D02*
X37195771Y31780477D01*
X37767200Y32209048D02*
X37814819Y32113810D01*
X37814819Y32113810D02*
X37814819Y31875715D01*
X37814819Y31875715D02*
X37767200Y31780477D01*
X37767200Y31780477D02*
X37671961Y31732858D01*
X37671961Y31732858D02*
X37576723Y31732858D01*
X37576723Y31732858D02*
X37481485Y31780477D01*
X37481485Y31780477D02*
X37433866Y31875715D01*
X37433866Y31875715D02*
X37433866Y32113810D01*
X37433866Y32113810D02*
X37386247Y32209048D01*
X37814819Y32685239D02*
X37148152Y32685239D01*
X37243390Y32685239D02*
X37195771Y32732858D01*
X37195771Y32732858D02*
X37148152Y32828096D01*
X37148152Y32828096D02*
X37148152Y32970953D01*
X37148152Y32970953D02*
X37195771Y33066191D01*
X37195771Y33066191D02*
X37291009Y33113810D01*
X37291009Y33113810D02*
X37814819Y33113810D01*
X37291009Y33113810D02*
X37195771Y33161429D01*
X37195771Y33161429D02*
X37148152Y33256667D01*
X37148152Y33256667D02*
X37148152Y33399524D01*
X37148152Y33399524D02*
X37195771Y33494763D01*
X37195771Y33494763D02*
X37291009Y33542382D01*
X37291009Y33542382D02*
X37814819Y33542382D01*
X37148152Y34018572D02*
X38148152Y34018572D01*
X37195771Y34018572D02*
X37148152Y34113810D01*
X37148152Y34113810D02*
X37148152Y34304286D01*
X37148152Y34304286D02*
X37195771Y34399524D01*
X37195771Y34399524D02*
X37243390Y34447143D01*
X37243390Y34447143D02*
X37338628Y34494762D01*
X37338628Y34494762D02*
X37624342Y34494762D01*
X37624342Y34494762D02*
X37719580Y34447143D01*
X37719580Y34447143D02*
X37767200Y34399524D01*
X37767200Y34399524D02*
X37814819Y34304286D01*
X37814819Y34304286D02*
X37814819Y34113810D01*
X37814819Y34113810D02*
X37767200Y34018572D01*
X6150057Y24404762D02*
X6102438Y24309524D01*
X6102438Y24309524D02*
X6007200Y24214286D01*
X6007200Y24214286D02*
X5864342Y24071429D01*
X5864342Y24071429D02*
X5816723Y23976191D01*
X5816723Y23976191D02*
X5816723Y23880953D01*
X6054819Y23928572D02*
X6007200Y23833334D01*
X6007200Y23833334D02*
X5911961Y23738096D01*
X5911961Y23738096D02*
X5721485Y23690477D01*
X5721485Y23690477D02*
X5388152Y23690477D01*
X5388152Y23690477D02*
X5197676Y23738096D01*
X5197676Y23738096D02*
X5102438Y23833334D01*
X5102438Y23833334D02*
X5054819Y23928572D01*
X5054819Y23928572D02*
X5054819Y24119048D01*
X5054819Y24119048D02*
X5102438Y24214286D01*
X5102438Y24214286D02*
X5197676Y24309524D01*
X5197676Y24309524D02*
X5388152Y24357143D01*
X5388152Y24357143D02*
X5721485Y24357143D01*
X5721485Y24357143D02*
X5911961Y24309524D01*
X5911961Y24309524D02*
X6007200Y24214286D01*
X6007200Y24214286D02*
X6054819Y24119048D01*
X6054819Y24119048D02*
X6054819Y23928572D01*
X5150057Y24738096D02*
X5102438Y24785715D01*
X5102438Y24785715D02*
X5054819Y24880953D01*
X5054819Y24880953D02*
X5054819Y25119048D01*
X5054819Y25119048D02*
X5102438Y25214286D01*
X5102438Y25214286D02*
X5150057Y25261905D01*
X5150057Y25261905D02*
X5245295Y25309524D01*
X5245295Y25309524D02*
X5340533Y25309524D01*
X5340533Y25309524D02*
X5483390Y25261905D01*
X5483390Y25261905D02*
X6054819Y24690477D01*
X6054819Y24690477D02*
X6054819Y25309524D01*
X23950057Y36154762D02*
X23902438Y36059524D01*
X23902438Y36059524D02*
X23807200Y35964286D01*
X23807200Y35964286D02*
X23664342Y35821429D01*
X23664342Y35821429D02*
X23616723Y35726191D01*
X23616723Y35726191D02*
X23616723Y35630953D01*
X23854819Y35678572D02*
X23807200Y35583334D01*
X23807200Y35583334D02*
X23711961Y35488096D01*
X23711961Y35488096D02*
X23521485Y35440477D01*
X23521485Y35440477D02*
X23188152Y35440477D01*
X23188152Y35440477D02*
X22997676Y35488096D01*
X22997676Y35488096D02*
X22902438Y35583334D01*
X22902438Y35583334D02*
X22854819Y35678572D01*
X22854819Y35678572D02*
X22854819Y35869048D01*
X22854819Y35869048D02*
X22902438Y35964286D01*
X22902438Y35964286D02*
X22997676Y36059524D01*
X22997676Y36059524D02*
X23188152Y36107143D01*
X23188152Y36107143D02*
X23521485Y36107143D01*
X23521485Y36107143D02*
X23711961Y36059524D01*
X23711961Y36059524D02*
X23807200Y35964286D01*
X23807200Y35964286D02*
X23854819Y35869048D01*
X23854819Y35869048D02*
X23854819Y35678572D01*
X23283390Y36678572D02*
X23235771Y36583334D01*
X23235771Y36583334D02*
X23188152Y36535715D01*
X23188152Y36535715D02*
X23092914Y36488096D01*
X23092914Y36488096D02*
X23045295Y36488096D01*
X23045295Y36488096D02*
X22950057Y36535715D01*
X22950057Y36535715D02*
X22902438Y36583334D01*
X22902438Y36583334D02*
X22854819Y36678572D01*
X22854819Y36678572D02*
X22854819Y36869048D01*
X22854819Y36869048D02*
X22902438Y36964286D01*
X22902438Y36964286D02*
X22950057Y37011905D01*
X22950057Y37011905D02*
X23045295Y37059524D01*
X23045295Y37059524D02*
X23092914Y37059524D01*
X23092914Y37059524D02*
X23188152Y37011905D01*
X23188152Y37011905D02*
X23235771Y36964286D01*
X23235771Y36964286D02*
X23283390Y36869048D01*
X23283390Y36869048D02*
X23283390Y36678572D01*
X23283390Y36678572D02*
X23331009Y36583334D01*
X23331009Y36583334D02*
X23378628Y36535715D01*
X23378628Y36535715D02*
X23473866Y36488096D01*
X23473866Y36488096D02*
X23664342Y36488096D01*
X23664342Y36488096D02*
X23759580Y36535715D01*
X23759580Y36535715D02*
X23807200Y36583334D01*
X23807200Y36583334D02*
X23854819Y36678572D01*
X23854819Y36678572D02*
X23854819Y36869048D01*
X23854819Y36869048D02*
X23807200Y36964286D01*
X23807200Y36964286D02*
X23759580Y37011905D01*
X23759580Y37011905D02*
X23664342Y37059524D01*
X23664342Y37059524D02*
X23473866Y37059524D01*
X23473866Y37059524D02*
X23378628Y37011905D01*
X23378628Y37011905D02*
X23331009Y36964286D01*
X23331009Y36964286D02*
X23283390Y36869048D01*
X5494819Y28473334D02*
X5018628Y28140001D01*
X5494819Y27901906D02*
X4494819Y27901906D01*
X4494819Y27901906D02*
X4494819Y28282858D01*
X4494819Y28282858D02*
X4542438Y28378096D01*
X4542438Y28378096D02*
X4590057Y28425715D01*
X4590057Y28425715D02*
X4685295Y28473334D01*
X4685295Y28473334D02*
X4828152Y28473334D01*
X4828152Y28473334D02*
X4923390Y28425715D01*
X4923390Y28425715D02*
X4971009Y28378096D01*
X4971009Y28378096D02*
X5018628Y28282858D01*
X5018628Y28282858D02*
X5018628Y27901906D01*
X4494819Y28806668D02*
X4494819Y29425715D01*
X4494819Y29425715D02*
X4875771Y29092382D01*
X4875771Y29092382D02*
X4875771Y29235239D01*
X4875771Y29235239D02*
X4923390Y29330477D01*
X4923390Y29330477D02*
X4971009Y29378096D01*
X4971009Y29378096D02*
X5066247Y29425715D01*
X5066247Y29425715D02*
X5304342Y29425715D01*
X5304342Y29425715D02*
X5399580Y29378096D01*
X5399580Y29378096D02*
X5447200Y29330477D01*
X5447200Y29330477D02*
X5494819Y29235239D01*
X5494819Y29235239D02*
X5494819Y28949525D01*
X5494819Y28949525D02*
X5447200Y28854287D01*
X5447200Y28854287D02*
X5399580Y28806668D01*
X10950057Y28904762D02*
X10902438Y28809524D01*
X10902438Y28809524D02*
X10807200Y28714286D01*
X10807200Y28714286D02*
X10664342Y28571429D01*
X10664342Y28571429D02*
X10616723Y28476191D01*
X10616723Y28476191D02*
X10616723Y28380953D01*
X10854819Y28428572D02*
X10807200Y28333334D01*
X10807200Y28333334D02*
X10711961Y28238096D01*
X10711961Y28238096D02*
X10521485Y28190477D01*
X10521485Y28190477D02*
X10188152Y28190477D01*
X10188152Y28190477D02*
X9997676Y28238096D01*
X9997676Y28238096D02*
X9902438Y28333334D01*
X9902438Y28333334D02*
X9854819Y28428572D01*
X9854819Y28428572D02*
X9854819Y28619048D01*
X9854819Y28619048D02*
X9902438Y28714286D01*
X9902438Y28714286D02*
X9997676Y28809524D01*
X9997676Y28809524D02*
X10188152Y28857143D01*
X10188152Y28857143D02*
X10521485Y28857143D01*
X10521485Y28857143D02*
X10711961Y28809524D01*
X10711961Y28809524D02*
X10807200Y28714286D01*
X10807200Y28714286D02*
X10854819Y28619048D01*
X10854819Y28619048D02*
X10854819Y28428572D01*
X10854819Y29809524D02*
X10854819Y29238096D01*
X10854819Y29523810D02*
X9854819Y29523810D01*
X9854819Y29523810D02*
X9997676Y29428572D01*
X9997676Y29428572D02*
X10092914Y29333334D01*
X10092914Y29333334D02*
X10140533Y29238096D01*
X9959523Y19095181D02*
X10530951Y19095181D01*
X10245237Y18095181D02*
X10245237Y19095181D01*
X10864285Y18095181D02*
X10864285Y19095181D01*
X10864285Y19095181D02*
X11245237Y19095181D01*
X11245237Y19095181D02*
X11340475Y19047562D01*
X11340475Y19047562D02*
X11388094Y18999943D01*
X11388094Y18999943D02*
X11435713Y18904705D01*
X11435713Y18904705D02*
X11435713Y18761848D01*
X11435713Y18761848D02*
X11388094Y18666610D01*
X11388094Y18666610D02*
X11340475Y18618991D01*
X11340475Y18618991D02*
X11245237Y18571372D01*
X11245237Y18571372D02*
X10864285Y18571372D01*
X11769047Y18761848D02*
X12007142Y18095181D01*
X12007142Y18095181D02*
X12245237Y18761848D01*
X12626190Y18095181D02*
X12626190Y18761848D01*
X12626190Y18571372D02*
X12673809Y18666610D01*
X12673809Y18666610D02*
X12721428Y18714229D01*
X12721428Y18714229D02*
X12816666Y18761848D01*
X12816666Y18761848D02*
X12911904Y18761848D01*
X13626190Y18142800D02*
X13530952Y18095181D01*
X13530952Y18095181D02*
X13340476Y18095181D01*
X13340476Y18095181D02*
X13245238Y18142800D01*
X13245238Y18142800D02*
X13197619Y18238039D01*
X13197619Y18238039D02*
X13197619Y18618991D01*
X13197619Y18618991D02*
X13245238Y18714229D01*
X13245238Y18714229D02*
X13340476Y18761848D01*
X13340476Y18761848D02*
X13530952Y18761848D01*
X13530952Y18761848D02*
X13626190Y18714229D01*
X13626190Y18714229D02*
X13673809Y18618991D01*
X13673809Y18618991D02*
X13673809Y18523753D01*
X13673809Y18523753D02*
X13197619Y18428515D01*
X13959524Y18761848D02*
X14340476Y18761848D01*
X14102381Y18095181D02*
X14102381Y18952324D01*
X14102381Y18952324D02*
X14150000Y19047562D01*
X14150000Y19047562D02*
X14245238Y19095181D01*
X14245238Y19095181D02*
X14340476Y19095181D01*
X34048571Y18285181D02*
X33715238Y18761372D01*
X33477143Y18285181D02*
X33477143Y19285181D01*
X33477143Y19285181D02*
X33858095Y19285181D01*
X33858095Y19285181D02*
X33953333Y19237562D01*
X33953333Y19237562D02*
X34000952Y19189943D01*
X34000952Y19189943D02*
X34048571Y19094705D01*
X34048571Y19094705D02*
X34048571Y18951848D01*
X34048571Y18951848D02*
X34000952Y18856610D01*
X34000952Y18856610D02*
X33953333Y18808991D01*
X33953333Y18808991D02*
X33858095Y18761372D01*
X33858095Y18761372D02*
X33477143Y18761372D01*
X34620000Y18856610D02*
X34524762Y18904229D01*
X34524762Y18904229D02*
X34477143Y18951848D01*
X34477143Y18951848D02*
X34429524Y19047086D01*
X34429524Y19047086D02*
X34429524Y19094705D01*
X34429524Y19094705D02*
X34477143Y19189943D01*
X34477143Y19189943D02*
X34524762Y19237562D01*
X34524762Y19237562D02*
X34620000Y19285181D01*
X34620000Y19285181D02*
X34810476Y19285181D01*
X34810476Y19285181D02*
X34905714Y19237562D01*
X34905714Y19237562D02*
X34953333Y19189943D01*
X34953333Y19189943D02*
X35000952Y19094705D01*
X35000952Y19094705D02*
X35000952Y19047086D01*
X35000952Y19047086D02*
X34953333Y18951848D01*
X34953333Y18951848D02*
X34905714Y18904229D01*
X34905714Y18904229D02*
X34810476Y18856610D01*
X34810476Y18856610D02*
X34620000Y18856610D01*
X34620000Y18856610D02*
X34524762Y18808991D01*
X34524762Y18808991D02*
X34477143Y18761372D01*
X34477143Y18761372D02*
X34429524Y18666134D01*
X34429524Y18666134D02*
X34429524Y18475658D01*
X34429524Y18475658D02*
X34477143Y18380420D01*
X34477143Y18380420D02*
X34524762Y18332800D01*
X34524762Y18332800D02*
X34620000Y18285181D01*
X34620000Y18285181D02*
X34810476Y18285181D01*
X34810476Y18285181D02*
X34905714Y18332800D01*
X34905714Y18332800D02*
X34953333Y18380420D01*
X34953333Y18380420D02*
X35000952Y18475658D01*
X35000952Y18475658D02*
X35000952Y18666134D01*
X35000952Y18666134D02*
X34953333Y18761372D01*
X34953333Y18761372D02*
X34905714Y18808991D01*
X34905714Y18808991D02*
X34810476Y18856610D01*
X35381905Y18332800D02*
X35477143Y18285181D01*
X35477143Y18285181D02*
X35667619Y18285181D01*
X35667619Y18285181D02*
X35762857Y18332800D01*
X35762857Y18332800D02*
X35810476Y18428039D01*
X35810476Y18428039D02*
X35810476Y18475658D01*
X35810476Y18475658D02*
X35762857Y18570896D01*
X35762857Y18570896D02*
X35667619Y18618515D01*
X35667619Y18618515D02*
X35524762Y18618515D01*
X35524762Y18618515D02*
X35429524Y18666134D01*
X35429524Y18666134D02*
X35381905Y18761372D01*
X35381905Y18761372D02*
X35381905Y18808991D01*
X35381905Y18808991D02*
X35429524Y18904229D01*
X35429524Y18904229D02*
X35524762Y18951848D01*
X35524762Y18951848D02*
X35667619Y18951848D01*
X35667619Y18951848D02*
X35762857Y18904229D01*
X15564819Y36223334D02*
X15088628Y35890001D01*
X15564819Y35651906D02*
X14564819Y35651906D01*
X14564819Y35651906D02*
X14564819Y36032858D01*
X14564819Y36032858D02*
X14612438Y36128096D01*
X14612438Y36128096D02*
X14660057Y36175715D01*
X14660057Y36175715D02*
X14755295Y36223334D01*
X14755295Y36223334D02*
X14898152Y36223334D01*
X14898152Y36223334D02*
X14993390Y36175715D01*
X14993390Y36175715D02*
X15041009Y36128096D01*
X15041009Y36128096D02*
X15088628Y36032858D01*
X15088628Y36032858D02*
X15088628Y35651906D01*
X14564819Y36556668D02*
X14564819Y37223334D01*
X14564819Y37223334D02*
X15564819Y36794763D01*
X33848571Y36938991D02*
X33515238Y36938991D01*
X33515238Y36415181D02*
X33515238Y37415181D01*
X33515238Y37415181D02*
X33991428Y37415181D01*
X34372381Y36415181D02*
X34372381Y37415181D01*
X34848571Y36415181D02*
X34848571Y37415181D01*
X34848571Y37415181D02*
X35086666Y37415181D01*
X35086666Y37415181D02*
X35229523Y37367562D01*
X35229523Y37367562D02*
X35324761Y37272324D01*
X35324761Y37272324D02*
X35372380Y37177086D01*
X35372380Y37177086D02*
X35419999Y36986610D01*
X35419999Y36986610D02*
X35419999Y36843753D01*
X35419999Y36843753D02*
X35372380Y36653277D01*
X35372380Y36653277D02*
X35324761Y36558039D01*
X35324761Y36558039D02*
X35229523Y36462800D01*
X35229523Y36462800D02*
X35086666Y36415181D01*
X35086666Y36415181D02*
X34848571Y36415181D01*
X36372380Y36415181D02*
X35800952Y36415181D01*
X36086666Y36415181D02*
X36086666Y37415181D01*
X36086666Y37415181D02*
X35991428Y37272324D01*
X35991428Y37272324D02*
X35896190Y37177086D01*
X35896190Y37177086D02*
X35800952Y37129467D01*
X10804819Y25761906D02*
X9804819Y25761906D01*
X9804819Y25761906D02*
X9804819Y26000001D01*
X9804819Y26000001D02*
X9852438Y26142858D01*
X9852438Y26142858D02*
X9947676Y26238096D01*
X9947676Y26238096D02*
X10042914Y26285715D01*
X10042914Y26285715D02*
X10233390Y26333334D01*
X10233390Y26333334D02*
X10376247Y26333334D01*
X10376247Y26333334D02*
X10566723Y26285715D01*
X10566723Y26285715D02*
X10661961Y26238096D01*
X10661961Y26238096D02*
X10757200Y26142858D01*
X10757200Y26142858D02*
X10804819Y26000001D01*
X10804819Y26000001D02*
X10804819Y25761906D01*
X9804819Y26666668D02*
X9804819Y27285715D01*
X9804819Y27285715D02*
X10185771Y26952382D01*
X10185771Y26952382D02*
X10185771Y27095239D01*
X10185771Y27095239D02*
X10233390Y27190477D01*
X10233390Y27190477D02*
X10281009Y27238096D01*
X10281009Y27238096D02*
X10376247Y27285715D01*
X10376247Y27285715D02*
X10614342Y27285715D01*
X10614342Y27285715D02*
X10709580Y27238096D01*
X10709580Y27238096D02*
X10757200Y27190477D01*
X10757200Y27190477D02*
X10804819Y27095239D01*
X10804819Y27095239D02*
X10804819Y26809525D01*
X10804819Y26809525D02*
X10757200Y26714287D01*
X10757200Y26714287D02*
X10709580Y26666668D01*
X28950057Y36514762D02*
X28902438Y36419524D01*
X28902438Y36419524D02*
X28807200Y36324286D01*
X28807200Y36324286D02*
X28664342Y36181429D01*
X28664342Y36181429D02*
X28616723Y36086191D01*
X28616723Y36086191D02*
X28616723Y35990953D01*
X28854819Y36038572D02*
X28807200Y35943334D01*
X28807200Y35943334D02*
X28711961Y35848096D01*
X28711961Y35848096D02*
X28521485Y35800477D01*
X28521485Y35800477D02*
X28188152Y35800477D01*
X28188152Y35800477D02*
X27997676Y35848096D01*
X27997676Y35848096D02*
X27902438Y35943334D01*
X27902438Y35943334D02*
X27854819Y36038572D01*
X27854819Y36038572D02*
X27854819Y36229048D01*
X27854819Y36229048D02*
X27902438Y36324286D01*
X27902438Y36324286D02*
X27997676Y36419524D01*
X27997676Y36419524D02*
X28188152Y36467143D01*
X28188152Y36467143D02*
X28521485Y36467143D01*
X28521485Y36467143D02*
X28711961Y36419524D01*
X28711961Y36419524D02*
X28807200Y36324286D01*
X28807200Y36324286D02*
X28854819Y36229048D01*
X28854819Y36229048D02*
X28854819Y36038572D01*
X28854819Y36943334D02*
X28854819Y37133810D01*
X28854819Y37133810D02*
X28807200Y37229048D01*
X28807200Y37229048D02*
X28759580Y37276667D01*
X28759580Y37276667D02*
X28616723Y37371905D01*
X28616723Y37371905D02*
X28426247Y37419524D01*
X28426247Y37419524D02*
X28045295Y37419524D01*
X28045295Y37419524D02*
X27950057Y37371905D01*
X27950057Y37371905D02*
X27902438Y37324286D01*
X27902438Y37324286D02*
X27854819Y37229048D01*
X27854819Y37229048D02*
X27854819Y37038572D01*
X27854819Y37038572D02*
X27902438Y36943334D01*
X27902438Y36943334D02*
X27950057Y36895715D01*
X27950057Y36895715D02*
X28045295Y36848096D01*
X28045295Y36848096D02*
X28283390Y36848096D01*
X28283390Y36848096D02*
X28378628Y36895715D01*
X28378628Y36895715D02*
X28426247Y36943334D01*
X28426247Y36943334D02*
X28473866Y37038572D01*
X28473866Y37038572D02*
X28473866Y37229048D01*
X28473866Y37229048D02*
X28426247Y37324286D01*
X28426247Y37324286D02*
X28378628Y37371905D01*
X28378628Y37371905D02*
X28283390Y37419524D01*
X18910057Y20024762D02*
X18862438Y19929524D01*
X18862438Y19929524D02*
X18767200Y19834286D01*
X18767200Y19834286D02*
X18624342Y19691429D01*
X18624342Y19691429D02*
X18576723Y19596191D01*
X18576723Y19596191D02*
X18576723Y19500953D01*
X18814819Y19548572D02*
X18767200Y19453334D01*
X18767200Y19453334D02*
X18671961Y19358096D01*
X18671961Y19358096D02*
X18481485Y19310477D01*
X18481485Y19310477D02*
X18148152Y19310477D01*
X18148152Y19310477D02*
X17957676Y19358096D01*
X17957676Y19358096D02*
X17862438Y19453334D01*
X17862438Y19453334D02*
X17814819Y19548572D01*
X17814819Y19548572D02*
X17814819Y19739048D01*
X17814819Y19739048D02*
X17862438Y19834286D01*
X17862438Y19834286D02*
X17957676Y19929524D01*
X17957676Y19929524D02*
X18148152Y19977143D01*
X18148152Y19977143D02*
X18481485Y19977143D01*
X18481485Y19977143D02*
X18671961Y19929524D01*
X18671961Y19929524D02*
X18767200Y19834286D01*
X18767200Y19834286D02*
X18814819Y19739048D01*
X18814819Y19739048D02*
X18814819Y19548572D01*
X18148152Y20834286D02*
X18814819Y20834286D01*
X17767200Y20596191D02*
X18481485Y20358096D01*
X18481485Y20358096D02*
X18481485Y20977143D01*
X15124761Y19349943D02*
X15029523Y19397562D01*
X15029523Y19397562D02*
X14934285Y19492800D01*
X14934285Y19492800D02*
X14791428Y19635658D01*
X14791428Y19635658D02*
X14696190Y19683277D01*
X14696190Y19683277D02*
X14600952Y19683277D01*
X14648571Y19445181D02*
X14553333Y19492800D01*
X14553333Y19492800D02*
X14458095Y19588039D01*
X14458095Y19588039D02*
X14410476Y19778515D01*
X14410476Y19778515D02*
X14410476Y20111848D01*
X14410476Y20111848D02*
X14458095Y20302324D01*
X14458095Y20302324D02*
X14553333Y20397562D01*
X14553333Y20397562D02*
X14648571Y20445181D01*
X14648571Y20445181D02*
X14839047Y20445181D01*
X14839047Y20445181D02*
X14934285Y20397562D01*
X14934285Y20397562D02*
X15029523Y20302324D01*
X15029523Y20302324D02*
X15077142Y20111848D01*
X15077142Y20111848D02*
X15077142Y19778515D01*
X15077142Y19778515D02*
X15029523Y19588039D01*
X15029523Y19588039D02*
X14934285Y19492800D01*
X14934285Y19492800D02*
X14839047Y19445181D01*
X14839047Y19445181D02*
X14648571Y19445181D01*
X15410476Y20445181D02*
X16029523Y20445181D01*
X16029523Y20445181D02*
X15696190Y20064229D01*
X15696190Y20064229D02*
X15839047Y20064229D01*
X15839047Y20064229D02*
X15934285Y20016610D01*
X15934285Y20016610D02*
X15981904Y19968991D01*
X15981904Y19968991D02*
X16029523Y19873753D01*
X16029523Y19873753D02*
X16029523Y19635658D01*
X16029523Y19635658D02*
X15981904Y19540420D01*
X15981904Y19540420D02*
X15934285Y19492800D01*
X15934285Y19492800D02*
X15839047Y19445181D01*
X15839047Y19445181D02*
X15553333Y19445181D01*
X15553333Y19445181D02*
X15458095Y19492800D01*
X15458095Y19492800D02*
X15410476Y19540420D01*
X4008571Y7098991D02*
X3675238Y7098991D01*
X3675238Y6575181D02*
X3675238Y7575181D01*
X3675238Y7575181D02*
X4151428Y7575181D01*
X4532381Y6575181D02*
X4532381Y7575181D01*
X5008571Y6575181D02*
X5008571Y7575181D01*
X5008571Y7575181D02*
X5246666Y7575181D01*
X5246666Y7575181D02*
X5389523Y7527562D01*
X5389523Y7527562D02*
X5484761Y7432324D01*
X5484761Y7432324D02*
X5532380Y7337086D01*
X5532380Y7337086D02*
X5579999Y7146610D01*
X5579999Y7146610D02*
X5579999Y7003753D01*
X5579999Y7003753D02*
X5532380Y6813277D01*
X5532380Y6813277D02*
X5484761Y6718039D01*
X5484761Y6718039D02*
X5389523Y6622800D01*
X5389523Y6622800D02*
X5246666Y6575181D01*
X5246666Y6575181D02*
X5008571Y6575181D01*
X5960952Y7479943D02*
X6008571Y7527562D01*
X6008571Y7527562D02*
X6103809Y7575181D01*
X6103809Y7575181D02*
X6341904Y7575181D01*
X6341904Y7575181D02*
X6437142Y7527562D01*
X6437142Y7527562D02*
X6484761Y7479943D01*
X6484761Y7479943D02*
X6532380Y7384705D01*
X6532380Y7384705D02*
X6532380Y7289467D01*
X6532380Y7289467D02*
X6484761Y7146610D01*
X6484761Y7146610D02*
X5913333Y6575181D01*
X5913333Y6575181D02*
X6532380Y6575181D01*
X22811904Y20995181D02*
X23383332Y20995181D01*
X23097618Y19995181D02*
X23097618Y20995181D01*
X23716666Y19995181D02*
X23716666Y20995181D01*
X24145237Y19995181D02*
X24145237Y20518991D01*
X24145237Y20518991D02*
X24097618Y20614229D01*
X24097618Y20614229D02*
X24002380Y20661848D01*
X24002380Y20661848D02*
X23859523Y20661848D01*
X23859523Y20661848D02*
X23764285Y20614229D01*
X23764285Y20614229D02*
X23716666Y20566610D01*
X24621428Y20661848D02*
X24621428Y19661848D01*
X24621428Y20614229D02*
X24716666Y20661848D01*
X24716666Y20661848D02*
X24907142Y20661848D01*
X24907142Y20661848D02*
X25002380Y20614229D01*
X25002380Y20614229D02*
X25049999Y20566610D01*
X25049999Y20566610D02*
X25097618Y20471372D01*
X25097618Y20471372D02*
X25097618Y20185658D01*
X25097618Y20185658D02*
X25049999Y20090420D01*
X25049999Y20090420D02*
X25002380Y20042800D01*
X25002380Y20042800D02*
X24907142Y19995181D01*
X24907142Y19995181D02*
X24716666Y19995181D01*
X24716666Y19995181D02*
X24621428Y20042800D01*
X25526190Y19995181D02*
X25526190Y20661848D01*
X25526190Y20471372D02*
X25573809Y20566610D01*
X25573809Y20566610D02*
X25621428Y20614229D01*
X25621428Y20614229D02*
X25716666Y20661848D01*
X25716666Y20661848D02*
X25811904Y20661848D01*
X26288095Y19995181D02*
X26192857Y20042800D01*
X26192857Y20042800D02*
X26145238Y20090420D01*
X26145238Y20090420D02*
X26097619Y20185658D01*
X26097619Y20185658D02*
X26097619Y20471372D01*
X26097619Y20471372D02*
X26145238Y20566610D01*
X26145238Y20566610D02*
X26192857Y20614229D01*
X26192857Y20614229D02*
X26288095Y20661848D01*
X26288095Y20661848D02*
X26430952Y20661848D01*
X26430952Y20661848D02*
X26526190Y20614229D01*
X26526190Y20614229D02*
X26573809Y20566610D01*
X26573809Y20566610D02*
X26621428Y20471372D01*
X26621428Y20471372D02*
X26621428Y20185658D01*
X26621428Y20185658D02*
X26573809Y20090420D01*
X26573809Y20090420D02*
X26526190Y20042800D01*
X26526190Y20042800D02*
X26430952Y19995181D01*
X26430952Y19995181D02*
X26288095Y19995181D01*
X26907143Y20661848D02*
X27288095Y20661848D01*
X27050000Y20995181D02*
X27050000Y20138039D01*
X27050000Y20138039D02*
X27097619Y20042800D01*
X27097619Y20042800D02*
X27192857Y19995181D01*
X27192857Y19995181D02*
X27288095Y19995181D01*
X22374819Y36113334D02*
X21898628Y35780001D01*
X22374819Y35541906D02*
X21374819Y35541906D01*
X21374819Y35541906D02*
X21374819Y35922858D01*
X21374819Y35922858D02*
X21422438Y36018096D01*
X21422438Y36018096D02*
X21470057Y36065715D01*
X21470057Y36065715D02*
X21565295Y36113334D01*
X21565295Y36113334D02*
X21708152Y36113334D01*
X21708152Y36113334D02*
X21803390Y36065715D01*
X21803390Y36065715D02*
X21851009Y36018096D01*
X21851009Y36018096D02*
X21898628Y35922858D01*
X21898628Y35922858D02*
X21898628Y35541906D01*
X21374819Y37018096D02*
X21374819Y36541906D01*
X21374819Y36541906D02*
X21851009Y36494287D01*
X21851009Y36494287D02*
X21803390Y36541906D01*
X21803390Y36541906D02*
X21755771Y36637144D01*
X21755771Y36637144D02*
X21755771Y36875239D01*
X21755771Y36875239D02*
X21803390Y36970477D01*
X21803390Y36970477D02*
X21851009Y37018096D01*
X21851009Y37018096D02*
X21946247Y37065715D01*
X21946247Y37065715D02*
X22184342Y37065715D01*
X22184342Y37065715D02*
X22279580Y37018096D01*
X22279580Y37018096D02*
X22327200Y36970477D01*
X22327200Y36970477D02*
X22374819Y36875239D01*
X22374819Y36875239D02*
X22374819Y36637144D01*
X22374819Y36637144D02*
X22327200Y36541906D01*
X22327200Y36541906D02*
X22279580Y36494287D01*
X19060057Y26914762D02*
X19012438Y26819524D01*
X19012438Y26819524D02*
X18917200Y26724286D01*
X18917200Y26724286D02*
X18774342Y26581429D01*
X18774342Y26581429D02*
X18726723Y26486191D01*
X18726723Y26486191D02*
X18726723Y26390953D01*
X18964819Y26438572D02*
X18917200Y26343334D01*
X18917200Y26343334D02*
X18821961Y26248096D01*
X18821961Y26248096D02*
X18631485Y26200477D01*
X18631485Y26200477D02*
X18298152Y26200477D01*
X18298152Y26200477D02*
X18107676Y26248096D01*
X18107676Y26248096D02*
X18012438Y26343334D01*
X18012438Y26343334D02*
X17964819Y26438572D01*
X17964819Y26438572D02*
X17964819Y26629048D01*
X17964819Y26629048D02*
X18012438Y26724286D01*
X18012438Y26724286D02*
X18107676Y26819524D01*
X18107676Y26819524D02*
X18298152Y26867143D01*
X18298152Y26867143D02*
X18631485Y26867143D01*
X18631485Y26867143D02*
X18821961Y26819524D01*
X18821961Y26819524D02*
X18917200Y26724286D01*
X18917200Y26724286D02*
X18964819Y26629048D01*
X18964819Y26629048D02*
X18964819Y26438572D01*
X17964819Y27200477D02*
X17964819Y27867143D01*
X17964819Y27867143D02*
X18964819Y27438572D01*
X38350057Y27148572D02*
X38302438Y27053334D01*
X38302438Y27053334D02*
X38207200Y26958096D01*
X38207200Y26958096D02*
X38064342Y26815239D01*
X38064342Y26815239D02*
X38016723Y26720001D01*
X38016723Y26720001D02*
X38016723Y26624763D01*
X38254819Y26672382D02*
X38207200Y26577144D01*
X38207200Y26577144D02*
X38111961Y26481906D01*
X38111961Y26481906D02*
X37921485Y26434287D01*
X37921485Y26434287D02*
X37588152Y26434287D01*
X37588152Y26434287D02*
X37397676Y26481906D01*
X37397676Y26481906D02*
X37302438Y26577144D01*
X37302438Y26577144D02*
X37254819Y26672382D01*
X37254819Y26672382D02*
X37254819Y26862858D01*
X37254819Y26862858D02*
X37302438Y26958096D01*
X37302438Y26958096D02*
X37397676Y27053334D01*
X37397676Y27053334D02*
X37588152Y27100953D01*
X37588152Y27100953D02*
X37921485Y27100953D01*
X37921485Y27100953D02*
X38111961Y27053334D01*
X38111961Y27053334D02*
X38207200Y26958096D01*
X38207200Y26958096D02*
X38254819Y26862858D01*
X38254819Y26862858D02*
X38254819Y26672382D01*
X38254819Y28053334D02*
X38254819Y27481906D01*
X38254819Y27767620D02*
X37254819Y27767620D01*
X37254819Y27767620D02*
X37397676Y27672382D01*
X37397676Y27672382D02*
X37492914Y27577144D01*
X37492914Y27577144D02*
X37540533Y27481906D01*
X37254819Y28672382D02*
X37254819Y28767620D01*
X37254819Y28767620D02*
X37302438Y28862858D01*
X37302438Y28862858D02*
X37350057Y28910477D01*
X37350057Y28910477D02*
X37445295Y28958096D01*
X37445295Y28958096D02*
X37635771Y29005715D01*
X37635771Y29005715D02*
X37873866Y29005715D01*
X37873866Y29005715D02*
X38064342Y28958096D01*
X38064342Y28958096D02*
X38159580Y28910477D01*
X38159580Y28910477D02*
X38207200Y28862858D01*
X38207200Y28862858D02*
X38254819Y28767620D01*
X38254819Y28767620D02*
X38254819Y28672382D01*
X38254819Y28672382D02*
X38207200Y28577144D01*
X38207200Y28577144D02*
X38159580Y28529525D01*
X38159580Y28529525D02*
X38064342Y28481906D01*
X38064342Y28481906D02*
X37873866Y28434287D01*
X37873866Y28434287D02*
X37635771Y28434287D01*
X37635771Y28434287D02*
X37445295Y28481906D01*
X37445295Y28481906D02*
X37350057Y28529525D01*
X37350057Y28529525D02*
X37302438Y28577144D01*
X37302438Y28577144D02*
X37254819Y28672382D01*
X19064819Y36433334D02*
X18588628Y36100001D01*
X19064819Y35861906D02*
X18064819Y35861906D01*
X18064819Y35861906D02*
X18064819Y36242858D01*
X18064819Y36242858D02*
X18112438Y36338096D01*
X18112438Y36338096D02*
X18160057Y36385715D01*
X18160057Y36385715D02*
X18255295Y36433334D01*
X18255295Y36433334D02*
X18398152Y36433334D01*
X18398152Y36433334D02*
X18493390Y36385715D01*
X18493390Y36385715D02*
X18541009Y36338096D01*
X18541009Y36338096D02*
X18588628Y36242858D01*
X18588628Y36242858D02*
X18588628Y35861906D01*
X18398152Y37290477D02*
X19064819Y37290477D01*
X18017200Y37052382D02*
X18731485Y36814287D01*
X18731485Y36814287D02*
X18731485Y37433334D01*
X36688571Y16245181D02*
X36355238Y16721372D01*
X36117143Y16245181D02*
X36117143Y17245181D01*
X36117143Y17245181D02*
X36498095Y17245181D01*
X36498095Y17245181D02*
X36593333Y17197562D01*
X36593333Y17197562D02*
X36640952Y17149943D01*
X36640952Y17149943D02*
X36688571Y17054705D01*
X36688571Y17054705D02*
X36688571Y16911848D01*
X36688571Y16911848D02*
X36640952Y16816610D01*
X36640952Y16816610D02*
X36593333Y16768991D01*
X36593333Y16768991D02*
X36498095Y16721372D01*
X36498095Y16721372D02*
X36117143Y16721372D01*
X37593333Y16245181D02*
X37117143Y16245181D01*
X37117143Y16245181D02*
X37117143Y17245181D01*
X37879048Y17149943D02*
X37926667Y17197562D01*
X37926667Y17197562D02*
X38021905Y17245181D01*
X38021905Y17245181D02*
X38260000Y17245181D01*
X38260000Y17245181D02*
X38355238Y17197562D01*
X38355238Y17197562D02*
X38402857Y17149943D01*
X38402857Y17149943D02*
X38450476Y17054705D01*
X38450476Y17054705D02*
X38450476Y16959467D01*
X38450476Y16959467D02*
X38402857Y16816610D01*
X38402857Y16816610D02*
X37831429Y16245181D01*
X37831429Y16245181D02*
X38450476Y16245181D01*
X4312381Y32475181D02*
X4312381Y31760896D01*
X4312381Y31760896D02*
X4264762Y31618039D01*
X4264762Y31618039D02*
X4169524Y31522800D01*
X4169524Y31522800D02*
X4026667Y31475181D01*
X4026667Y31475181D02*
X3931429Y31475181D01*
X4788572Y31475181D02*
X4788572Y32141848D01*
X4788572Y32475181D02*
X4740953Y32427562D01*
X4740953Y32427562D02*
X4788572Y32379943D01*
X4788572Y32379943D02*
X4836191Y32427562D01*
X4836191Y32427562D02*
X4788572Y32475181D01*
X4788572Y32475181D02*
X4788572Y32379943D01*
X5264762Y32141848D02*
X5264762Y31475181D01*
X5264762Y32046610D02*
X5312381Y32094229D01*
X5312381Y32094229D02*
X5407619Y32141848D01*
X5407619Y32141848D02*
X5550476Y32141848D01*
X5550476Y32141848D02*
X5645714Y32094229D01*
X5645714Y32094229D02*
X5693333Y31998991D01*
X5693333Y31998991D02*
X5693333Y31475181D01*
X29484761Y15235181D02*
X29151428Y15711372D01*
X28913333Y15235181D02*
X28913333Y16235181D01*
X28913333Y16235181D02*
X29294285Y16235181D01*
X29294285Y16235181D02*
X29389523Y16187562D01*
X29389523Y16187562D02*
X29437142Y16139943D01*
X29437142Y16139943D02*
X29484761Y16044705D01*
X29484761Y16044705D02*
X29484761Y15901848D01*
X29484761Y15901848D02*
X29437142Y15806610D01*
X29437142Y15806610D02*
X29389523Y15758991D01*
X29389523Y15758991D02*
X29294285Y15711372D01*
X29294285Y15711372D02*
X28913333Y15711372D01*
X29770476Y16235181D02*
X30103809Y15235181D01*
X30103809Y15235181D02*
X30437142Y16235181D01*
X30722857Y16139943D02*
X30770476Y16187562D01*
X30770476Y16187562D02*
X30865714Y16235181D01*
X30865714Y16235181D02*
X31103809Y16235181D01*
X31103809Y16235181D02*
X31199047Y16187562D01*
X31199047Y16187562D02*
X31246666Y16139943D01*
X31246666Y16139943D02*
X31294285Y16044705D01*
X31294285Y16044705D02*
X31294285Y15949467D01*
X31294285Y15949467D02*
X31246666Y15806610D01*
X31246666Y15806610D02*
X30675238Y15235181D01*
X30675238Y15235181D02*
X31294285Y15235181D01*
X16704819Y28083334D02*
X16228628Y27750001D01*
X16704819Y27511906D02*
X15704819Y27511906D01*
X15704819Y27511906D02*
X15704819Y27892858D01*
X15704819Y27892858D02*
X15752438Y27988096D01*
X15752438Y27988096D02*
X15800057Y28035715D01*
X15800057Y28035715D02*
X15895295Y28083334D01*
X15895295Y28083334D02*
X16038152Y28083334D01*
X16038152Y28083334D02*
X16133390Y28035715D01*
X16133390Y28035715D02*
X16181009Y27988096D01*
X16181009Y27988096D02*
X16228628Y27892858D01*
X16228628Y27892858D02*
X16228628Y27511906D01*
X15704819Y28940477D02*
X15704819Y28750001D01*
X15704819Y28750001D02*
X15752438Y28654763D01*
X15752438Y28654763D02*
X15800057Y28607144D01*
X15800057Y28607144D02*
X15942914Y28511906D01*
X15942914Y28511906D02*
X16133390Y28464287D01*
X16133390Y28464287D02*
X16514342Y28464287D01*
X16514342Y28464287D02*
X16609580Y28511906D01*
X16609580Y28511906D02*
X16657200Y28559525D01*
X16657200Y28559525D02*
X16704819Y28654763D01*
X16704819Y28654763D02*
X16704819Y28845239D01*
X16704819Y28845239D02*
X16657200Y28940477D01*
X16657200Y28940477D02*
X16609580Y28988096D01*
X16609580Y28988096D02*
X16514342Y29035715D01*
X16514342Y29035715D02*
X16276247Y29035715D01*
X16276247Y29035715D02*
X16181009Y28988096D01*
X16181009Y28988096D02*
X16133390Y28940477D01*
X16133390Y28940477D02*
X16085771Y28845239D01*
X16085771Y28845239D02*
X16085771Y28654763D01*
X16085771Y28654763D02*
X16133390Y28559525D01*
X16133390Y28559525D02*
X16181009Y28511906D01*
X16181009Y28511906D02*
X16276247Y28464287D01*
X32037142Y11765181D02*
X31703809Y12241372D01*
X31465714Y11765181D02*
X31465714Y12765181D01*
X31465714Y12765181D02*
X31846666Y12765181D01*
X31846666Y12765181D02*
X31941904Y12717562D01*
X31941904Y12717562D02*
X31989523Y12669943D01*
X31989523Y12669943D02*
X32037142Y12574705D01*
X32037142Y12574705D02*
X32037142Y12431848D01*
X32037142Y12431848D02*
X31989523Y12336610D01*
X31989523Y12336610D02*
X31941904Y12288991D01*
X31941904Y12288991D02*
X31846666Y12241372D01*
X31846666Y12241372D02*
X31465714Y12241372D01*
X32989523Y11765181D02*
X32418095Y11765181D01*
X32703809Y11765181D02*
X32703809Y12765181D01*
X32703809Y12765181D02*
X32608571Y12622324D01*
X32608571Y12622324D02*
X32513333Y12527086D01*
X32513333Y12527086D02*
X32418095Y12479467D01*
X33608571Y12765181D02*
X33703809Y12765181D01*
X33703809Y12765181D02*
X33799047Y12717562D01*
X33799047Y12717562D02*
X33846666Y12669943D01*
X33846666Y12669943D02*
X33894285Y12574705D01*
X33894285Y12574705D02*
X33941904Y12384229D01*
X33941904Y12384229D02*
X33941904Y12146134D01*
X33941904Y12146134D02*
X33894285Y11955658D01*
X33894285Y11955658D02*
X33846666Y11860420D01*
X33846666Y11860420D02*
X33799047Y11812800D01*
X33799047Y11812800D02*
X33703809Y11765181D01*
X33703809Y11765181D02*
X33608571Y11765181D01*
X33608571Y11765181D02*
X33513333Y11812800D01*
X33513333Y11812800D02*
X33465714Y11860420D01*
X33465714Y11860420D02*
X33418095Y11955658D01*
X33418095Y11955658D02*
X33370476Y12146134D01*
X33370476Y12146134D02*
X33370476Y12384229D01*
X33370476Y12384229D02*
X33418095Y12574705D01*
X33418095Y12574705D02*
X33465714Y12669943D01*
X33465714Y12669943D02*
X33513333Y12717562D01*
X33513333Y12717562D02*
X33608571Y12765181D01*
X2304819Y24011906D02*
X1304819Y24011906D01*
X1304819Y24011906D02*
X1304819Y24250001D01*
X1304819Y24250001D02*
X1352438Y24392858D01*
X1352438Y24392858D02*
X1447676Y24488096D01*
X1447676Y24488096D02*
X1542914Y24535715D01*
X1542914Y24535715D02*
X1733390Y24583334D01*
X1733390Y24583334D02*
X1876247Y24583334D01*
X1876247Y24583334D02*
X2066723Y24535715D01*
X2066723Y24535715D02*
X2161961Y24488096D01*
X2161961Y24488096D02*
X2257200Y24392858D01*
X2257200Y24392858D02*
X2304819Y24250001D01*
X2304819Y24250001D02*
X2304819Y24011906D01*
X1400057Y24964287D02*
X1352438Y25011906D01*
X1352438Y25011906D02*
X1304819Y25107144D01*
X1304819Y25107144D02*
X1304819Y25345239D01*
X1304819Y25345239D02*
X1352438Y25440477D01*
X1352438Y25440477D02*
X1400057Y25488096D01*
X1400057Y25488096D02*
X1495295Y25535715D01*
X1495295Y25535715D02*
X1590533Y25535715D01*
X1590533Y25535715D02*
X1733390Y25488096D01*
X1733390Y25488096D02*
X2304819Y24916668D01*
X2304819Y24916668D02*
X2304819Y25535715D01*
X4714819Y18953334D02*
X4238628Y18620001D01*
X4714819Y18381906D02*
X3714819Y18381906D01*
X3714819Y18381906D02*
X3714819Y18762858D01*
X3714819Y18762858D02*
X3762438Y18858096D01*
X3762438Y18858096D02*
X3810057Y18905715D01*
X3810057Y18905715D02*
X3905295Y18953334D01*
X3905295Y18953334D02*
X4048152Y18953334D01*
X4048152Y18953334D02*
X4143390Y18905715D01*
X4143390Y18905715D02*
X4191009Y18858096D01*
X4191009Y18858096D02*
X4238628Y18762858D01*
X4238628Y18762858D02*
X4238628Y18381906D01*
X3810057Y19334287D02*
X3762438Y19381906D01*
X3762438Y19381906D02*
X3714819Y19477144D01*
X3714819Y19477144D02*
X3714819Y19715239D01*
X3714819Y19715239D02*
X3762438Y19810477D01*
X3762438Y19810477D02*
X3810057Y19858096D01*
X3810057Y19858096D02*
X3905295Y19905715D01*
X3905295Y19905715D02*
X4000533Y19905715D01*
X4000533Y19905715D02*
X4143390Y19858096D01*
X4143390Y19858096D02*
X4714819Y19286668D01*
X4714819Y19286668D02*
X4714819Y19905715D01*
X32758571Y9835181D02*
X32425238Y10311372D01*
X32187143Y9835181D02*
X32187143Y10835181D01*
X32187143Y10835181D02*
X32568095Y10835181D01*
X32568095Y10835181D02*
X32663333Y10787562D01*
X32663333Y10787562D02*
X32710952Y10739943D01*
X32710952Y10739943D02*
X32758571Y10644705D01*
X32758571Y10644705D02*
X32758571Y10501848D01*
X32758571Y10501848D02*
X32710952Y10406610D01*
X32710952Y10406610D02*
X32663333Y10358991D01*
X32663333Y10358991D02*
X32568095Y10311372D01*
X32568095Y10311372D02*
X32187143Y10311372D01*
X33663333Y9835181D02*
X33187143Y9835181D01*
X33187143Y9835181D02*
X33187143Y10835181D01*
X34520476Y9835181D02*
X33949048Y9835181D01*
X34234762Y9835181D02*
X34234762Y10835181D01*
X34234762Y10835181D02*
X34139524Y10692324D01*
X34139524Y10692324D02*
X34044286Y10597086D01*
X34044286Y10597086D02*
X33949048Y10549467D01*
X15324761Y30189943D02*
X15229523Y30237562D01*
X15229523Y30237562D02*
X15134285Y30332800D01*
X15134285Y30332800D02*
X14991428Y30475658D01*
X14991428Y30475658D02*
X14896190Y30523277D01*
X14896190Y30523277D02*
X14800952Y30523277D01*
X14848571Y30285181D02*
X14753333Y30332800D01*
X14753333Y30332800D02*
X14658095Y30428039D01*
X14658095Y30428039D02*
X14610476Y30618515D01*
X14610476Y30618515D02*
X14610476Y30951848D01*
X14610476Y30951848D02*
X14658095Y31142324D01*
X14658095Y31142324D02*
X14753333Y31237562D01*
X14753333Y31237562D02*
X14848571Y31285181D01*
X14848571Y31285181D02*
X15039047Y31285181D01*
X15039047Y31285181D02*
X15134285Y31237562D01*
X15134285Y31237562D02*
X15229523Y31142324D01*
X15229523Y31142324D02*
X15277142Y30951848D01*
X15277142Y30951848D02*
X15277142Y30618515D01*
X15277142Y30618515D02*
X15229523Y30428039D01*
X15229523Y30428039D02*
X15134285Y30332800D01*
X15134285Y30332800D02*
X15039047Y30285181D01*
X15039047Y30285181D02*
X14848571Y30285181D01*
X16181904Y31285181D02*
X15705714Y31285181D01*
X15705714Y31285181D02*
X15658095Y30808991D01*
X15658095Y30808991D02*
X15705714Y30856610D01*
X15705714Y30856610D02*
X15800952Y30904229D01*
X15800952Y30904229D02*
X16039047Y30904229D01*
X16039047Y30904229D02*
X16134285Y30856610D01*
X16134285Y30856610D02*
X16181904Y30808991D01*
X16181904Y30808991D02*
X16229523Y30713753D01*
X16229523Y30713753D02*
X16229523Y30475658D01*
X16229523Y30475658D02*
X16181904Y30380420D01*
X16181904Y30380420D02*
X16134285Y30332800D01*
X16134285Y30332800D02*
X16039047Y30285181D01*
X16039047Y30285181D02*
X15800952Y30285181D01*
X15800952Y30285181D02*
X15705714Y30332800D01*
X15705714Y30332800D02*
X15658095Y30380420D01*
X28404761Y32115181D02*
X28071428Y32591372D01*
X27833333Y32115181D02*
X27833333Y33115181D01*
X27833333Y33115181D02*
X28214285Y33115181D01*
X28214285Y33115181D02*
X28309523Y33067562D01*
X28309523Y33067562D02*
X28357142Y33019943D01*
X28357142Y33019943D02*
X28404761Y32924705D01*
X28404761Y32924705D02*
X28404761Y32781848D01*
X28404761Y32781848D02*
X28357142Y32686610D01*
X28357142Y32686610D02*
X28309523Y32638991D01*
X28309523Y32638991D02*
X28214285Y32591372D01*
X28214285Y32591372D02*
X27833333Y32591372D01*
X28690476Y33115181D02*
X29023809Y32115181D01*
X29023809Y32115181D02*
X29357142Y33115181D01*
X30214285Y32115181D02*
X29642857Y32115181D01*
X29928571Y32115181D02*
X29928571Y33115181D01*
X29928571Y33115181D02*
X29833333Y32972324D01*
X29833333Y32972324D02*
X29738095Y32877086D01*
X29738095Y32877086D02*
X29642857Y32829467D01*
X12034819Y36223334D02*
X11558628Y35890001D01*
X12034819Y35651906D02*
X11034819Y35651906D01*
X11034819Y35651906D02*
X11034819Y36032858D01*
X11034819Y36032858D02*
X11082438Y36128096D01*
X11082438Y36128096D02*
X11130057Y36175715D01*
X11130057Y36175715D02*
X11225295Y36223334D01*
X11225295Y36223334D02*
X11368152Y36223334D01*
X11368152Y36223334D02*
X11463390Y36175715D01*
X11463390Y36175715D02*
X11511009Y36128096D01*
X11511009Y36128096D02*
X11558628Y36032858D01*
X11558628Y36032858D02*
X11558628Y35651906D01*
X12034819Y37175715D02*
X12034819Y36604287D01*
X12034819Y36890001D02*
X11034819Y36890001D01*
X11034819Y36890001D02*
X11177676Y36794763D01*
X11177676Y36794763D02*
X11272914Y36699525D01*
X11272914Y36699525D02*
X11320533Y36604287D01*
X10304819Y32261906D02*
X9304819Y32261906D01*
X9304819Y32261906D02*
X9304819Y32500001D01*
X9304819Y32500001D02*
X9352438Y32642858D01*
X9352438Y32642858D02*
X9447676Y32738096D01*
X9447676Y32738096D02*
X9542914Y32785715D01*
X9542914Y32785715D02*
X9733390Y32833334D01*
X9733390Y32833334D02*
X9876247Y32833334D01*
X9876247Y32833334D02*
X10066723Y32785715D01*
X10066723Y32785715D02*
X10161961Y32738096D01*
X10161961Y32738096D02*
X10257200Y32642858D01*
X10257200Y32642858D02*
X10304819Y32500001D01*
X10304819Y32500001D02*
X10304819Y32261906D01*
X9638152Y33690477D02*
X10304819Y33690477D01*
X9257200Y33452382D02*
X9971485Y33214287D01*
X9971485Y33214287D02*
X9971485Y33833334D01*
X35853333Y21765181D02*
X35520000Y22241372D01*
X35281905Y21765181D02*
X35281905Y22765181D01*
X35281905Y22765181D02*
X35662857Y22765181D01*
X35662857Y22765181D02*
X35758095Y22717562D01*
X35758095Y22717562D02*
X35805714Y22669943D01*
X35805714Y22669943D02*
X35853333Y22574705D01*
X35853333Y22574705D02*
X35853333Y22431848D01*
X35853333Y22431848D02*
X35805714Y22336610D01*
X35805714Y22336610D02*
X35758095Y22288991D01*
X35758095Y22288991D02*
X35662857Y22241372D01*
X35662857Y22241372D02*
X35281905Y22241372D01*
X36424762Y22336610D02*
X36329524Y22384229D01*
X36329524Y22384229D02*
X36281905Y22431848D01*
X36281905Y22431848D02*
X36234286Y22527086D01*
X36234286Y22527086D02*
X36234286Y22574705D01*
X36234286Y22574705D02*
X36281905Y22669943D01*
X36281905Y22669943D02*
X36329524Y22717562D01*
X36329524Y22717562D02*
X36424762Y22765181D01*
X36424762Y22765181D02*
X36615238Y22765181D01*
X36615238Y22765181D02*
X36710476Y22717562D01*
X36710476Y22717562D02*
X36758095Y22669943D01*
X36758095Y22669943D02*
X36805714Y22574705D01*
X36805714Y22574705D02*
X36805714Y22527086D01*
X36805714Y22527086D02*
X36758095Y22431848D01*
X36758095Y22431848D02*
X36710476Y22384229D01*
X36710476Y22384229D02*
X36615238Y22336610D01*
X36615238Y22336610D02*
X36424762Y22336610D01*
X36424762Y22336610D02*
X36329524Y22288991D01*
X36329524Y22288991D02*
X36281905Y22241372D01*
X36281905Y22241372D02*
X36234286Y22146134D01*
X36234286Y22146134D02*
X36234286Y21955658D01*
X36234286Y21955658D02*
X36281905Y21860420D01*
X36281905Y21860420D02*
X36329524Y21812800D01*
X36329524Y21812800D02*
X36424762Y21765181D01*
X36424762Y21765181D02*
X36615238Y21765181D01*
X36615238Y21765181D02*
X36710476Y21812800D01*
X36710476Y21812800D02*
X36758095Y21860420D01*
X36758095Y21860420D02*
X36805714Y21955658D01*
X36805714Y21955658D02*
X36805714Y22146134D01*
X36805714Y22146134D02*
X36758095Y22241372D01*
X36758095Y22241372D02*
X36710476Y22288991D01*
X36710476Y22288991D02*
X36615238Y22336610D01*
X25288571Y28069943D02*
X25193333Y28117562D01*
X25193333Y28117562D02*
X25098095Y28212800D01*
X25098095Y28212800D02*
X24955238Y28355658D01*
X24955238Y28355658D02*
X24860000Y28403277D01*
X24860000Y28403277D02*
X24764762Y28403277D01*
X24812381Y28165181D02*
X24717143Y28212800D01*
X24717143Y28212800D02*
X24621905Y28308039D01*
X24621905Y28308039D02*
X24574286Y28498515D01*
X24574286Y28498515D02*
X24574286Y28831848D01*
X24574286Y28831848D02*
X24621905Y29022324D01*
X24621905Y29022324D02*
X24717143Y29117562D01*
X24717143Y29117562D02*
X24812381Y29165181D01*
X24812381Y29165181D02*
X25002857Y29165181D01*
X25002857Y29165181D02*
X25098095Y29117562D01*
X25098095Y29117562D02*
X25193333Y29022324D01*
X25193333Y29022324D02*
X25240952Y28831848D01*
X25240952Y28831848D02*
X25240952Y28498515D01*
X25240952Y28498515D02*
X25193333Y28308039D01*
X25193333Y28308039D02*
X25098095Y28212800D01*
X25098095Y28212800D02*
X25002857Y28165181D01*
X25002857Y28165181D02*
X24812381Y28165181D01*
X26193333Y28165181D02*
X25621905Y28165181D01*
X25907619Y28165181D02*
X25907619Y29165181D01*
X25907619Y29165181D02*
X25812381Y29022324D01*
X25812381Y29022324D02*
X25717143Y28927086D01*
X25717143Y28927086D02*
X25621905Y28879467D01*
X27145714Y28165181D02*
X26574286Y28165181D01*
X26860000Y28165181D02*
X26860000Y29165181D01*
X26860000Y29165181D02*
X26764762Y29022324D01*
X26764762Y29022324D02*
X26669524Y28927086D01*
X26669524Y28927086D02*
X26574286Y28879467D01*
X6054819Y19011906D02*
X5054819Y19011906D01*
X5054819Y19011906D02*
X5054819Y19250001D01*
X5054819Y19250001D02*
X5102438Y19392858D01*
X5102438Y19392858D02*
X5197676Y19488096D01*
X5197676Y19488096D02*
X5292914Y19535715D01*
X5292914Y19535715D02*
X5483390Y19583334D01*
X5483390Y19583334D02*
X5626247Y19583334D01*
X5626247Y19583334D02*
X5816723Y19535715D01*
X5816723Y19535715D02*
X5911961Y19488096D01*
X5911961Y19488096D02*
X6007200Y19392858D01*
X6007200Y19392858D02*
X6054819Y19250001D01*
X6054819Y19250001D02*
X6054819Y19011906D01*
X6054819Y20535715D02*
X6054819Y19964287D01*
X6054819Y20250001D02*
X5054819Y20250001D01*
X5054819Y20250001D02*
X5197676Y20154763D01*
X5197676Y20154763D02*
X5292914Y20059525D01*
X5292914Y20059525D02*
X5340533Y19964287D01*
X27143333Y11765181D02*
X26810000Y12241372D01*
X26571905Y11765181D02*
X26571905Y12765181D01*
X26571905Y12765181D02*
X26952857Y12765181D01*
X26952857Y12765181D02*
X27048095Y12717562D01*
X27048095Y12717562D02*
X27095714Y12669943D01*
X27095714Y12669943D02*
X27143333Y12574705D01*
X27143333Y12574705D02*
X27143333Y12431848D01*
X27143333Y12431848D02*
X27095714Y12336610D01*
X27095714Y12336610D02*
X27048095Y12288991D01*
X27048095Y12288991D02*
X26952857Y12241372D01*
X26952857Y12241372D02*
X26571905Y12241372D01*
X27619524Y11765181D02*
X27810000Y11765181D01*
X27810000Y11765181D02*
X27905238Y11812800D01*
X27905238Y11812800D02*
X27952857Y11860420D01*
X27952857Y11860420D02*
X28048095Y12003277D01*
X28048095Y12003277D02*
X28095714Y12193753D01*
X28095714Y12193753D02*
X28095714Y12574705D01*
X28095714Y12574705D02*
X28048095Y12669943D01*
X28048095Y12669943D02*
X28000476Y12717562D01*
X28000476Y12717562D02*
X27905238Y12765181D01*
X27905238Y12765181D02*
X27714762Y12765181D01*
X27714762Y12765181D02*
X27619524Y12717562D01*
X27619524Y12717562D02*
X27571905Y12669943D01*
X27571905Y12669943D02*
X27524286Y12574705D01*
X27524286Y12574705D02*
X27524286Y12336610D01*
X27524286Y12336610D02*
X27571905Y12241372D01*
X27571905Y12241372D02*
X27619524Y12193753D01*
X27619524Y12193753D02*
X27714762Y12146134D01*
X27714762Y12146134D02*
X27905238Y12146134D01*
X27905238Y12146134D02*
X28000476Y12193753D01*
X28000476Y12193753D02*
X28048095Y12241372D01*
X28048095Y12241372D02*
X28095714Y12336610D01*
D13*
%TO.C,Q6*%
X18500000Y33150000D02*
X20020000Y33150000D01*
X18500000Y32150000D02*
X18500000Y33150000D01*
X18500000Y30030000D02*
X18500000Y31030000D01*
X20020000Y33150000D02*
X20020000Y33100000D01*
X20020000Y31980000D02*
X20020000Y31200000D01*
X20020000Y30080000D02*
X20020000Y30030000D01*
X20020000Y30030000D02*
X18500000Y30030000D01*
X20560000Y31210000D02*
X20320000Y31540000D01*
X20800000Y31540000D01*
X20560000Y31210000D01*
G36*
X20560000Y31210000D02*
G01*
X20320000Y31540000D01*
X20800000Y31540000D01*
X20560000Y31210000D01*
G37*
%TO.C,Jout1*%
X32590000Y8010000D02*
X32590000Y7440000D01*
X32590000Y8010000D02*
X35350000Y8010000D01*
X32590000Y7440000D02*
X31120000Y7440000D01*
X32590000Y5820000D02*
X32590000Y2710000D01*
X32590000Y2710000D02*
X35350000Y2710000D01*
X35350000Y7440000D02*
X35350000Y4900000D01*
X35350000Y3280000D02*
X35350000Y2710000D01*
%TO.C,Oamp*%
X34700000Y32350000D02*
X36100000Y32350000D01*
X34700000Y30950000D02*
X34700000Y32350000D01*
X36100000Y32350000D02*
X36100000Y30950000D01*
X36100000Y30950000D02*
X34700000Y30950000D01*
%TO.C,Q2*%
X6440000Y25260000D02*
X7440000Y25260000D01*
X6440000Y23740000D02*
X6440000Y25260000D01*
X6490000Y23740000D02*
X6440000Y23740000D01*
X8390000Y23740000D02*
X7610000Y23740000D01*
X8560000Y25260000D02*
X9560000Y25260000D01*
X9560000Y25260000D02*
X9560000Y23740000D01*
X9560000Y23740000D02*
X9510000Y23740000D01*
X7950000Y22960000D02*
X7620000Y23200000D01*
X7950000Y23440000D01*
X7950000Y22960000D01*
G36*
X7950000Y22960000D02*
G01*
X7620000Y23200000D01*
X7950000Y23440000D01*
X7950000Y22960000D01*
G37*
%TO.C,Q8*%
X24260000Y37500000D02*
X25260000Y37500000D01*
X24260000Y35980000D02*
X24260000Y37500000D01*
X24310000Y35980000D02*
X24260000Y35980000D01*
X26210000Y35980000D02*
X25430000Y35980000D01*
X26380000Y37500000D02*
X27380000Y37500000D01*
X27380000Y37500000D02*
X27380000Y35980000D01*
X27380000Y35980000D02*
X27330000Y35980000D01*
X25770000Y35200000D02*
X25440000Y35440000D01*
X25770000Y35680000D01*
X25770000Y35200000D01*
G36*
X25770000Y35200000D02*
G01*
X25440000Y35440000D01*
X25770000Y35680000D01*
X25770000Y35200000D01*
G37*
%TO.C,R3*%
X2515000Y29477064D02*
X2515000Y29022936D01*
X3985000Y29477064D02*
X3985000Y29022936D01*
%TO.C,Q1*%
X6440000Y29760000D02*
X6490000Y29760000D01*
X6440000Y28240000D02*
X6440000Y29760000D01*
X7440000Y28240000D02*
X6440000Y28240000D01*
X7610000Y29760000D02*
X8390000Y29760000D01*
X9510000Y29760000D02*
X9560000Y29760000D01*
X9560000Y29760000D02*
X9560000Y28240000D01*
X9560000Y28240000D02*
X8560000Y28240000D01*
X8380000Y30300000D02*
X8050000Y30060000D01*
X8050000Y30540000D01*
X8380000Y30300000D01*
G36*
X8380000Y30300000D02*
G01*
X8050000Y30060000D01*
X8050000Y30540000D01*
X8380000Y30300000D01*
G37*
%TO.C,TPvref*%
X10600000Y22420000D02*
X12000000Y22420000D01*
X10600000Y21020000D02*
X10600000Y22420000D01*
X12000000Y22420000D02*
X12000000Y21020000D01*
X12000000Y21020000D02*
X10600000Y21020000D01*
%TO.C,R8s*%
X35192936Y21275000D02*
X35647064Y21275000D01*
X35192936Y19805000D02*
X35647064Y19805000D01*
%TO.C,R7*%
X12615000Y37227064D02*
X12615000Y36772936D01*
X14085000Y37227064D02*
X14085000Y36772936D01*
%TO.C,D3*%
X11040000Y27500000D02*
X11040000Y24815000D01*
X11040000Y24815000D02*
X12960000Y24815000D01*
X12960000Y24815000D02*
X12960000Y27500000D01*
%TO.C,Q9*%
X29280000Y37500000D02*
X30280000Y37500000D01*
X29280000Y35980000D02*
X29280000Y37500000D01*
X29330000Y35980000D02*
X29280000Y35980000D01*
X31230000Y35980000D02*
X30450000Y35980000D01*
X31400000Y37500000D02*
X32400000Y37500000D01*
X32400000Y37500000D02*
X32400000Y35980000D01*
X32400000Y35980000D02*
X32350000Y35980000D01*
X30790000Y35200000D02*
X30460000Y35440000D01*
X30790000Y35680000D01*
X30790000Y35200000D01*
G36*
X30790000Y35200000D02*
G01*
X30460000Y35440000D01*
X30790000Y35680000D01*
X30790000Y35200000D01*
G37*
%TO.C,Q4*%
X19400000Y21220000D02*
X19450000Y21220000D01*
X19400000Y19700000D02*
X19400000Y21220000D01*
X20400000Y19700000D02*
X19400000Y19700000D01*
X20570000Y21220000D02*
X21350000Y21220000D01*
X22470000Y21220000D02*
X22520000Y21220000D01*
X22520000Y21220000D02*
X22520000Y19700000D01*
X22520000Y19700000D02*
X21520000Y19700000D01*
X21340000Y21760000D02*
X21010000Y21520000D01*
X21010000Y22000000D01*
X21340000Y21760000D01*
G36*
X21340000Y21760000D02*
G01*
X21010000Y21520000D01*
X21010000Y22000000D01*
X21340000Y21760000D01*
G37*
%TO.C,Q3*%
X14460000Y23930000D02*
X15980000Y23930000D01*
X14460000Y23880000D02*
X14460000Y23930000D01*
X14460000Y21980000D02*
X14460000Y22760000D01*
X14460000Y20810000D02*
X14460000Y20860000D01*
X15980000Y23930000D02*
X15980000Y22930000D01*
X15980000Y21810000D02*
X15980000Y20810000D01*
X15980000Y20810000D02*
X14460000Y20810000D01*
X14160000Y22420000D02*
X13680000Y22420000D01*
X13920000Y22750000D01*
X14160000Y22420000D01*
G36*
X14160000Y22420000D02*
G01*
X13680000Y22420000D01*
X13920000Y22750000D01*
X14160000Y22420000D01*
G37*
%TO.C,Thprot*%
X24500000Y27400000D02*
X25900000Y27400000D01*
X24500000Y26000000D02*
X24500000Y27400000D01*
X25900000Y27400000D02*
X25900000Y26000000D01*
X25900000Y26000000D02*
X24500000Y26000000D01*
%TO.C,R5*%
X19445000Y37197064D02*
X19445000Y36742936D01*
X20915000Y37197064D02*
X20915000Y36742936D01*
%TO.C,Q7*%
X19350000Y27770000D02*
X20350000Y27770000D01*
X19350000Y26250000D02*
X19350000Y27770000D01*
X19400000Y26250000D02*
X19350000Y26250000D01*
X21300000Y26250000D02*
X20520000Y26250000D01*
X21470000Y27770000D02*
X22470000Y27770000D01*
X22470000Y27770000D02*
X22470000Y26250000D01*
X22470000Y26250000D02*
X22420000Y26250000D01*
X20860000Y25470000D02*
X20530000Y25710000D01*
X20860000Y25950000D01*
X20860000Y25470000D01*
G36*
X20860000Y25470000D02*
G01*
X20530000Y25710000D01*
X20860000Y25950000D01*
X20860000Y25470000D01*
G37*
%TO.C,Q10*%
X33790000Y28540000D02*
X34790000Y28540000D01*
X33790000Y27020000D02*
X33790000Y28540000D01*
X33840000Y27020000D02*
X33790000Y27020000D01*
X35740000Y27020000D02*
X34960000Y27020000D01*
X35910000Y28540000D02*
X36910000Y28540000D01*
X36910000Y28540000D02*
X36910000Y27020000D01*
X36910000Y27020000D02*
X36860000Y27020000D01*
X35300000Y26240000D02*
X34970000Y26480000D01*
X35300000Y26720000D01*
X35300000Y26240000D01*
G36*
X35300000Y26240000D02*
G01*
X34970000Y26480000D01*
X35300000Y26720000D01*
X35300000Y26240000D01*
G37*
%TO.C,R4*%
X16035000Y37247064D02*
X16035000Y36792936D01*
X17505000Y37247064D02*
X17505000Y36792936D01*
%TO.C,RL2*%
X37037064Y15755000D02*
X36582936Y15755000D01*
X37037064Y14285000D02*
X36582936Y14285000D01*
%TO.C,Jin*%
X3430000Y37720000D02*
X3430000Y38290000D01*
X3430000Y33560000D02*
X3430000Y36100000D01*
X6190000Y38290000D02*
X3430000Y38290000D01*
X6190000Y35180000D02*
X6190000Y38290000D01*
X6190000Y33560000D02*
X7660000Y33560000D01*
X6190000Y32990000D02*
X3430000Y32990000D01*
X6190000Y32990000D02*
X6190000Y33560000D01*
%TO.C,RV2*%
X27720000Y22700000D02*
X28850000Y22700000D01*
X27720000Y17980000D02*
X27720000Y22700000D01*
X28050000Y17980000D02*
X27720000Y17980000D01*
X30350000Y17980000D02*
X29810000Y17980000D01*
X31310000Y22700000D02*
X32440000Y22700000D01*
X32440000Y22700000D02*
X32440000Y17980000D01*
X32440000Y17980000D02*
X32110000Y17980000D01*
%TO.C,R6*%
X13765000Y28477064D02*
X13765000Y28022936D01*
X15235000Y28477064D02*
X15235000Y28022936D01*
%TO.C,R10*%
X32907064Y14605000D02*
X32452936Y14605000D01*
X32907064Y13135000D02*
X32452936Y13135000D01*
%TO.C,D2*%
X2540000Y25750000D02*
X2540000Y23065000D01*
X2540000Y23065000D02*
X4460000Y23065000D01*
X4460000Y23065000D02*
X4460000Y25750000D01*
%TO.C,R2*%
X1765000Y19977064D02*
X1765000Y19522936D01*
X3235000Y19977064D02*
X3235000Y19522936D01*
%TO.C,RL1*%
X36297936Y11060000D02*
X36752064Y11060000D01*
X36297936Y9590000D02*
X36752064Y9590000D01*
%TO.C,Q5*%
X14400000Y34790000D02*
X15920000Y34790000D01*
X14400000Y34740000D02*
X14400000Y34790000D01*
X14400000Y32840000D02*
X14400000Y33620000D01*
X14400000Y31670000D02*
X14400000Y31720000D01*
X15920000Y34790000D02*
X15920000Y33790000D01*
X15920000Y32670000D02*
X15920000Y31670000D01*
X15920000Y31670000D02*
X14400000Y31670000D01*
X14100000Y33280000D02*
X13620000Y33280000D01*
X13860000Y33610000D01*
X14100000Y33280000D01*
G36*
X14100000Y33280000D02*
G01*
X13620000Y33280000D01*
X13860000Y33610000D01*
X14100000Y33280000D01*
G37*
%TO.C,RV1*%
X27720000Y30300000D02*
X28050000Y30300000D01*
X27720000Y25580000D02*
X27720000Y30300000D01*
X28850000Y25580000D02*
X27720000Y25580000D01*
X29810000Y30300000D02*
X30350000Y30300000D01*
X32110000Y30300000D02*
X32440000Y30300000D01*
X32440000Y30300000D02*
X32440000Y25580000D01*
X32440000Y25580000D02*
X31310000Y25580000D01*
%TO.C,R1*%
X9065000Y37197064D02*
X9065000Y36742936D01*
X10535000Y37197064D02*
X10535000Y36742936D01*
%TO.C,D4*%
X10540000Y34000000D02*
X10540000Y31315000D01*
X10540000Y31315000D02*
X12460000Y31315000D01*
X12460000Y31315000D02*
X12460000Y34000000D01*
%TO.C,R8*%
X35797064Y24695000D02*
X35342936Y24695000D01*
X35797064Y23225000D02*
X35342936Y23225000D01*
%TO.C,Q11*%
X23600000Y32140000D02*
X24600000Y32140000D01*
X23600000Y30620000D02*
X23600000Y32140000D01*
X23650000Y30620000D02*
X23600000Y30620000D01*
X25550000Y30620000D02*
X24770000Y30620000D01*
X25720000Y32140000D02*
X26720000Y32140000D01*
X26720000Y32140000D02*
X26720000Y30620000D01*
X26720000Y30620000D02*
X26670000Y30620000D01*
X25110000Y29840000D02*
X24780000Y30080000D01*
X25110000Y30320000D01*
X25110000Y29840000D01*
G36*
X25110000Y29840000D02*
G01*
X24780000Y30080000D01*
X25110000Y30320000D01*
X25110000Y29840000D01*
G37*
%TO.C,D1*%
X6440000Y20510000D02*
X7440000Y20510000D01*
X6440000Y18990000D02*
X6440000Y20510000D01*
X6490000Y18990000D02*
X6440000Y18990000D01*
X8390000Y18990000D02*
X7610000Y18990000D01*
X8560000Y20510000D02*
X9560000Y20510000D01*
X9560000Y20510000D02*
X9560000Y18990000D01*
X9560000Y18990000D02*
X9510000Y18990000D01*
X7950000Y18210000D02*
X7620000Y18450000D01*
X7950000Y18690000D01*
X7950000Y18210000D01*
G36*
X7950000Y18210000D02*
G01*
X7620000Y18450000D01*
X7950000Y18690000D01*
X7950000Y18210000D01*
G37*
%TO.C,R9*%
X27537064Y14605000D02*
X27082936Y14605000D01*
X27537064Y13135000D02*
X27082936Y13135000D01*
%TD*%
%LPC*%
D14*
%TO.C,Q6*%
X20197500Y30640000D03*
X20197500Y32540000D03*
X18322500Y31590000D03*
%TD*%
D15*
%TO.C,Jout1*%
X32315000Y6630000D03*
X35625000Y4090000D03*
%TD*%
D16*
%TO.C,Oamp*%
X35400000Y31650000D03*
%TD*%
D17*
%TO.C,Q2*%
X7050000Y23562500D03*
X8950000Y23562500D03*
X8000000Y25437500D03*
%TD*%
%TO.C,Q8*%
X24870000Y35802500D03*
X26770000Y35802500D03*
X25820000Y37677500D03*
%TD*%
D18*
%TO.C,R3*%
X3250000Y30162500D03*
X3250000Y28337500D03*
%TD*%
D19*
%TO.C,Q1*%
X8950000Y29937500D03*
X7050000Y29937500D03*
X8000000Y28062500D03*
%TD*%
D20*
%TO.C,TPvref*%
X11300000Y21720000D03*
%TD*%
D21*
%TO.C,R8s*%
X34507500Y20540000D03*
X36332500Y20540000D03*
%TD*%
D18*
%TO.C,R7*%
X13350000Y37912500D03*
X13350000Y36087500D03*
%TD*%
D22*
%TO.C,FID1*%
X34920000Y34920000D03*
%TD*%
D23*
%TO.C,D3*%
X12000000Y25562500D03*
X12000000Y27437500D03*
%TD*%
D17*
%TO.C,Q9*%
X29890000Y35802500D03*
X31790000Y35802500D03*
X30840000Y37677500D03*
%TD*%
D19*
%TO.C,Q4*%
X21910000Y21397500D03*
X20010000Y21397500D03*
X20960000Y19522500D03*
%TD*%
D24*
%TO.C,Q3*%
X14282500Y23320000D03*
X14282500Y21420000D03*
X16157500Y22370000D03*
%TD*%
D22*
%TO.C,FID2*%
X5080000Y5080000D03*
%TD*%
D20*
%TO.C,Thprot*%
X25200000Y26700000D03*
%TD*%
D18*
%TO.C,R5*%
X20180000Y37882500D03*
X20180000Y36057500D03*
%TD*%
D17*
%TO.C,Q7*%
X19960000Y26072500D03*
X21860000Y26072500D03*
X20910000Y27947500D03*
%TD*%
%TO.C,Q10*%
X34400000Y26842500D03*
X36300000Y26842500D03*
X35350000Y28717500D03*
%TD*%
D18*
%TO.C,R4*%
X16770000Y37932500D03*
X16770000Y36107500D03*
%TD*%
D25*
%TO.C,RL2*%
X37722500Y15020000D03*
X35897500Y15020000D03*
%TD*%
D26*
%TO.C,Jin*%
X6465000Y34370000D03*
X3155000Y36910000D03*
%TD*%
D27*
%TO.C,RV2*%
X28930000Y17590000D03*
D28*
X30080000Y23090000D03*
D27*
X31230000Y17590000D03*
%TD*%
D18*
%TO.C,R6*%
X14500000Y29162500D03*
X14500000Y27337500D03*
%TD*%
D25*
%TO.C,R10*%
X33592500Y13870000D03*
X31767500Y13870000D03*
%TD*%
D23*
%TO.C,D2*%
X3500000Y23812500D03*
X3500000Y25687500D03*
%TD*%
D18*
%TO.C,R2*%
X2500000Y20662500D03*
X2500000Y18837500D03*
%TD*%
D21*
%TO.C,RL1*%
X35612500Y10325000D03*
X37437500Y10325000D03*
%TD*%
D24*
%TO.C,Q5*%
X14222500Y34180000D03*
X14222500Y32280000D03*
X16097500Y33230000D03*
%TD*%
D29*
%TO.C,RV1*%
X31230000Y30690000D03*
D30*
X30080000Y25190000D03*
D29*
X28930000Y30690000D03*
%TD*%
D18*
%TO.C,R1*%
X9800000Y37882500D03*
X9800000Y36057500D03*
%TD*%
D23*
%TO.C,D4*%
X11500000Y32062500D03*
X11500000Y33937500D03*
%TD*%
D25*
%TO.C,R8*%
X36482500Y23960000D03*
X34657500Y23960000D03*
%TD*%
D17*
%TO.C,Q11*%
X24210000Y30442500D03*
X26110000Y30442500D03*
X25160000Y32317500D03*
%TD*%
%TO.C,D1*%
X7050000Y18812500D03*
X8950000Y18812500D03*
X8000000Y20687500D03*
%TD*%
D25*
%TO.C,R9*%
X28222500Y13870000D03*
X26397500Y13870000D03*
%TD*%
%LPD*%
M02*
