  0
SECTION
  2
HEADER
  9
$ANGBASE
  50
0.0
  9
$ANGDIR
  70
1
  9
$MEASUREMENT
  70
0
  0
ENDSEC
  0
SECTION
  2
TABLES
  0
TABLE
  2
LTYPE
  70
4
  0
LTYPE
  5
40F
  2
CONTINUOUS
  70
0
  3
Solid line
  72
65
  73
0
  40
0.0
  0
LTYPE
  5
410
  2
DASHDOT
 70
0
  3
Dash Dot ____ _ ____ _
 72
65
 73
4
 40
2.0
 49
1.25
 49
-0.25
 49
0.25
 49
-0.25
  0
LTYPE
  5
411
  2
DASHED
 70
0
  3
Dashed __ __ __ __ __
 72
65
 73
2
 40
0.75
 49
0.5
 49
-0.25
  0
LTYPE
  5
43B
  2
DOTTED
 70
0
  3
Dotted .  .  .  .
 72
65
 73
2
 40
0.2
 49
0.0
 49
-0.2
  0
ENDTAB
  0
TABLE
  2
STYLE
  70
4
  0
STYLE
  2
KICAD
  70
0
  40
0
  41
1
  42
1
  50
0
  71
0
  3
isocp.shx
  0
STYLE
  2
KICADB
  70
0
  40
0
  41
1
  42
1
  50
0
  71
0
  3
isocp.shx
  0
STYLE
  2
KICADI
  70
0
  40
0
  41
1
  42
1
  50
15
  71
0
  3
isocp.shx
  0
STYLE
  2
KICADBI
  70
0
  40
0
  41
1
  42
1
  50
15
  71
0
  3
isocp.shx
  0
ENDTAB
  0
TABLE
  2
LAYER
  70
1
  0
LAYER
  2
BLACK
  70
0
  62
7
  6
CONTINUOUS
  0
ENDTAB
  0
ENDSEC
  0
SECTION
  2
ENTITIES
0
LINE
8
BLACK
6
CONTINUOUS
10
0.
20
1.5748031496062991
11
1.5748031496062991
21
1.5748031496062991
0
LINE
8
BLACK
6
CONTINUOUS
10
1.5748031496062991
20
1.5748031496062991
11
1.5748031496062991
21
0.
0
LINE
8
BLACK
6
CONTINUOUS
10
1.5748031496062991
20
0.
11
0.
21
0.
0
LINE
8
BLACK
6
CONTINUOUS
10
0.
20
0.
11
0.
21
1.5748031496062991
0
LINE
8
BLACK
6
CONTINUOUS
10
0.1016837795275591
20
-0.1236156692913386
11
0.1016837795275591
21
-0.0448755118110236
0
LINE
8
BLACK
6
CONTINUOUS
10
0.1016837795275591
20
-0.0448755118110236
11
0.1204314173228346
21
-0.0448755118110236
0
LINE
8
BLACK
6
CONTINUOUS
10
0.1204314173228346
20
-0.0448755118110236
11
0.1316800393700787
21
-0.0486250393700787
0
LINE
8
BLACK
6
CONTINUOUS
10
0.1316800393700787
20
-0.0486250393700787
11
0.139179094488189
21
-0.056124094488189
0
LINE
8
BLACK
6
CONTINUOUS
10
0.139179094488189
20
-0.056124094488189
11
0.1429286220472441
21
-0.0636231496062992
0
LINE
8
BLACK
6
CONTINUOUS
10
0.1429286220472441
20
-0.0636231496062992
11
0.1466781496062992
21
-0.0786212598425197
0
LINE
8
BLACK
6
CONTINUOUS
10
0.1466781496062992
20
-0.0786212598425197
11
0.1466781496062992
21
-0.0898698818897638
0
LINE
8
BLACK
6
CONTINUOUS
10
0.1466781496062992
20
-0.0898698818897638
11
0.1429286220472441
21
-0.1048679921259842
0
LINE
8
BLACK
6
CONTINUOUS
10
0.1429286220472441
20
-0.1048679921259842
11
0.139179094488189
21
-0.1123670472440945
0
LINE
8
BLACK
6
CONTINUOUS
10
0.139179094488189
20
-0.1123670472440945
11
0.1316800393700787
21
-0.1198661417322835
0
LINE
8
BLACK
6
CONTINUOUS
10
0.1316800393700787
20
-0.1198661417322835
11
0.1204314173228346
21
-0.1236156692913386
0
LINE
8
BLACK
6
CONTINUOUS
10
0.1204314173228346
20
-0.1236156692913386
11
0.1016837795275591
21
-0.1236156692913386
0
LINE
8
BLACK
6
CONTINUOUS
10
0.180423937007874
20
-0.1236156692913386
11
0.180423937007874
21
-0.0711222047244094
0
LINE
8
BLACK
6
CONTINUOUS
10
0.180423937007874
20
-0.0861203543307087
11
0.1841734645669291
21
-0.0786212598425197
0
LINE
8
BLACK
6
CONTINUOUS
10
0.1841734645669291
20
-0.0786212598425197
11
0.1879229921259842
21
-0.0748717322834646
0
LINE
8
BLACK
6
CONTINUOUS
10
0.1879229921259842
20
-0.0748717322834646
11
0.1954220472440945
21
-0.0711222047244094
0
LINE
8
BLACK
6
CONTINUOUS
10
0.1954220472440945
20
-0.0711222047244094
11
0.2029211417322835
21
-0.0711222047244094
0
LINE
8
BLACK
6
CONTINUOUS
10
0.2291678346456693
20
-0.1236156692913386
11
0.2291678346456693
21
-0.0711222047244094
0
LINE
8
BLACK
6
CONTINUOUS
10
0.2291678346456693
20
-0.0448755118110236
11
0.2254183070866142
21
-0.0486250393700787
0
LINE
8
BLACK
6
CONTINUOUS
10
0.2254183070866142
20
-0.0486250393700787
11
0.2291678346456693
21
-0.0523745669291339
0
LINE
8
BLACK
6
CONTINUOUS
10
0.2291678346456693
20
-0.0523745669291339
11
0.2329173622047244
21
-0.0486250393700787
0
LINE
8
BLACK
6
CONTINUOUS
10
0.2329173622047244
20
-0.0486250393700787
11
0.2291678346456693
21
-0.0448755118110236
0
LINE
8
BLACK
6
CONTINUOUS
10
0.2291678346456693
20
-0.0448755118110236
11
0.2291678346456693
21
-0.0523745669291339
0
LINE
8
BLACK
6
CONTINUOUS
10
0.2779117322834646
20
-0.1236156692913386
11
0.2704126771653543
21
-0.1198661417322835
0
LINE
8
BLACK
6
CONTINUOUS
10
0.2704126771653543
20
-0.1198661417322835
11
0.2666631496062992
21
-0.1123670472440945
0
LINE
8
BLACK
6
CONTINUOUS
10
0.2666631496062992
20
-0.1123670472440945
11
0.2666631496062992
21
-0.0448755118110236
0
LINE
8
BLACK
6
CONTINUOUS
10
0.3191565748031496
20
-0.1236156692913386
11
0.3116575196850394
21
-0.1198661417322835
0
LINE
8
BLACK
6
CONTINUOUS
10
0.3116575196850394
20
-0.1198661417322835
11
0.3079079921259842
21
-0.1123670472440945
0
LINE
8
BLACK
6
CONTINUOUS
10
0.3079079921259842
20
-0.1123670472440945
11
0.3079079921259842
21
-0.0448755118110236
0
LINE
8
BLACK
6
CONTINUOUS
10
0.4091453543307086
20
-0.1236156692913386
11
0.4091453543307086
21
-0.0448755118110236
0
LINE
8
BLACK
6
CONTINUOUS
10
0.4091453543307086
20
-0.0448755118110236
11
0.4353920866141732
21
-0.1011184645669291
0
LINE
8
BLACK
6
CONTINUOUS
10
0.4353920866141732
20
-0.1011184645669291
11
0.4616387795275591
21
-0.0448755118110236
0
LINE
8
BLACK
6
CONTINUOUS
10
0.4616387795275591
20
-0.0448755118110236
11
0.4616387795275591
21
-0.1236156692913386
0
LINE
8
BLACK
6
CONTINUOUS
10
0.5328798818897638
20
-0.1236156692913386
11
0.5328798818897638
21
-0.0823708267716535
0
LINE
8
BLACK
6
CONTINUOUS
10
0.5328798818897638
20
-0.0823708267716535
11
0.5291303543307087
21
-0.0748717322834646
0
LINE
8
BLACK
6
CONTINUOUS
10
0.5291303543307087
20
-0.0748717322834646
11
0.5216312992125984
21
-0.0711222047244094
0
LINE
8
BLACK
6
CONTINUOUS
10
0.5216312992125984
20
-0.0711222047244094
11
0.5066331496062992
21
-0.0711222047244094
0
LINE
8
BLACK
6
CONTINUOUS
10
0.5066331496062992
20
-0.0711222047244094
11
0.499134094488189
21
-0.0748717322834646
0
LINE
8
BLACK
6
CONTINUOUS
10
0.5328798818897638
20
-0.1198661417322835
11
0.5253808267716535
21
-0.1236156692913386
0
LINE
8
BLACK
6
CONTINUOUS
10
0.5253808267716535
20
-0.1236156692913386
11
0.5066331496062992
21
-0.1236156692913386
0
LINE
8
BLACK
6
CONTINUOUS
10
0.5066331496062992
20
-0.1236156692913386
11
0.499134094488189
21
-0.1198661417322835
0
LINE
8
BLACK
6
CONTINUOUS
10
0.499134094488189
20
-0.1198661417322835
11
0.4953845669291339
21
-0.1123670472440945
0
LINE
8
BLACK
6
CONTINUOUS
10
0.4953845669291339
20
-0.1123670472440945
11
0.4953845669291339
21
-0.1048679921259842
0
LINE
8
BLACK
6
CONTINUOUS
10
0.4953845669291339
20
-0.1048679921259842
11
0.499134094488189
21
-0.097368937007874
0
LINE
8
BLACK
6
CONTINUOUS
10
0.499134094488189
20
-0.097368937007874
11
0.5066331496062992
21
-0.0936194094488189
0
LINE
8
BLACK
6
CONTINUOUS
10
0.5066331496062992
20
-0.0936194094488189
11
0.5253808267716535
21
-0.0936194094488189
0
LINE
8
BLACK
6
CONTINUOUS
10
0.5253808267716535
20
-0.0936194094488189
11
0.5328798818897638
21
-0.0898698818897638
0
LINE
8
BLACK
6
CONTINUOUS
10
0.5703751968503937
20
-0.0711222047244094
11
0.5703751968503937
21
-0.1498623622047244
0
LINE
8
BLACK
6
CONTINUOUS
10
0.5703751968503937
20
-0.0748717322834646
11
0.5778742519685039
21
-0.0711222047244094
0
LINE
8
BLACK
6
CONTINUOUS
10
0.5778742519685039
20
-0.0711222047244094
11
0.5928724015748031
21
-0.0711222047244094
0
LINE
8
BLACK
6
CONTINUOUS
10
0.5928724015748031
20
-0.0711222047244094
11
0.6003714566929134
21
-0.0748717322834646
0
LINE
8
BLACK
6
CONTINUOUS
10
0.6003714566929134
20
-0.0748717322834646
11
0.6041209842519685
21
-0.0786212598425197
0
LINE
8
BLACK
6
CONTINUOUS
10
0.6041209842519685
20
-0.0786212598425197
11
0.6078705118110236
21
-0.0861203543307087
0
LINE
8
BLACK
6
CONTINUOUS
10
0.6078705118110236
20
-0.0861203543307087
11
0.6078705118110236
21
-0.1086175196850394
0
LINE
8
BLACK
6
CONTINUOUS
10
0.6078705118110236
20
-0.1086175196850394
11
0.6041209842519685
21
-0.1161165748031496
0
LINE
8
BLACK
6
CONTINUOUS
10
0.6041209842519685
20
-0.1161165748031496
11
0.6003714566929134
21
-0.1198661417322835
0
LINE
8
BLACK
6
CONTINUOUS
10
0.6003714566929134
20
-0.1198661417322835
11
0.5928724015748031
21
-0.1236156692913386
0
LINE
8
BLACK
6
CONTINUOUS
10
0.5928724015748031
20
-0.1236156692913386
11
0.5778742519685039
21
-0.1236156692913386
0
LINE
8
BLACK
6
CONTINUOUS
10
0.5778742519685039
20
-0.1236156692913386
11
0.5703751968503937
21
-0.1198661417322835
0
LINE
8
BLACK
6
CONTINUOUS
10
0.6416162992125984
20
-0.1161165748031496
11
0.6453658267716536
21
-0.1198661417322835
0
LINE
8
BLACK
6
CONTINUOUS
10
0.6453658267716536
20
-0.1198661417322835
11
0.6416162992125984
21
-0.1236156692913386
0
LINE
8
BLACK
6
CONTINUOUS
10
0.6416162992125984
20
-0.1236156692913386
11
0.6378667716535433
21
-0.1198661417322835
0
LINE
8
BLACK
6
CONTINUOUS
10
0.6378667716535433
20
-0.1198661417322835
11
0.6416162992125984
21
-0.1161165748031496
0
LINE
8
BLACK
6
CONTINUOUS
10
0.6416162992125984
20
-0.1161165748031496
11
0.6416162992125984
21
-0.1236156692913386
0
LINE
8
BLACK
6
CONTINUOUS
10
0.6416162992125984
20
-0.0748717322834646
11
0.6453658267716536
21
-0.0786212598425197
0
LINE
8
BLACK
6
CONTINUOUS
10
0.6453658267716536
20
-0.0786212598425197
11
0.6416162992125984
21
-0.0823708267716535
0
LINE
8
BLACK
6
CONTINUOUS
10
0.6416162992125984
20
-0.0823708267716535
11
0.6378667716535433
21
-0.0786212598425197
0
LINE
8
BLACK
6
CONTINUOUS
10
0.6378667716535433
20
-0.0786212598425197
11
0.6416162992125984
21
-0.0748717322834646
0
LINE
8
BLACK
6
CONTINUOUS
10
0.6416162992125984
20
-0.0748717322834646
11
0.6416162992125984
21
-0.0823708267716535
  0
ENDSEC
  0
EOF
