%TF.GenerationSoftware,KiCad,Pcbnew,9.0.6*%
%TF.CreationDate,2025-12-12T18:18:47+02:00*%
%TF.ProjectId,pcb_layout,7063625f-6c61-4796-9f75-742e6b696361,rev?*%
%TF.SameCoordinates,PX649cd60PY55d4a80*%
%TF.FileFunction,Soldermask,Top*%
%TF.FilePolarity,Negative*%
%FSLAX46Y46*%
G04 Gerber Fmt 4.6, Leading zero omitted, Abs format (unit mm)*
G04 Created by KiCad (PCBNEW 9.0.6) date 2025-12-12 18:18:47*
%MOMM*%
%LPD*%
G01*
G04 APERTURE LIST*
G04 Aperture macros list*
%AMRoundRect*
0 Rectangle with rounded corners*
0 $1 Rounding radius*
0 $2 $3 $4 $5 $6 $7 $8 $9 X,Y pos of 4 corners*
0 Add a 4 corners polygon primitive as box body*
4,1,4,$2,$3,$4,$5,$6,$7,$8,$9,$2,$3,0*
0 Add four circle primitives for the rounded corners*
1,1,$1+$1,$2,$3*
1,1,$1+$1,$4,$5*
1,1,$1+$1,$6,$7*
1,1,$1+$1,$8,$9*
0 Add four rect primitives between the rounded corners*
20,1,$1+$1,$2,$3,$4,$5,0*
20,1,$1+$1,$4,$5,$6,$7,0*
20,1,$1+$1,$6,$7,$8,$9,0*
20,1,$1+$1,$8,$9,$2,$3,0*%
G04 Aperture macros list end*
%ADD10RoundRect,0.226200X0.663700X0.226200X-0.663700X0.226200X-0.663700X-0.226200X0.663700X-0.226200X0*%
%ADD11RoundRect,0.152400X-1.255000X-0.500000X1.255000X-0.500000X1.255000X0.500000X-1.255000X0.500000X0*%
%ADD12R,0.600000X1.000000*%
%ADD13RoundRect,0.226200X0.226200X-0.663700X0.226200X0.663700X-0.226200X0.663700X-0.226200X-0.663700X0*%
%ADD14RoundRect,0.324341X-0.528059X0.340559X-0.528059X-0.340559X0.528059X-0.340559X0.528059X0.340559X0*%
%ADD15RoundRect,0.226200X-0.226200X0.663700X-0.226200X-0.663700X0.226200X-0.663700X0.226200X0.663700X0*%
%ADD16R,1.000000X0.600000*%
%ADD17RoundRect,0.324341X-0.340559X-0.528059X0.340559X-0.528059X0.340559X0.528059X-0.340559X0.528059X0*%
%ADD18C,2.000000*%
%ADD19RoundRect,0.319950X0.532450X-0.319950X0.532450X0.319950X-0.532450X0.319950X-0.532450X-0.319950X0*%
%ADD20RoundRect,0.226200X-0.663700X-0.226200X0.663700X-0.226200X0.663700X0.226200X-0.663700X0.226200X0*%
%ADD21RoundRect,0.324341X0.340559X0.528059X-0.340559X0.528059X-0.340559X-0.528059X0.340559X-0.528059X0*%
%ADD22RoundRect,0.152400X1.255000X0.500000X-1.255000X0.500000X-1.255000X-0.500000X1.255000X-0.500000X0*%
%ADD23RoundRect,0.308616X0.493784X0.493784X-0.493784X0.493784X-0.493784X-0.493784X0.493784X-0.493784X0*%
%ADD24RoundRect,0.308616X0.843784X0.493784X-0.843784X0.493784X-0.843784X-0.493784X0.843784X-0.493784X0*%
%ADD25RoundRect,0.308616X-0.493784X-0.493784X0.493784X-0.493784X0.493784X0.493784X-0.493784X0.493784X0*%
%ADD26RoundRect,0.308616X-0.843784X-0.493784X0.843784X-0.493784X0.843784X0.493784X-0.843784X0.493784X0*%
G04 APERTURE END LIST*
D10*
%TO.C,Q6*%
X20197500Y30640000D03*
X20197500Y32540000D03*
X18322500Y31590000D03*
%TD*%
D11*
%TO.C,Jout1*%
X32315000Y6630000D03*
X35625000Y4090000D03*
%TD*%
D12*
%TO.C,Oamp*%
X35400000Y31650000D03*
%TD*%
D13*
%TO.C,Q2*%
X7050000Y23562500D03*
X8950000Y23562500D03*
X8000000Y25437500D03*
%TD*%
%TO.C,Q8*%
X24870000Y35802500D03*
X26770000Y35802500D03*
X25820000Y37677500D03*
%TD*%
D14*
%TO.C,R3*%
X3250000Y30162500D03*
X3250000Y28337500D03*
%TD*%
D15*
%TO.C,Q1*%
X8950000Y29937500D03*
X7050000Y29937500D03*
X8000000Y28062500D03*
%TD*%
D16*
%TO.C,TPvref*%
X11300000Y21720000D03*
%TD*%
D17*
%TO.C,R8s*%
X34507500Y20540000D03*
X36332500Y20540000D03*
%TD*%
D14*
%TO.C,R7*%
X13350000Y37912500D03*
X13350000Y36087500D03*
%TD*%
D18*
%TO.C,FID1*%
X34920000Y34920000D03*
%TD*%
D19*
%TO.C,D3*%
X12000000Y25562500D03*
X12000000Y27437500D03*
%TD*%
D13*
%TO.C,Q9*%
X29890000Y35802500D03*
X31790000Y35802500D03*
X30840000Y37677500D03*
%TD*%
D15*
%TO.C,Q4*%
X21910000Y21397500D03*
X20010000Y21397500D03*
X20960000Y19522500D03*
%TD*%
D20*
%TO.C,Q3*%
X14282500Y23320000D03*
X14282500Y21420000D03*
X16157500Y22370000D03*
%TD*%
D18*
%TO.C,FID2*%
X5080000Y5080000D03*
%TD*%
D16*
%TO.C,Thprot*%
X25200000Y26700000D03*
%TD*%
D14*
%TO.C,R5*%
X20180000Y37882500D03*
X20180000Y36057500D03*
%TD*%
D13*
%TO.C,Q7*%
X19960000Y26072500D03*
X21860000Y26072500D03*
X20910000Y27947500D03*
%TD*%
%TO.C,Q10*%
X34400000Y26842500D03*
X36300000Y26842500D03*
X35350000Y28717500D03*
%TD*%
D14*
%TO.C,R4*%
X16770000Y37932500D03*
X16770000Y36107500D03*
%TD*%
D21*
%TO.C,RL2*%
X37722500Y15020000D03*
X35897500Y15020000D03*
%TD*%
D22*
%TO.C,Jin*%
X6465000Y34370000D03*
X3155000Y36910000D03*
%TD*%
D23*
%TO.C,RV2*%
X28930000Y17590000D03*
D24*
X30080000Y23090000D03*
D23*
X31230000Y17590000D03*
%TD*%
D14*
%TO.C,R6*%
X14500000Y29162500D03*
X14500000Y27337500D03*
%TD*%
D21*
%TO.C,R10*%
X33592500Y13870000D03*
X31767500Y13870000D03*
%TD*%
D19*
%TO.C,D2*%
X3500000Y23812500D03*
X3500000Y25687500D03*
%TD*%
D14*
%TO.C,R2*%
X2500000Y20662500D03*
X2500000Y18837500D03*
%TD*%
D17*
%TO.C,RL1*%
X35612500Y10325000D03*
X37437500Y10325000D03*
%TD*%
D20*
%TO.C,Q5*%
X14222500Y34180000D03*
X14222500Y32280000D03*
X16097500Y33230000D03*
%TD*%
D25*
%TO.C,RV1*%
X31230000Y30690000D03*
D26*
X30080000Y25190000D03*
D25*
X28930000Y30690000D03*
%TD*%
D14*
%TO.C,R1*%
X9800000Y37882500D03*
X9800000Y36057500D03*
%TD*%
D19*
%TO.C,D4*%
X11500000Y32062500D03*
X11500000Y33937500D03*
%TD*%
D21*
%TO.C,R8*%
X36482500Y23960000D03*
X34657500Y23960000D03*
%TD*%
D13*
%TO.C,Q11*%
X24210000Y30442500D03*
X26110000Y30442500D03*
X25160000Y32317500D03*
%TD*%
%TO.C,D1*%
X7050000Y18812500D03*
X8950000Y18812500D03*
X8000000Y20687500D03*
%TD*%
D21*
%TO.C,R9*%
X28222500Y13870000D03*
X26397500Y13870000D03*
%TD*%
M02*
