  0
SECTION
  2
HEADER
  9
$ANGBASE
  50
0.0
  9
$ANGDIR
  70
1
  9
$MEASUREMENT
  70
0
  0
ENDSEC
  0
SECTION
  2
TABLES
  0
TABLE
  2
LTYPE
  70
4
  0
LTYPE
  5
40F
  2
CONTINUOUS
  70
0
  3
Solid line
  72
65
  73
0
  40
0.0
  0
LTYPE
  5
410
  2
DASHDOT
 70
0
  3
Dash Dot ____ _ ____ _
 72
65
 73
4
 40
2.0
 49
1.25
 49
-0.25
 49
0.25
 49
-0.25
  0
LTYPE
  5
411
  2
DASHED
 70
0
  3
Dashed __ __ __ __ __
 72
65
 73
2
 40
0.75
 49
0.5
 49
-0.25
  0
LTYPE
  5
43B
  2
DOTTED
 70
0
  3
Dotted .  .  .  .
 72
65
 73
2
 40
0.2
 49
0.0
 49
-0.2
  0
ENDTAB
  0
TABLE
  2
STYLE
  70
4
  0
STYLE
  2
KICAD
  70
0
  40
0
  41
1
  42
1
  50
0
  71
0
  3
isocp.shx
  0
STYLE
  2
KICADB
  70
0
  40
0
  41
1
  42
1
  50
0
  71
0
  3
isocp.shx
  0
STYLE
  2
KICADI
  70
0
  40
0
  41
1
  42
1
  50
15
  71
0
  3
isocp.shx
  0
STYLE
  2
KICADBI
  70
0
  40
0
  41
1
  42
1
  50
15
  71
0
  3
isocp.shx
  0
ENDTAB
  0
TABLE
  2
LAYER
  70
1
  0
LAYER
  2
BLACK
  70
0
  62
7
  6
CONTINUOUS
  0
ENDTAB
  0
ENDSEC
  0
SECTION
  2
ENTITIES
0
LINE
8
BLACK
6
CONTINUOUS
10
0.
20
1.5748031496062991
11
1.5748031496062991
21
1.5748031496062991
0
LINE
8
BLACK
6
CONTINUOUS
10
1.5748031496062991
20
1.5748031496062991
11
1.5748031496062991
21
0.
0
LINE
8
BLACK
6
CONTINUOUS
10
1.5748031496062991
20
0.
11
0.
21
0.
0
LINE
8
BLACK
6
CONTINUOUS
10
0.
20
0.
11
0.
21
1.5748031496062991
0
LINE
8
BLACK
6
CONTINUOUS
10
0.0905511811023622
20
0.687007874015748
11
0.1062992125984252
21
0.6712598425196851
0
LINE
8
BLACK
6
CONTINUOUS
10
0.1062992125984252
20
0.687007874015748
11
0.0905511811023622
21
0.6712598425196851
0
LINE
8
BLACK
6
CONTINUOUS
10
0.1161417322834646
20
1.2649606299212599
11
0.1318897637795275
21
1.2492125984251967
0
LINE
8
BLACK
6
CONTINUOUS
10
0.1318897637795275
20
1.2649606299212599
11
0.1161417322834646
21
1.2492125984251967
0
LINE
8
BLACK
6
CONTINUOUS
10
0.1287401574803149
20
0.8830708661417322
11
0.1444881889763779
21
0.8673228346456693
0
LINE
8
BLACK
6
CONTINUOUS
10
0.1444881889763779
20
0.8830708661417322
11
0.1287401574803149
21
0.8673228346456693
0
LINE
8
BLACK
6
CONTINUOUS
10
0.218503937007874
20
0.7165354330708661
11
0.234251968503937
21
0.7007874015748031
0
LINE
8
BLACK
6
CONTINUOUS
10
0.234251968503937
20
0.7165354330708661
11
0.218503937007874
21
0.7007874015748031
0
LINE
8
BLACK
6
CONTINUOUS
10
0.4645669291338583
20
0.9625984251968503
11
0.4803149606299212
21
0.9468503937007874
0
LINE
8
BLACK
6
CONTINUOUS
10
0.4803149606299212
20
0.9625984251968503
11
0.4645669291338583
21
0.9468503937007874
0
LINE
8
BLACK
6
CONTINUOUS
10
0.562992125984252
20
1.0314960629921259
11
0.5787401574803149
21
1.015748031496063
0
LINE
8
BLACK
6
CONTINUOUS
10
0.5787401574803149
20
1.0314960629921259
11
0.562992125984252
21
1.015748031496063
0
LINE
8
BLACK
6
CONTINUOUS
10
0.6515748031496063
20
0.9301417322834645
11
0.6673228346456693
21
0.9143937007874016
0
LINE
8
BLACK
6
CONTINUOUS
10
0.6673228346456693
20
0.9301417322834645
11
0.6515748031496063
21
0.9143937007874016
0
LINE
8
BLACK
6
CONTINUOUS
10
0.676771653543307
20
1.1007874015748031
11
0.6925196850393701
21
1.0850393700787402
0
LINE
8
BLACK
6
CONTINUOUS
10
0.6925196850393701
20
1.1007874015748031
11
0.676771653543307
21
1.0850393700787402
0
LINE
8
BLACK
6
CONTINUOUS
10
0.7322834645669292
20
0.9783464566929133
11
0.7480314960629921
21
0.9625984251968503
0
LINE
8
BLACK
6
CONTINUOUS
10
0.7480314960629921
20
0.9783464566929133
11
0.7322834645669292
21
0.9625984251968503
0
LINE
8
BLACK
6
CONTINUOUS
10
0.8550708661417322
20
0.9275590551181102
11
0.8708188976377953
21
0.9118110236220472
0
LINE
8
BLACK
6
CONTINUOUS
10
0.8708188976377953
20
0.9275590551181102
11
0.8550708661417322
21
0.9118110236220472
0
LINE
8
BLACK
6
CONTINUOUS
10
0.878692874015748
20
1.1711289370078739
11
0.894440905511811
21
1.1553809055118109
0
LINE
8
BLACK
6
CONTINUOUS
10
0.894440905511811
20
1.1711289370078739
11
0.878692874015748
21
1.1553809055118109
0
LINE
8
BLACK
6
CONTINUOUS
10
0.8811023622047244
20
1.3031496062992125
11
0.8968503937007873
21
1.2874015748031495
0
LINE
8
BLACK
6
CONTINUOUS
10
0.8968503937007873
20
1.3031496062992125
11
0.8811023622047244
21
1.2874015748031495
0
LINE
8
BLACK
6
CONTINUOUS
10
0.9201957874015748
20
0.9140561811023622
11
0.9359438188976378
21
0.8983081496062992
0
LINE
8
BLACK
6
CONTINUOUS
10
0.9359438188976378
20
0.9140561811023622
11
0.9201957874015748
21
0.8983081496062992
0
LINE
8
BLACK
6
CONTINUOUS
10
0.9212598031496063
20
0.9685039763779527
11
0.9370078346456693
21
0.9527559448818897
0
LINE
8
BLACK
6
CONTINUOUS
10
0.9370078346456693
20
0.9685039763779527
11
0.9212598031496063
21
0.9527559448818897
0
LINE
8
BLACK
6
CONTINUOUS
10
0.9736220472440945
20
0.5539370078740158
11
0.9893700787401575
21
0.5381889763779527
0
LINE
8
BLACK
6
CONTINUOUS
10
0.9893700787401575
20
0.5539370078740158
11
0.9736220472440945
21
0.5381889763779527
0
LINE
8
BLACK
6
CONTINUOUS
10
1.0038897637795274
20
0.915748031496063
11
1.0196377952755906
21
0.9
0
LINE
8
BLACK
6
CONTINUOUS
10
1.0196377952755906
20
0.915748031496063
11
1.0038897637795274
21
0.9
0
LINE
8
BLACK
6
CONTINUOUS
10
1.1311023622047245
20
1.2161417322834644
11
1.1468503937007875
21
1.2003937007874015
0
LINE
8
BLACK
6
CONTINUOUS
10
1.1468503937007875
20
1.2161417322834644
11
1.1311023622047245
21
1.2003937007874015
0
LINE
8
BLACK
6
CONTINUOUS
10
1.1639763779527559
20
1.1411417322834645
11
1.1797244094488188
21
1.1253937007874015
0
LINE
8
BLACK
6
CONTINUOUS
10
1.1797244094488188
20
1.1411417322834645
11
1.1639763779527559
21
1.1253937007874015
0
LINE
8
BLACK
6
CONTINUOUS
10
1.2009527559055118
20
1.3352699212598425
11
1.2167007874015747
21
1.3195218897637795
0
LINE
8
BLACK
6
CONTINUOUS
10
1.2167007874015747
20
1.3352699212598425
11
1.2009527559055118
21
1.3195218897637795
0
LINE
8
BLACK
6
CONTINUOUS
10
1.2873406299212597
20
1.3341910236220471
11
1.3030886614173227
21
1.3184429921259841
0
LINE
8
BLACK
6
CONTINUOUS
10
1.3030886614173227
20
1.3341910236220471
11
1.2873406299212597
21
1.3184429921259841
0
LINE
8
BLACK
6
CONTINUOUS
10
1.4051181102362205
20
0.5350393700787401
11
1.4208661417322834
21
0.5192913385826772
0
LINE
8
BLACK
6
CONTINUOUS
10
1.4208661417322834
20
0.5350393700787401
11
1.4051181102362205
21
0.5192913385826772
0
LINE
8
BLACK
6
CONTINUOUS
10
1.4960629921259843
20
0.1681102362204724
11
1.5118110236220472
21
0.1523622047244095
0
LINE
8
BLACK
6
CONTINUOUS
10
1.5118110236220472
20
0.1681102362204724
11
1.4960629921259843
21
0.1523622047244095
0
LINE
8
BLACK
6
CONTINUOUS
10
0.1016837795275591
20
-0.1236156692913386
11
0.1016837795275591
21
-0.0448755118110236
0
LINE
8
BLACK
6
CONTINUOUS
10
0.1016837795275591
20
-0.0448755118110236
11
0.1204314173228346
21
-0.0448755118110236
0
LINE
8
BLACK
6
CONTINUOUS
10
0.1204314173228346
20
-0.0448755118110236
11
0.1316800393700787
21
-0.0486250393700787
0
LINE
8
BLACK
6
CONTINUOUS
10
0.1316800393700787
20
-0.0486250393700787
11
0.139179094488189
21
-0.056124094488189
0
LINE
8
BLACK
6
CONTINUOUS
10
0.139179094488189
20
-0.056124094488189
11
0.1429286220472441
21
-0.0636231496062992
0
LINE
8
BLACK
6
CONTINUOUS
10
0.1429286220472441
20
-0.0636231496062992
11
0.1466781496062992
21
-0.0786212598425197
0
LINE
8
BLACK
6
CONTINUOUS
10
0.1466781496062992
20
-0.0786212598425197
11
0.1466781496062992
21
-0.0898698818897638
0
LINE
8
BLACK
6
CONTINUOUS
10
0.1466781496062992
20
-0.0898698818897638
11
0.1429286220472441
21
-0.1048679921259842
0
LINE
8
BLACK
6
CONTINUOUS
10
0.1429286220472441
20
-0.1048679921259842
11
0.139179094488189
21
-0.1123670472440945
0
LINE
8
BLACK
6
CONTINUOUS
10
0.139179094488189
20
-0.1123670472440945
11
0.1316800393700787
21
-0.1198661417322835
0
LINE
8
BLACK
6
CONTINUOUS
10
0.1316800393700787
20
-0.1198661417322835
11
0.1204314173228346
21
-0.1236156692913386
0
LINE
8
BLACK
6
CONTINUOUS
10
0.1204314173228346
20
-0.1236156692913386
11
0.1016837795275591
21
-0.1236156692913386
0
LINE
8
BLACK
6
CONTINUOUS
10
0.180423937007874
20
-0.1236156692913386
11
0.180423937007874
21
-0.0711222047244094
0
LINE
8
BLACK
6
CONTINUOUS
10
0.180423937007874
20
-0.0861203543307087
11
0.1841734645669291
21
-0.0786212598425197
0
LINE
8
BLACK
6
CONTINUOUS
10
0.1841734645669291
20
-0.0786212598425197
11
0.1879229921259842
21
-0.0748717322834646
0
LINE
8
BLACK
6
CONTINUOUS
10
0.1879229921259842
20
-0.0748717322834646
11
0.1954220472440945
21
-0.0711222047244094
0
LINE
8
BLACK
6
CONTINUOUS
10
0.1954220472440945
20
-0.0711222047244094
11
0.2029211417322835
21
-0.0711222047244094
0
LINE
8
BLACK
6
CONTINUOUS
10
0.2291678346456693
20
-0.1236156692913386
11
0.2291678346456693
21
-0.0711222047244094
0
LINE
8
BLACK
6
CONTINUOUS
10
0.2291678346456693
20
-0.0448755118110236
11
0.2254183070866142
21
-0.0486250393700787
0
LINE
8
BLACK
6
CONTINUOUS
10
0.2254183070866142
20
-0.0486250393700787
11
0.2291678346456693
21
-0.0523745669291339
0
LINE
8
BLACK
6
CONTINUOUS
10
0.2291678346456693
20
-0.0523745669291339
11
0.2329173622047244
21
-0.0486250393700787
0
LINE
8
BLACK
6
CONTINUOUS
10
0.2329173622047244
20
-0.0486250393700787
11
0.2291678346456693
21
-0.0448755118110236
0
LINE
8
BLACK
6
CONTINUOUS
10
0.2291678346456693
20
-0.0448755118110236
11
0.2291678346456693
21
-0.0523745669291339
0
LINE
8
BLACK
6
CONTINUOUS
10
0.2779117322834646
20
-0.1236156692913386
11
0.2704126771653543
21
-0.1198661417322835
0
LINE
8
BLACK
6
CONTINUOUS
10
0.2704126771653543
20
-0.1198661417322835
11
0.2666631496062992
21
-0.1123670472440945
0
LINE
8
BLACK
6
CONTINUOUS
10
0.2666631496062992
20
-0.1123670472440945
11
0.2666631496062992
21
-0.0448755118110236
0
LINE
8
BLACK
6
CONTINUOUS
10
0.3191565748031496
20
-0.1236156692913386
11
0.3116575196850394
21
-0.1198661417322835
0
LINE
8
BLACK
6
CONTINUOUS
10
0.3116575196850394
20
-0.1198661417322835
11
0.3079079921259842
21
-0.1123670472440945
0
LINE
8
BLACK
6
CONTINUOUS
10
0.3079079921259842
20
-0.1123670472440945
11
0.3079079921259842
21
-0.0448755118110236
0
LINE
8
BLACK
6
CONTINUOUS
10
0.4091453543307086
20
-0.1236156692913386
11
0.4091453543307086
21
-0.0448755118110236
0
LINE
8
BLACK
6
CONTINUOUS
10
0.4091453543307086
20
-0.0448755118110236
11
0.4353920866141732
21
-0.1011184645669291
0
LINE
8
BLACK
6
CONTINUOUS
10
0.4353920866141732
20
-0.1011184645669291
11
0.4616387795275591
21
-0.0448755118110236
0
LINE
8
BLACK
6
CONTINUOUS
10
0.4616387795275591
20
-0.0448755118110236
11
0.4616387795275591
21
-0.1236156692913386
0
LINE
8
BLACK
6
CONTINUOUS
10
0.5328798818897638
20
-0.1236156692913386
11
0.5328798818897638
21
-0.0823708267716535
0
LINE
8
BLACK
6
CONTINUOUS
10
0.5328798818897638
20
-0.0823708267716535
11
0.5291303543307087
21
-0.0748717322834646
0
LINE
8
BLACK
6
CONTINUOUS
10
0.5291303543307087
20
-0.0748717322834646
11
0.5216312992125984
21
-0.0711222047244094
0
LINE
8
BLACK
6
CONTINUOUS
10
0.5216312992125984
20
-0.0711222047244094
11
0.5066331496062992
21
-0.0711222047244094
0
LINE
8
BLACK
6
CONTINUOUS
10
0.5066331496062992
20
-0.0711222047244094
11
0.499134094488189
21
-0.0748717322834646
0
LINE
8
BLACK
6
CONTINUOUS
10
0.5328798818897638
20
-0.1198661417322835
11
0.5253808267716535
21
-0.1236156692913386
0
LINE
8
BLACK
6
CONTINUOUS
10
0.5253808267716535
20
-0.1236156692913386
11
0.5066331496062992
21
-0.1236156692913386
0
LINE
8
BLACK
6
CONTINUOUS
10
0.5066331496062992
20
-0.1236156692913386
11
0.499134094488189
21
-0.1198661417322835
0
LINE
8
BLACK
6
CONTINUOUS
10
0.499134094488189
20
-0.1198661417322835
11
0.4953845669291339
21
-0.1123670472440945
0
LINE
8
BLACK
6
CONTINUOUS
10
0.4953845669291339
20
-0.1123670472440945
11
0.4953845669291339
21
-0.1048679921259842
0
LINE
8
BLACK
6
CONTINUOUS
10
0.4953845669291339
20
-0.1048679921259842
11
0.499134094488189
21
-0.097368937007874
0
LINE
8
BLACK
6
CONTINUOUS
10
0.499134094488189
20
-0.097368937007874
11
0.5066331496062992
21
-0.0936194094488189
0
LINE
8
BLACK
6
CONTINUOUS
10
0.5066331496062992
20
-0.0936194094488189
11
0.5253808267716535
21
-0.0936194094488189
0
LINE
8
BLACK
6
CONTINUOUS
10
0.5253808267716535
20
-0.0936194094488189
11
0.5328798818897638
21
-0.0898698818897638
0
LINE
8
BLACK
6
CONTINUOUS
10
0.5703751968503937
20
-0.0711222047244094
11
0.5703751968503937
21
-0.1498623622047244
0
LINE
8
BLACK
6
CONTINUOUS
10
0.5703751968503937
20
-0.0748717322834646
11
0.5778742519685039
21
-0.0711222047244094
0
LINE
8
BLACK
6
CONTINUOUS
10
0.5778742519685039
20
-0.0711222047244094
11
0.5928724015748031
21
-0.0711222047244094
0
LINE
8
BLACK
6
CONTINUOUS
10
0.5928724015748031
20
-0.0711222047244094
11
0.6003714566929134
21
-0.0748717322834646
0
LINE
8
BLACK
6
CONTINUOUS
10
0.6003714566929134
20
-0.0748717322834646
11
0.6041209842519685
21
-0.0786212598425197
0
LINE
8
BLACK
6
CONTINUOUS
10
0.6041209842519685
20
-0.0786212598425197
11
0.6078705118110236
21
-0.0861203543307087
0
LINE
8
BLACK
6
CONTINUOUS
10
0.6078705118110236
20
-0.0861203543307087
11
0.6078705118110236
21
-0.1086175196850394
0
LINE
8
BLACK
6
CONTINUOUS
10
0.6078705118110236
20
-0.1086175196850394
11
0.6041209842519685
21
-0.1161165748031496
0
LINE
8
BLACK
6
CONTINUOUS
10
0.6041209842519685
20
-0.1161165748031496
11
0.6003714566929134
21
-0.1198661417322835
0
LINE
8
BLACK
6
CONTINUOUS
10
0.6003714566929134
20
-0.1198661417322835
11
0.5928724015748031
21
-0.1236156692913386
0
LINE
8
BLACK
6
CONTINUOUS
10
0.5928724015748031
20
-0.1236156692913386
11
0.5778742519685039
21
-0.1236156692913386
0
LINE
8
BLACK
6
CONTINUOUS
10
0.5778742519685039
20
-0.1236156692913386
11
0.5703751968503937
21
-0.1198661417322835
0
LINE
8
BLACK
6
CONTINUOUS
10
0.6416162992125984
20
-0.1161165748031496
11
0.6453658267716536
21
-0.1198661417322835
0
LINE
8
BLACK
6
CONTINUOUS
10
0.6453658267716536
20
-0.1198661417322835
11
0.6416162992125984
21
-0.1236156692913386
0
LINE
8
BLACK
6
CONTINUOUS
10
0.6416162992125984
20
-0.1236156692913386
11
0.6378667716535433
21
-0.1198661417322835
0
LINE
8
BLACK
6
CONTINUOUS
10
0.6378667716535433
20
-0.1198661417322835
11
0.6416162992125984
21
-0.1161165748031496
0
LINE
8
BLACK
6
CONTINUOUS
10
0.6416162992125984
20
-0.1161165748031496
11
0.6416162992125984
21
-0.1236156692913386
0
LINE
8
BLACK
6
CONTINUOUS
10
0.6416162992125984
20
-0.0748717322834646
11
0.6453658267716536
21
-0.0786212598425197
0
LINE
8
BLACK
6
CONTINUOUS
10
0.6453658267716536
20
-0.0786212598425197
11
0.6416162992125984
21
-0.0823708267716535
0
LINE
8
BLACK
6
CONTINUOUS
10
0.6416162992125984
20
-0.0823708267716535
11
0.6378667716535433
21
-0.0786212598425197
0
LINE
8
BLACK
6
CONTINUOUS
10
0.6378667716535433
20
-0.0786212598425197
11
0.6416162992125984
21
-0.0748717322834646
0
LINE
8
BLACK
6
CONTINUOUS
10
0.6416162992125984
20
-0.0748717322834646
11
0.6416162992125984
21
-0.0823708267716535
0
LINE
8
BLACK
6
CONTINUOUS
10
-0.0167322834645669
20
-0.2450787401574803
11
-0.0009842519685039
21
-0.2608267716535433
0
LINE
8
BLACK
6
CONTINUOUS
10
-0.0009842519685039
20
-0.2450787401574803
11
-0.0167322834645669
21
-0.2608267716535433
0
LINE
8
BLACK
6
CONTINUOUS
10
0.1166818897637795
20
-0.210229842519685
11
0.1241809842519685
21
-0.210229842519685
0
LINE
8
BLACK
6
CONTINUOUS
10
0.1241809842519685
20
-0.210229842519685
11
0.1316800393700787
21
-0.2139793700787402
0
LINE
8
BLACK
6
CONTINUOUS
10
0.1316800393700787
20
-0.2139793700787402
11
0.1354295669291339
21
-0.2177288976377953
0
LINE
8
BLACK
6
CONTINUOUS
10
0.1354295669291339
20
-0.2177288976377953
11
0.139179094488189
21
-0.2252279527559055
0
LINE
8
BLACK
6
CONTINUOUS
10
0.139179094488189
20
-0.2252279527559055
11
0.1429286220472441
21
-0.240226062992126
0
LINE
8
BLACK
6
CONTINUOUS
10
0.1429286220472441
20
-0.240226062992126
11
0.1429286220472441
21
-0.2589737401574803
0
LINE
8
BLACK
6
CONTINUOUS
10
0.1429286220472441
20
-0.2589737401574803
11
0.139179094488189
21
-0.2739718503937008
0
LINE
8
BLACK
6
CONTINUOUS
10
0.139179094488189
20
-0.2739718503937008
11
0.1354295669291339
21
-0.281470905511811
0
LINE
8
BLACK
6
CONTINUOUS
10
0.1354295669291339
20
-0.281470905511811
11
0.1316800393700787
21
-0.2852204724409449
0
LINE
8
BLACK
6
CONTINUOUS
10
0.1316800393700787
20
-0.2852204724409449
11
0.1241809842519685
21
-0.28897
0
LINE
8
BLACK
6
CONTINUOUS
10
0.1241809842519685
20
-0.28897
11
0.1166818897637795
21
-0.28897
0
LINE
8
BLACK
6
CONTINUOUS
10
0.1166818897637795
20
-0.28897
11
0.1091828346456693
21
-0.2852204724409449
0
LINE
8
BLACK
6
CONTINUOUS
10
0.1091828346456693
20
-0.2852204724409449
11
0.1054333070866142
21
-0.281470905511811
0
LINE
8
BLACK
6
CONTINUOUS
10
0.1054333070866142
20
-0.281470905511811
11
0.1016837795275591
21
-0.2739718503937008
0
LINE
8
BLACK
6
CONTINUOUS
10
0.1016837795275591
20
-0.2739718503937008
11
0.0979342519685039
21
-0.2589737401574803
0
LINE
8
BLACK
6
CONTINUOUS
10
0.0979342519685039
20
-0.2589737401574803
11
0.0979342519685039
21
-0.240226062992126
0
LINE
8
BLACK
6
CONTINUOUS
10
0.0979342519685039
20
-0.240226062992126
11
0.1016837795275591
21
-0.2252279527559055
0
LINE
8
BLACK
6
CONTINUOUS
10
0.1016837795275591
20
-0.2252279527559055
11
0.1054333070866142
21
-0.2177288976377953
0
LINE
8
BLACK
6
CONTINUOUS
10
0.1054333070866142
20
-0.2177288976377953
11
0.1091828346456693
21
-0.2139793700787402
0
LINE
8
BLACK
6
CONTINUOUS
10
0.1091828346456693
20
-0.2139793700787402
11
0.1166818897637795
21
-0.210229842519685
0
LINE
8
BLACK
6
CONTINUOUS
10
0.1766744094488189
20
-0.281470905511811
11
0.180423937007874
21
-0.2852204724409449
0
LINE
8
BLACK
6
CONTINUOUS
10
0.180423937007874
20
-0.2852204724409449
11
0.1766744094488189
21
-0.28897
0
LINE
8
BLACK
6
CONTINUOUS
10
0.1766744094488189
20
-0.28897
11
0.1729248818897638
21
-0.2852204724409449
0
LINE
8
BLACK
6
CONTINUOUS
10
0.1729248818897638
20
-0.2852204724409449
11
0.1766744094488189
21
-0.281470905511811
0
LINE
8
BLACK
6
CONTINUOUS
10
0.1766744094488189
20
-0.281470905511811
11
0.1766744094488189
21
-0.28897
0
LINE
8
BLACK
6
CONTINUOUS
10
0.2479155118110236
20
-0.2364765354330709
11
0.2479155118110236
21
-0.28897
0
LINE
8
BLACK
6
CONTINUOUS
10
0.2291678346456693
20
-0.2064803149606299
11
0.2104201968503937
21
-0.2627232677165354
0
LINE
8
BLACK
6
CONTINUOUS
10
0.2104201968503937
20
-0.2627232677165354
11
0.2591640944881889
21
-0.2627232677165354
0
LINE
8
BLACK
6
CONTINUOUS
10
0.3041584645669291
20
-0.210229842519685
11
0.3116575590551181
21
-0.210229842519685
0
LINE
8
BLACK
6
CONTINUOUS
10
0.3116575590551181
20
-0.210229842519685
11
0.3191566141732283
21
-0.2139793700787402
0
LINE
8
BLACK
6
CONTINUOUS
10
0.3191566141732283
20
-0.2139793700787402
11
0.3229061417322834
21
-0.2177288976377953
0
LINE
8
BLACK
6
CONTINUOUS
10
0.3229061417322834
20
-0.2177288976377953
11
0.3266556692913386
21
-0.2252279527559055
0
LINE
8
BLACK
6
CONTINUOUS
10
0.3266556692913386
20
-0.2252279527559055
11
0.3304051968503937
21
-0.240226062992126
0
LINE
8
BLACK
6
CONTINUOUS
10
0.3304051968503937
20
-0.240226062992126
11
0.3304051968503937
21
-0.2589737401574803
0
LINE
8
BLACK
6
CONTINUOUS
10
0.3304051968503937
20
-0.2589737401574803
11
0.3266556692913386
21
-0.2739718503937008
0
LINE
8
BLACK
6
CONTINUOUS
10
0.3266556692913386
20
-0.2739718503937008
11
0.3229061417322834
21
-0.281470905511811
0
LINE
8
BLACK
6
CONTINUOUS
10
0.3229061417322834
20
-0.281470905511811
11
0.3191566141732283
21
-0.2852204724409449
0
LINE
8
BLACK
6
CONTINUOUS
10
0.3191566141732283
20
-0.2852204724409449
11
0.3116575590551181
21
-0.28897
0
LINE
8
BLACK
6
CONTINUOUS
10
0.3116575590551181
20
-0.28897
11
0.3041584645669291
21
-0.28897
0
LINE
8
BLACK
6
CONTINUOUS
10
0.3041584645669291
20
-0.28897
11
0.2966594094488189
21
-0.2852204724409449
0
LINE
8
BLACK
6
CONTINUOUS
10
0.2966594094488189
20
-0.2852204724409449
11
0.2929098818897637
21
-0.281470905511811
0
LINE
8
BLACK
6
CONTINUOUS
10
0.2929098818897637
20
-0.281470905511811
11
0.2891603543307086
21
-0.2739718503937008
0
LINE
8
BLACK
6
CONTINUOUS
10
0.2891603543307086
20
-0.2739718503937008
11
0.2854108267716535
21
-0.2589737401574803
0
LINE
8
BLACK
6
CONTINUOUS
10
0.2854108267716535
20
-0.2589737401574803
11
0.2854108267716535
21
-0.240226062992126
0
LINE
8
BLACK
6
CONTINUOUS
10
0.2854108267716535
20
-0.240226062992126
11
0.2891603543307086
21
-0.2252279527559055
0
LINE
8
BLACK
6
CONTINUOUS
10
0.2891603543307086
20
-0.2252279527559055
11
0.2929098818897637
21
-0.2177288976377953
0
LINE
8
BLACK
6
CONTINUOUS
10
0.2929098818897637
20
-0.2177288976377953
11
0.2966594094488189
21
-0.2139793700787402
0
LINE
8
BLACK
6
CONTINUOUS
10
0.2966594094488189
20
-0.2139793700787402
11
0.3041584645669291
21
-0.210229842519685
0
LINE
8
BLACK
6
CONTINUOUS
10
0.379149094488189
20
-0.210229842519685
11
0.3866481889763779
21
-0.210229842519685
0
LINE
8
BLACK
6
CONTINUOUS
10
0.3866481889763779
20
-0.210229842519685
11
0.3941472440944882
21
-0.2139793700787402
0
LINE
8
BLACK
6
CONTINUOUS
10
0.3941472440944882
20
-0.2139793700787402
11
0.3978967716535433
21
-0.2177288976377953
0
LINE
8
BLACK
6
CONTINUOUS
10
0.3978967716535433
20
-0.2177288976377953
11
0.4016462992125984
21
-0.2252279527559055
0
LINE
8
BLACK
6
CONTINUOUS
10
0.4016462992125984
20
-0.2252279527559055
11
0.4053958267716535
21
-0.240226062992126
0
LINE
8
BLACK
6
CONTINUOUS
10
0.4053958267716535
20
-0.240226062992126
11
0.4053958267716535
21
-0.2589737401574803
0
LINE
8
BLACK
6
CONTINUOUS
10
0.4053958267716535
20
-0.2589737401574803
11
0.4016462992125984
21
-0.2739718503937008
0
LINE
8
BLACK
6
CONTINUOUS
10
0.4016462992125984
20
-0.2739718503937008
11
0.3978967716535433
21
-0.281470905511811
0
LINE
8
BLACK
6
CONTINUOUS
10
0.3978967716535433
20
-0.281470905511811
11
0.3941472440944882
21
-0.2852204724409449
0
LINE
8
BLACK
6
CONTINUOUS
10
0.3941472440944882
20
-0.2852204724409449
11
0.3866481889763779
21
-0.28897
0
LINE
8
BLACK
6
CONTINUOUS
10
0.3866481889763779
20
-0.28897
11
0.379149094488189
21
-0.28897
0
LINE
8
BLACK
6
CONTINUOUS
10
0.379149094488189
20
-0.28897
11
0.3716500393700787
21
-0.2852204724409449
0
LINE
8
BLACK
6
CONTINUOUS
10
0.3716500393700787
20
-0.2852204724409449
11
0.3679005118110236
21
-0.281470905511811
0
LINE
8
BLACK
6
CONTINUOUS
10
0.3679005118110236
20
-0.281470905511811
11
0.3641509842519685
21
-0.2739718503937008
0
LINE
8
BLACK
6
CONTINUOUS
10
0.3641509842519685
20
-0.2739718503937008
11
0.3604014566929134
21
-0.2589737401574803
0
LINE
8
BLACK
6
CONTINUOUS
10
0.3604014566929134
20
-0.2589737401574803
11
0.3604014566929134
21
-0.240226062992126
0
LINE
8
BLACK
6
CONTINUOUS
10
0.3604014566929134
20
-0.240226062992126
11
0.3641509842519685
21
-0.2252279527559055
0
LINE
8
BLACK
6
CONTINUOUS
10
0.3641509842519685
20
-0.2252279527559055
11
0.3679005118110236
21
-0.2177288976377953
0
LINE
8
BLACK
6
CONTINUOUS
10
0.3679005118110236
20
-0.2177288976377953
11
0.3716500393700787
21
-0.2139793700787402
0
LINE
8
BLACK
6
CONTINUOUS
10
0.3716500393700787
20
-0.2139793700787402
11
0.379149094488189
21
-0.210229842519685
0
LINE
8
BLACK
6
CONTINUOUS
10
0.4391416141732283
20
-0.28897
11
0.4391416141732283
21
-0.2364765354330709
0
LINE
8
BLACK
6
CONTINUOUS
10
0.4391416141732283
20
-0.2439755905511811
11
0.4428911417322834
21
-0.240226062992126
0
LINE
8
BLACK
6
CONTINUOUS
10
0.4428911417322834
20
-0.240226062992126
11
0.4503901968503937
21
-0.2364765354330709
0
LINE
8
BLACK
6
CONTINUOUS
10
0.4503901968503937
20
-0.2364765354330709
11
0.4616388188976378
21
-0.2364765354330709
0
LINE
8
BLACK
6
CONTINUOUS
10
0.4616388188976378
20
-0.2364765354330709
11
0.469137874015748
21
-0.240226062992126
0
LINE
8
BLACK
6
CONTINUOUS
10
0.469137874015748
20
-0.240226062992126
11
0.4728874015748031
21
-0.247725157480315
0
LINE
8
BLACK
6
CONTINUOUS
10
0.4728874015748031
20
-0.247725157480315
11
0.4728874015748031
21
-0.28897
0
LINE
8
BLACK
6
CONTINUOUS
10
0.4728874015748031
20
-0.247725157480315
11
0.4766369291338582
21
-0.240226062992126
0
LINE
8
BLACK
6
CONTINUOUS
10
0.4766369291338582
20
-0.240226062992126
11
0.4841359842519685
21
-0.2364765354330709
0
LINE
8
BLACK
6
CONTINUOUS
10
0.4841359842519685
20
-0.2364765354330709
11
0.4953845669291339
21
-0.2364765354330709
0
LINE
8
BLACK
6
CONTINUOUS
10
0.4953845669291339
20
-0.2364765354330709
11
0.5028836614173228
21
-0.240226062992126
0
LINE
8
BLACK
6
CONTINUOUS
10
0.5028836614173228
20
-0.240226062992126
11
0.506633188976378
21
-0.247725157480315
0
LINE
8
BLACK
6
CONTINUOUS
10
0.506633188976378
20
-0.247725157480315
11
0.506633188976378
21
-0.28897
0
LINE
8
BLACK
6
CONTINUOUS
10
0.5441285039370078
20
-0.28897
11
0.5441285039370078
21
-0.2364765354330709
0
LINE
8
BLACK
6
CONTINUOUS
10
0.5441285039370078
20
-0.2439755905511811
11
0.547878031496063
21
-0.240226062992126
0
LINE
8
BLACK
6
CONTINUOUS
10
0.547878031496063
20
-0.240226062992126
11
0.5553770866141732
21
-0.2364765354330709
0
LINE
8
BLACK
6
CONTINUOUS
10
0.5553770866141732
20
-0.2364765354330709
11
0.5666257086614173
21
-0.2364765354330709
0
LINE
8
BLACK
6
CONTINUOUS
10
0.5666257086614173
20
-0.2364765354330709
11
0.5741247637795276
21
-0.240226062992126
0
LINE
8
BLACK
6
CONTINUOUS
10
0.5741247637795276
20
-0.240226062992126
11
0.5778742913385827
21
-0.247725157480315
0
LINE
8
BLACK
6
CONTINUOUS
10
0.5778742913385827
20
-0.247725157480315
11
0.5778742913385827
21
-0.28897
0
LINE
8
BLACK
6
CONTINUOUS
10
0.5778742913385827
20
-0.247725157480315
11
0.5816238188976378
21
-0.240226062992126
0
LINE
8
BLACK
6
CONTINUOUS
10
0.5816238188976378
20
-0.240226062992126
11
0.589122874015748
21
-0.2364765354330709
0
LINE
8
BLACK
6
CONTINUOUS
10
0.589122874015748
20
-0.2364765354330709
11
0.6003714566929134
21
-0.2364765354330709
0
LINE
8
BLACK
6
CONTINUOUS
10
0.6003714566929134
20
-0.2364765354330709
11
0.6078705511811023
21
-0.240226062992126
0
LINE
8
BLACK
6
CONTINUOUS
10
0.6078705511811023
20
-0.240226062992126
11
0.6116200787401574
21
-0.247725157480315
0
LINE
8
BLACK
6
CONTINUOUS
10
0.6116200787401574
20
-0.247725157480315
11
0.6116200787401574
21
-0.28897
0
LINE
8
BLACK
6
CONTINUOUS
10
0.7653508661417323
20
-0.2064803149606299
11
0.6978593307086614
21
-0.3077176377952756
0
LINE
8
BLACK
6
CONTINUOUS
10
0.8665882283464567
20
-0.210229842519685
11
0.8740873228346456
21
-0.210229842519685
0
LINE
8
BLACK
6
CONTINUOUS
10
0.8740873228346456
20
-0.210229842519685
11
0.8815863779527559
21
-0.2139793700787402
0
LINE
8
BLACK
6
CONTINUOUS
10
0.8815863779527559
20
-0.2139793700787402
11
0.885335905511811
21
-0.2177288976377953
0
LINE
8
BLACK
6
CONTINUOUS
10
0.885335905511811
20
-0.2177288976377953
11
0.8890854330708661
21
-0.2252279527559055
0
LINE
8
BLACK
6
CONTINUOUS
10
0.8890854330708661
20
-0.2252279527559055
11
0.8928349606299213
21
-0.240226062992126
0
LINE
8
BLACK
6
CONTINUOUS
10
0.8928349606299213
20
-0.240226062992126
11
0.8928349606299213
21
-0.2589737401574803
0
LINE
8
BLACK
6
CONTINUOUS
10
0.8928349606299213
20
-0.2589737401574803
11
0.8890854330708661
21
-0.2739718503937008
0
LINE
8
BLACK
6
CONTINUOUS
10
0.8890854330708661
20
-0.2739718503937008
11
0.885335905511811
21
-0.281470905511811
0
LINE
8
BLACK
6
CONTINUOUS
10
0.885335905511811
20
-0.281470905511811
11
0.8815863779527559
21
-0.2852204724409449
0
LINE
8
BLACK
6
CONTINUOUS
10
0.8815863779527559
20
-0.2852204724409449
11
0.8740873228346456
21
-0.28897
0
LINE
8
BLACK
6
CONTINUOUS
10
0.8740873228346456
20
-0.28897
11
0.8665882283464567
21
-0.28897
0
LINE
8
BLACK
6
CONTINUOUS
10
0.8665882283464567
20
-0.28897
11
0.8590891732283464
21
-0.2852204724409449
0
LINE
8
BLACK
6
CONTINUOUS
10
0.8590891732283464
20
-0.2852204724409449
11
0.8553396456692913
21
-0.281470905511811
0
LINE
8
BLACK
6
CONTINUOUS
10
0.8553396456692913
20
-0.281470905511811
11
0.8515901181102362
21
-0.2739718503937008
0
LINE
8
BLACK
6
CONTINUOUS
10
0.8515901181102362
20
-0.2739718503937008
11
0.8478405905511811
21
-0.2589737401574803
0
LINE
8
BLACK
6
CONTINUOUS
10
0.8478405905511811
20
-0.2589737401574803
11
0.8478405905511811
21
-0.240226062992126
0
LINE
8
BLACK
6
CONTINUOUS
10
0.8478405905511811
20
-0.240226062992126
11
0.8515901181102362
21
-0.2252279527559055
0
LINE
8
BLACK
6
CONTINUOUS
10
0.8515901181102362
20
-0.2252279527559055
11
0.8553396456692913
21
-0.2177288976377953
0
LINE
8
BLACK
6
CONTINUOUS
10
0.8553396456692913
20
-0.2177288976377953
11
0.8590891732283464
21
-0.2139793700787402
0
LINE
8
BLACK
6
CONTINUOUS
10
0.8590891732283464
20
-0.2139793700787402
11
0.8665882283464567
21
-0.210229842519685
0
LINE
8
BLACK
6
CONTINUOUS
10
0.926580748031496
20
-0.281470905511811
11
0.9303302755905511
21
-0.2852204724409449
0
LINE
8
BLACK
6
CONTINUOUS
10
0.9303302755905511
20
-0.2852204724409449
11
0.926580748031496
21
-0.28897
0
LINE
8
BLACK
6
CONTINUOUS
10
0.926580748031496
20
-0.28897
11
0.9228312204724409
21
-0.2852204724409449
0
LINE
8
BLACK
6
CONTINUOUS
10
0.9228312204724409
20
-0.2852204724409449
11
0.926580748031496
21
-0.281470905511811
0
LINE
8
BLACK
6
CONTINUOUS
10
0.926580748031496
20
-0.281470905511811
11
0.926580748031496
21
-0.28897
0
LINE
8
BLACK
6
CONTINUOUS
10
0.9790741732283464
20
-0.210229842519685
11
0.9865732677165354
21
-0.210229842519685
0
LINE
8
BLACK
6
CONTINUOUS
10
0.9865732677165354
20
-0.210229842519685
11
0.9940723228346456
21
-0.2139793700787402
0
LINE
8
BLACK
6
CONTINUOUS
10
0.9940723228346456
20
-0.2139793700787402
11
0.9978218503937007
21
-0.2177288976377953
0
LINE
8
BLACK
6
CONTINUOUS
10
0.9978218503937007
20
-0.2177288976377953
11
1.001571377952756
21
-0.2252279527559055
0
LINE
8
BLACK
6
CONTINUOUS
10
1.001571377952756
20
-0.2252279527559055
11
1.0053209055118111
21
-0.240226062992126
0
LINE
8
BLACK
6
CONTINUOUS
10
1.0053209055118111
20
-0.240226062992126
11
1.0053209055118111
21
-0.2589737401574803
0
LINE
8
BLACK
6
CONTINUOUS
10
1.0053209055118111
20
-0.2589737401574803
11
1.001571377952756
21
-0.2739718503937008
0
LINE
8
BLACK
6
CONTINUOUS
10
1.001571377952756
20
-0.2739718503937008
11
0.9978218503937007
21
-0.281470905511811
0
LINE
8
BLACK
6
CONTINUOUS
10
0.9978218503937007
20
-0.281470905511811
11
0.9940723228346456
21
-0.2852204724409449
0
LINE
8
BLACK
6
CONTINUOUS
10
0.9940723228346456
20
-0.2852204724409449
11
0.9865732677165354
21
-0.28897
0
LINE
8
BLACK
6
CONTINUOUS
10
0.9865732677165354
20
-0.28897
11
0.9790741732283464
21
-0.28897
0
LINE
8
BLACK
6
CONTINUOUS
10
0.9790741732283464
20
-0.28897
11
0.9715751181102362
21
-0.2852204724409449
0
LINE
8
BLACK
6
CONTINUOUS
10
0.9715751181102362
20
-0.2852204724409449
11
0.9678255905511811
21
-0.281470905511811
0
LINE
8
BLACK
6
CONTINUOUS
10
0.9678255905511811
20
-0.281470905511811
11
0.964076062992126
21
-0.2739718503937008
0
LINE
8
BLACK
6
CONTINUOUS
10
0.964076062992126
20
-0.2739718503937008
11
0.9603265354330709
21
-0.2589737401574803
0
LINE
8
BLACK
6
CONTINUOUS
10
0.9603265354330709
20
-0.2589737401574803
11
0.9603265354330709
21
-0.240226062992126
0
LINE
8
BLACK
6
CONTINUOUS
10
0.9603265354330709
20
-0.240226062992126
11
0.964076062992126
21
-0.2252279527559055
0
LINE
8
BLACK
6
CONTINUOUS
10
0.964076062992126
20
-0.2252279527559055
11
0.9678255905511811
21
-0.2177288976377953
0
LINE
8
BLACK
6
CONTINUOUS
10
0.9678255905511811
20
-0.2177288976377953
11
0.9715751181102362
21
-0.2139793700787402
0
LINE
8
BLACK
6
CONTINUOUS
10
0.9715751181102362
20
-0.2139793700787402
11
0.9790741732283464
21
-0.210229842519685
0
LINE
8
BLACK
6
CONTINUOUS
10
1.0803115354330708
20
-0.28897
11
1.0353171653543307
21
-0.28897
0
LINE
8
BLACK
6
CONTINUOUS
10
1.0578143307086614
20
-0.28897
11
1.0578143307086614
21
-0.210229842519685
0
LINE
8
BLACK
6
CONTINUOUS
10
1.0578143307086614
20
-0.210229842519685
11
1.0503152755905512
21
-0.2214784251968504
0
LINE
8
BLACK
6
CONTINUOUS
10
1.0503152755905512
20
-0.2214784251968504
11
1.0428162204724409
21
-0.2289774803149606
0
LINE
8
BLACK
6
CONTINUOUS
10
1.0428162204724409
20
-0.2289774803149606
11
1.0353171653543307
21
-0.2327270078740157
0
LINE
8
BLACK
6
CONTINUOUS
10
1.1515526377952756
20
-0.210229842519685
11
1.1140573228346455
21
-0.210229842519685
0
LINE
8
BLACK
6
CONTINUOUS
10
1.1140573228346455
20
-0.210229842519685
11
1.1103077952755904
21
-0.247725157480315
0
LINE
8
BLACK
6
CONTINUOUS
10
1.1103077952755904
20
-0.247725157480315
11
1.1140573228346455
21
-0.2439755905511811
0
LINE
8
BLACK
6
CONTINUOUS
10
1.1140573228346455
20
-0.2439755905511811
11
1.121556377952756
21
-0.240226062992126
0
LINE
8
BLACK
6
CONTINUOUS
10
1.121556377952756
20
-0.240226062992126
11
1.1403040551181103
21
-0.240226062992126
0
LINE
8
BLACK
6
CONTINUOUS
10
1.1403040551181103
20
-0.240226062992126
11
1.1478031102362205
21
-0.2439755905511811
0
LINE
8
BLACK
6
CONTINUOUS
10
1.1478031102362205
20
-0.2439755905511811
11
1.1515526377952756
21
-0.247725157480315
0
LINE
8
BLACK
6
CONTINUOUS
10
1.1515526377952756
20
-0.247725157480315
11
1.1553021653543307
21
-0.2552242125984252
0
LINE
8
BLACK
6
CONTINUOUS
10
1.1553021653543307
20
-0.2552242125984252
11
1.1553021653543307
21
-0.2739718503937008
0
LINE
8
BLACK
6
CONTINUOUS
10
1.1553021653543307
20
-0.2739718503937008
11
1.1515526377952756
21
-0.281470905511811
0
LINE
8
BLACK
6
CONTINUOUS
10
1.1515526377952756
20
-0.281470905511811
11
1.1478031102362205
21
-0.2852204724409449
0
LINE
8
BLACK
6
CONTINUOUS
10
1.1478031102362205
20
-0.2852204724409449
11
1.1403040551181103
21
-0.28897
0
LINE
8
BLACK
6
CONTINUOUS
10
1.1403040551181103
20
-0.28897
11
1.121556377952756
21
-0.28897
0
LINE
8
BLACK
6
CONTINUOUS
10
1.121556377952756
20
-0.28897
11
1.1140573228346455
21
-0.2852204724409449
0
LINE
8
BLACK
6
CONTINUOUS
10
1.1140573228346455
20
-0.2852204724409449
11
1.1103077952755904
21
-0.281470905511811
0
LINE
8
BLACK
6
CONTINUOUS
10
1.1815488976377952
20
-0.210229842519685
11
1.2340423228346455
21
-0.210229842519685
0
LINE
8
BLACK
6
CONTINUOUS
10
1.2340423228346455
20
-0.210229842519685
11
1.2002965354330708
21
-0.28897
0
LINE
8
BLACK
6
CONTINUOUS
10
1.2602890551181103
20
-0.210229842519685
11
1.2602890551181103
21
-0.2252279527559055
0
LINE
8
BLACK
6
CONTINUOUS
10
1.2902853149606299
20
-0.210229842519685
11
1.2902853149606299
21
-0.2252279527559055
0
LINE
8
BLACK
6
CONTINUOUS
10
1.4065208267716536
20
-0.3189662204724409
11
1.4027712598425197
21
-0.3152166929133858
0
LINE
8
BLACK
6
CONTINUOUS
10
1.4027712598425197
20
-0.3152166929133858
11
1.3952722047244095
21
-0.3039681102362204
0
LINE
8
BLACK
6
CONTINUOUS
10
1.3952722047244095
20
-0.3039681102362204
11
1.3915226771653544
21
-0.2964690551181102
0
LINE
8
BLACK
6
CONTINUOUS
10
1.3915226771653544
20
-0.2964690551181102
11
1.3877731496062993
21
-0.2852204724409449
0
LINE
8
BLACK
6
CONTINUOUS
10
1.3877731496062993
20
-0.2852204724409449
11
1.3840236220472442
21
-0.2664727952755905
0
LINE
8
BLACK
6
CONTINUOUS
10
1.3840236220472442
20
-0.2664727952755905
11
1.3840236220472442
21
-0.2514746850393701
0
LINE
8
BLACK
6
CONTINUOUS
10
1.3840236220472442
20
-0.2514746850393701
11
1.3877731496062993
21
-0.2327270078740157
0
LINE
8
BLACK
6
CONTINUOUS
10
1.3877731496062993
20
-0.2327270078740157
11
1.3915226771653544
21
-0.2214784251968504
0
LINE
8
BLACK
6
CONTINUOUS
10
1.3915226771653544
20
-0.2214784251968504
11
1.3952722047244095
21
-0.2139793700787402
0
LINE
8
BLACK
6
CONTINUOUS
10
1.3952722047244095
20
-0.2139793700787402
11
1.4027712598425197
21
-0.2027307480314961
0
LINE
8
BLACK
6
CONTINUOUS
10
1.4027712598425197
20
-0.2027307480314961
11
1.4065208267716536
21
-0.1989812204724409
0
LINE
8
BLACK
6
CONTINUOUS
10
1.4327675196850393
20
-0.2177288976377953
11
1.4365170472440945
21
-0.2139793700787402
0
LINE
8
BLACK
6
CONTINUOUS
10
1.4365170472440945
20
-0.2139793700787402
11
1.4440161023622047
21
-0.210229842519685
0
LINE
8
BLACK
6
CONTINUOUS
10
1.4440161023622047
20
-0.210229842519685
11
1.462763779527559
21
-0.210229842519685
0
LINE
8
BLACK
6
CONTINUOUS
10
1.462763779527559
20
-0.210229842519685
11
1.4702628346456692
21
-0.2139793700787402
0
LINE
8
BLACK
6
CONTINUOUS
10
1.4702628346456692
20
-0.2139793700787402
11
1.4740123622047243
21
-0.2177288976377953
0
LINE
8
BLACK
6
CONTINUOUS
10
1.4740123622047243
20
-0.2177288976377953
11
1.4777618897637794
21
-0.2252279527559055
0
LINE
8
BLACK
6
CONTINUOUS
10
1.4777618897637794
20
-0.2252279527559055
11
1.4777618897637794
21
-0.2327270078740157
0
LINE
8
BLACK
6
CONTINUOUS
10
1.4777618897637794
20
-0.2327270078740157
11
1.4740123622047243
21
-0.2439755905511811
0
LINE
8
BLACK
6
CONTINUOUS
10
1.4740123622047243
20
-0.2439755905511811
11
1.4290179921259842
21
-0.28897
0
LINE
8
BLACK
6
CONTINUOUS
10
1.4290179921259842
20
-0.28897
11
1.4777618897637794
21
-0.28897
0
LINE
8
BLACK
6
CONTINUOUS
10
1.5077581496062993
20
-0.2177288976377953
11
1.5115076771653544
21
-0.2139793700787402
0
LINE
8
BLACK
6
CONTINUOUS
10
1.5115076771653544
20
-0.2139793700787402
11
1.5190067322834646
21
-0.210229842519685
0
LINE
8
BLACK
6
CONTINUOUS
10
1.5190067322834646
20
-0.210229842519685
11
1.5377544094488189
21
-0.210229842519685
0
LINE
8
BLACK
6
CONTINUOUS
10
1.5377544094488189
20
-0.210229842519685
11
1.5452534645669291
21
-0.2139793700787402
0
LINE
8
BLACK
6
CONTINUOUS
10
1.5452534645669291
20
-0.2139793700787402
11
1.5490029921259842
21
-0.2177288976377953
0
LINE
8
BLACK
6
CONTINUOUS
10
1.5490029921259842
20
-0.2177288976377953
11
1.5527525196850394
21
-0.2252279527559055
0
LINE
8
BLACK
6
CONTINUOUS
10
1.5527525196850394
20
-0.2252279527559055
11
1.5527525196850394
21
-0.2327270078740157
0
LINE
8
BLACK
6
CONTINUOUS
10
1.5527525196850394
20
-0.2327270078740157
11
1.5490029921259842
21
-0.2439755905511811
0
LINE
8
BLACK
6
CONTINUOUS
10
1.5490029921259842
20
-0.2439755905511811
11
1.5040086220472442
21
-0.28897
0
LINE
8
BLACK
6
CONTINUOUS
10
1.5040086220472442
20
-0.28897
11
1.5527525196850394
21
-0.28897
0
LINE
8
BLACK
6
CONTINUOUS
10
1.6464908267716536
20
-0.28897
11
1.6464908267716536
21
-0.210229842519685
0
LINE
8
BLACK
6
CONTINUOUS
10
1.6802366141732283
20
-0.28897
11
1.6802366141732283
21
-0.247725157480315
0
LINE
8
BLACK
6
CONTINUOUS
10
1.6802366141732283
20
-0.247725157480315
11
1.6764870866141732
21
-0.240226062992126
0
LINE
8
BLACK
6
CONTINUOUS
10
1.6764870866141732
20
-0.240226062992126
11
1.668988031496063
21
-0.2364765354330709
0
LINE
8
BLACK
6
CONTINUOUS
10
1.668988031496063
20
-0.2364765354330709
11
1.6577394094488189
21
-0.2364765354330709
0
LINE
8
BLACK
6
CONTINUOUS
10
1.6577394094488189
20
-0.2364765354330709
11
1.6502403543307087
21
-0.240226062992126
0
LINE
8
BLACK
6
CONTINUOUS
10
1.6502403543307087
20
-0.240226062992126
11
1.6464908267716536
21
-0.2439755905511811
0
LINE
8
BLACK
6
CONTINUOUS
10
1.7289805118110235
20
-0.28897
11
1.7214814566929133
21
-0.2852204724409449
0
LINE
8
BLACK
6
CONTINUOUS
10
1.7214814566929133
20
-0.2852204724409449
11
1.7177319291338582
21
-0.281470905511811
0
LINE
8
BLACK
6
CONTINUOUS
10
1.7177319291338582
20
-0.281470905511811
11
1.7139824015748031
21
-0.2739718503937008
0
LINE
8
BLACK
6
CONTINUOUS
10
1.7139824015748031
20
-0.2739718503937008
11
1.7139824015748031
21
-0.2514746850393701
0
LINE
8
BLACK
6
CONTINUOUS
10
1.7139824015748031
20
-0.2514746850393701
11
1.7177319291338582
21
-0.2439755905511811
0
LINE
8
BLACK
6
CONTINUOUS
10
1.7177319291338582
20
-0.2439755905511811
11
1.7214814566929133
21
-0.240226062992126
0
LINE
8
BLACK
6
CONTINUOUS
10
1.7214814566929133
20
-0.240226062992126
11
1.7289805118110235
21
-0.2364765354330709
0
LINE
8
BLACK
6
CONTINUOUS
10
1.7289805118110235
20
-0.2364765354330709
11
1.7402291338582676
21
-0.2364765354330709
0
LINE
8
BLACK
6
CONTINUOUS
10
1.7402291338582676
20
-0.2364765354330709
11
1.7477281889763778
21
-0.240226062992126
0
LINE
8
BLACK
6
CONTINUOUS
10
1.7477281889763778
20
-0.240226062992126
11
1.7514777165354329
21
-0.2439755905511811
0
LINE
8
BLACK
6
CONTINUOUS
10
1.7514777165354329
20
-0.2439755905511811
11
1.755227244094488
21
-0.2514746850393701
0
LINE
8
BLACK
6
CONTINUOUS
10
1.755227244094488
20
-0.2514746850393701
11
1.755227244094488
21
-0.2739718503937008
0
LINE
8
BLACK
6
CONTINUOUS
10
1.755227244094488
20
-0.2739718503937008
11
1.7514777165354329
21
-0.281470905511811
0
LINE
8
BLACK
6
CONTINUOUS
10
1.7514777165354329
20
-0.281470905511811
11
1.7477281889763778
21
-0.2852204724409449
0
LINE
8
BLACK
6
CONTINUOUS
10
1.7477281889763778
20
-0.2852204724409449
11
1.7402291338582676
21
-0.28897
0
LINE
8
BLACK
6
CONTINUOUS
10
1.7402291338582676
20
-0.28897
11
1.7289805118110235
21
-0.28897
0
LINE
8
BLACK
6
CONTINUOUS
10
1.8002216141732283
20
-0.28897
11
1.7927225590551181
21
-0.2852204724409449
0
LINE
8
BLACK
6
CONTINUOUS
10
1.7927225590551181
20
-0.2852204724409449
11
1.788973031496063
21
-0.2777213779527559
0
LINE
8
BLACK
6
CONTINUOUS
10
1.788973031496063
20
-0.2777213779527559
11
1.788973031496063
21
-0.210229842519685
0
LINE
8
BLACK
6
CONTINUOUS
10
1.8602141338582676
20
-0.2852204724409449
11
1.8527150787401574
21
-0.28897
0
LINE
8
BLACK
6
CONTINUOUS
10
1.8527150787401574
20
-0.28897
11
1.8377169291338582
21
-0.28897
0
LINE
8
BLACK
6
CONTINUOUS
10
1.8377169291338582
20
-0.28897
11
1.830217874015748
21
-0.2852204724409449
0
LINE
8
BLACK
6
CONTINUOUS
10
1.830217874015748
20
-0.2852204724409449
11
1.8264683464566929
21
-0.2777213779527559
0
LINE
8
BLACK
6
CONTINUOUS
10
1.8264683464566929
20
-0.2777213779527559
11
1.8264683464566929
21
-0.247725157480315
0
LINE
8
BLACK
6
CONTINUOUS
10
1.8264683464566929
20
-0.247725157480315
11
1.830217874015748
21
-0.240226062992126
0
LINE
8
BLACK
6
CONTINUOUS
10
1.830217874015748
20
-0.240226062992126
11
1.8377169291338582
21
-0.2364765354330709
0
LINE
8
BLACK
6
CONTINUOUS
10
1.8377169291338582
20
-0.2364765354330709
11
1.8527150787401574
21
-0.2364765354330709
0
LINE
8
BLACK
6
CONTINUOUS
10
1.8527150787401574
20
-0.2364765354330709
11
1.8602141338582676
21
-0.240226062992126
0
LINE
8
BLACK
6
CONTINUOUS
10
1.8602141338582676
20
-0.240226062992126
11
1.8639636614173227
21
-0.247725157480315
0
LINE
8
BLACK
6
CONTINUOUS
10
1.8639636614173227
20
-0.247725157480315
11
1.8639636614173227
21
-0.2552242125984252
0
LINE
8
BLACK
6
CONTINUOUS
10
1.8639636614173227
20
-0.2552242125984252
11
1.8264683464566929
21
-0.2627232677165354
0
LINE
8
BLACK
6
CONTINUOUS
10
1.8939599212598426
20
-0.2852204724409449
11
1.9014589763779528
21
-0.28897
0
LINE
8
BLACK
6
CONTINUOUS
10
1.9014589763779528
20
-0.28897
11
1.9164570866141732
21
-0.28897
0
LINE
8
BLACK
6
CONTINUOUS
10
1.9164570866141732
20
-0.28897
11
1.9239561811023622
21
-0.2852204724409449
0
LINE
8
BLACK
6
CONTINUOUS
10
1.9239561811023622
20
-0.2852204724409449
11
1.9277057086614173
21
-0.2777213779527559
0
LINE
8
BLACK
6
CONTINUOUS
10
1.9277057086614173
20
-0.2777213779527559
11
1.9277057086614173
21
-0.2739718503937008
0
LINE
8
BLACK
6
CONTINUOUS
10
1.9277057086614173
20
-0.2739718503937008
11
1.9239561811023622
21
-0.2664727952755905
0
LINE
8
BLACK
6
CONTINUOUS
10
1.9239561811023622
20
-0.2664727952755905
11
1.9164570866141732
21
-0.2627232677165354
0
LINE
8
BLACK
6
CONTINUOUS
10
1.9164570866141732
20
-0.2627232677165354
11
1.9052085039370079
21
-0.2627232677165354
0
LINE
8
BLACK
6
CONTINUOUS
10
1.9052085039370079
20
-0.2627232677165354
11
1.8977094488188977
21
-0.2589737401574803
0
LINE
8
BLACK
6
CONTINUOUS
10
1.8977094488188977
20
-0.2589737401574803
11
1.8939599212598426
21
-0.2514746850393701
0
LINE
8
BLACK
6
CONTINUOUS
10
1.8939599212598426
20
-0.2514746850393701
11
1.8939599212598426
21
-0.247725157480315
0
LINE
8
BLACK
6
CONTINUOUS
10
1.8939599212598426
20
-0.247725157480315
11
1.8977094488188977
21
-0.240226062992126
0
LINE
8
BLACK
6
CONTINUOUS
10
1.8977094488188977
20
-0.240226062992126
11
1.9052085039370079
21
-0.2364765354330709
0
LINE
8
BLACK
6
CONTINUOUS
10
1.9052085039370079
20
-0.2364765354330709
11
1.9164570866141732
21
-0.2364765354330709
0
LINE
8
BLACK
6
CONTINUOUS
10
1.9164570866141732
20
-0.2364765354330709
11
1.9239561811023622
21
-0.240226062992126
0
LINE
8
BLACK
6
CONTINUOUS
10
1.9539524409448819
20
-0.3189662204724409
11
1.957701968503937
21
-0.3152166929133858
0
LINE
8
BLACK
6
CONTINUOUS
10
1.957701968503937
20
-0.3152166929133858
11
1.9652010236220472
21
-0.3039681102362204
0
LINE
8
BLACK
6
CONTINUOUS
10
1.9652010236220472
20
-0.3039681102362204
11
1.9689505511811023
21
-0.2964690551181102
0
LINE
8
BLACK
6
CONTINUOUS
10
1.9689505511811023
20
-0.2964690551181102
11
1.9727000787401574
21
-0.2852204724409449
0
LINE
8
BLACK
6
CONTINUOUS
10
1.9727000787401574
20
-0.2852204724409449
11
1.9764496062992125
21
-0.2664727952755905
0
LINE
8
BLACK
6
CONTINUOUS
10
1.9764496062992125
20
-0.2664727952755905
11
1.9764496062992125
21
-0.2514746850393701
0
LINE
8
BLACK
6
CONTINUOUS
10
1.9764496062992125
20
-0.2514746850393701
11
1.9727000787401574
21
-0.2327270078740157
0
LINE
8
BLACK
6
CONTINUOUS
10
1.9727000787401574
20
-0.2327270078740157
11
1.9689505511811023
21
-0.2214784251968504
0
LINE
8
BLACK
6
CONTINUOUS
10
1.9689505511811023
20
-0.2214784251968504
11
1.9652010236220472
21
-0.2139793700787402
0
LINE
8
BLACK
6
CONTINUOUS
10
1.9652010236220472
20
-0.2139793700787402
11
1.957701968503937
21
-0.2027307480314961
0
LINE
8
BLACK
6
CONTINUOUS
10
1.957701968503937
20
-0.2027307480314961
11
1.9539524409448819
21
-0.1989812204724409
  0
ENDSEC
  0
EOF
