%TF.GenerationSoftware,KiCad,Pcbnew,9.0.6*%
%TF.CreationDate,2025-12-12T18:18:47+02:00*%
%TF.ProjectId,pcb_layout,7063625f-6c61-4796-9f75-742e6b696361,rev?*%
%TF.SameCoordinates,PX649cd60PY55d4a80*%
%TF.FileFunction,Copper,L1,Top*%
%TF.FilePolarity,Positive*%
%FSLAX46Y46*%
G04 Gerber Fmt 4.6, Leading zero omitted, Abs format (unit mm)*
G04 Created by KiCad (PCBNEW 9.0.6) date 2025-12-12 18:18:47*
%MOMM*%
%LPD*%
G01*
G04 APERTURE LIST*
G04 Aperture macros list*
%AMRoundRect*
0 Rectangle with rounded corners*
0 $1 Rounding radius*
0 $2 $3 $4 $5 $6 $7 $8 $9 X,Y pos of 4 corners*
0 Add a 4 corners polygon primitive as box body*
4,1,4,$2,$3,$4,$5,$6,$7,$8,$9,$2,$3,0*
0 Add four circle primitives for the rounded corners*
1,1,$1+$1,$2,$3*
1,1,$1+$1,$4,$5*
1,1,$1+$1,$6,$7*
1,1,$1+$1,$8,$9*
0 Add four rect primitives between the rounded corners*
20,1,$1+$1,$2,$3,$4,$5,0*
20,1,$1+$1,$4,$5,$6,$7,0*
20,1,$1+$1,$6,$7,$8,$9,0*
20,1,$1+$1,$8,$9,$2,$3,0*%
G04 Aperture macros list end*
%TA.AperFunction,SMDPad,CuDef*%
%ADD10RoundRect,0.150000X0.587500X0.150000X-0.587500X0.150000X-0.587500X-0.150000X0.587500X-0.150000X0*%
%TD*%
%TA.AperFunction,SMDPad,CuDef*%
%ADD11R,2.510000X1.000000*%
%TD*%
%TA.AperFunction,SMDPad,CuDef*%
%ADD12R,0.600000X1.000000*%
%TD*%
%TA.AperFunction,SMDPad,CuDef*%
%ADD13RoundRect,0.150000X0.150000X-0.587500X0.150000X0.587500X-0.150000X0.587500X-0.150000X-0.587500X0*%
%TD*%
%TA.AperFunction,SMDPad,CuDef*%
%ADD14RoundRect,0.250000X-0.450000X0.262500X-0.450000X-0.262500X0.450000X-0.262500X0.450000X0.262500X0*%
%TD*%
%TA.AperFunction,SMDPad,CuDef*%
%ADD15RoundRect,0.150000X-0.150000X0.587500X-0.150000X-0.587500X0.150000X-0.587500X0.150000X0.587500X0*%
%TD*%
%TA.AperFunction,SMDPad,CuDef*%
%ADD16R,1.000000X0.600000*%
%TD*%
%TA.AperFunction,SMDPad,CuDef*%
%ADD17RoundRect,0.250000X-0.262500X-0.450000X0.262500X-0.450000X0.262500X0.450000X-0.262500X0.450000X0*%
%TD*%
%TA.AperFunction,SMDPad,CuDef*%
%ADD18C,1.000000*%
%TD*%
%TA.AperFunction,SMDPad,CuDef*%
%ADD19RoundRect,0.243750X0.456250X-0.243750X0.456250X0.243750X-0.456250X0.243750X-0.456250X-0.243750X0*%
%TD*%
%TA.AperFunction,SMDPad,CuDef*%
%ADD20RoundRect,0.150000X-0.587500X-0.150000X0.587500X-0.150000X0.587500X0.150000X-0.587500X0.150000X0*%
%TD*%
%TA.AperFunction,SMDPad,CuDef*%
%ADD21RoundRect,0.250000X0.262500X0.450000X-0.262500X0.450000X-0.262500X-0.450000X0.262500X-0.450000X0*%
%TD*%
%TA.AperFunction,SMDPad,CuDef*%
%ADD22RoundRect,0.250000X0.400000X0.400000X-0.400000X0.400000X-0.400000X-0.400000X0.400000X-0.400000X0*%
%TD*%
%TA.AperFunction,SMDPad,CuDef*%
%ADD23RoundRect,0.250000X0.750000X0.400000X-0.750000X0.400000X-0.750000X-0.400000X0.750000X-0.400000X0*%
%TD*%
%TA.AperFunction,SMDPad,CuDef*%
%ADD24RoundRect,0.250000X-0.400000X-0.400000X0.400000X-0.400000X0.400000X0.400000X-0.400000X0.400000X0*%
%TD*%
%TA.AperFunction,SMDPad,CuDef*%
%ADD25RoundRect,0.250000X-0.750000X-0.400000X0.750000X-0.400000X0.750000X0.400000X-0.750000X0.400000X0*%
%TD*%
%TA.AperFunction,ViaPad*%
%ADD26C,0.800000*%
%TD*%
%TA.AperFunction,Conductor*%
%ADD27C,0.406400*%
%TD*%
%TA.AperFunction,Conductor*%
%ADD28C,0.660400*%
%TD*%
%TA.AperFunction,Conductor*%
%ADD29C,0.457200*%
%TD*%
G04 APERTURE END LIST*
D10*
%TO.P,Q6,1,B*%
%TO.N,Net-(Q3-C)*%
X20197500Y30640000D03*
%TO.P,Q6,2,E*%
%TO.N,Net-(Q6-E)*%
X20197500Y32540000D03*
%TO.P,Q6,3,C*%
%TO.N,Net-(Q3-C)*%
X18322500Y31590000D03*
%TD*%
D11*
%TO.P,Jout1,1,Pin_1*%
%TO.N,/Vout*%
X32315000Y6630000D03*
%TO.P,Jout1,2,Pin_2*%
%TO.N,GND*%
X35625000Y4090000D03*
%TD*%
D12*
%TO.P,Oamp,1,1*%
%TO.N,Net-(Q10-C)*%
X35400000Y31650000D03*
%TD*%
D13*
%TO.P,Q2,1,B*%
%TO.N,Net-(Q1-C)*%
X7050000Y23562500D03*
%TO.P,Q2,2,E*%
%TO.N,Net-(Q1-B)*%
X8950000Y23562500D03*
%TO.P,Q2,3,C*%
%TO.N,Net-(D1-K)*%
X8000000Y25437500D03*
%TD*%
%TO.P,Q8,1,B*%
%TO.N,Net-(Q10-C)*%
X24870000Y35802500D03*
%TO.P,Q8,2,E*%
%TO.N,Net-(Q8-E)*%
X26770000Y35802500D03*
%TO.P,Q8,3,C*%
%TO.N,/Vcc*%
X25820000Y37677500D03*
%TD*%
D14*
%TO.P,R3,1*%
%TO.N,/Vcc*%
X3250000Y30162500D03*
%TO.P,R3,2*%
%TO.N,Net-(D2-A)*%
X3250000Y28337500D03*
%TD*%
D15*
%TO.P,Q1,1,B*%
%TO.N,Net-(Q1-B)*%
X8950000Y29937500D03*
%TO.P,Q1,2,E*%
%TO.N,/Vcc*%
X7050000Y29937500D03*
%TO.P,Q1,3,C*%
%TO.N,Net-(Q1-C)*%
X8000000Y28062500D03*
%TD*%
D16*
%TO.P,TPvref,1,1*%
%TO.N,Net-(D1-K)*%
X11300000Y21720000D03*
%TD*%
D17*
%TO.P,R8s,1*%
%TO.N,Net-(R8-Pad2)*%
X34507500Y20540000D03*
%TO.P,R8s,2*%
%TO.N,/Vout*%
X36332500Y20540000D03*
%TD*%
D14*
%TO.P,R7,1*%
%TO.N,/Vcc*%
X13350000Y37912500D03*
%TO.P,R7,2*%
%TO.N,Net-(D4-A)*%
X13350000Y36087500D03*
%TD*%
D18*
%TO.P,FID1,*%
%TO.N,*%
X34920000Y34920000D03*
%TD*%
D19*
%TO.P,D3,1,K*%
%TO.N,GND*%
X12000000Y25562500D03*
%TO.P,D3,2,A*%
%TO.N,Net-(D3-A)*%
X12000000Y27437500D03*
%TD*%
D13*
%TO.P,Q9,1,B*%
%TO.N,Net-(Q8-E)*%
X29890000Y35802500D03*
%TO.P,Q9,2,E*%
%TO.N,Net-(Q10-B)*%
X31790000Y35802500D03*
%TO.P,Q9,3,C*%
%TO.N,/Vcc*%
X30840000Y37677500D03*
%TD*%
D15*
%TO.P,Q4,1,B*%
%TO.N,Net-(Q4-B)*%
X21910000Y21397500D03*
%TO.P,Q4,2,E*%
%TO.N,Net-(Q3-E)*%
X20010000Y21397500D03*
%TO.P,Q4,3,C*%
%TO.N,Net-(Q10-C)*%
X20960000Y19522500D03*
%TD*%
D20*
%TO.P,Q3,1,B*%
%TO.N,Net-(D1-K)*%
X14282500Y23320000D03*
%TO.P,Q3,2,E*%
%TO.N,Net-(Q3-E)*%
X14282500Y21420000D03*
%TO.P,Q3,3,C*%
%TO.N,Net-(Q3-C)*%
X16157500Y22370000D03*
%TD*%
D18*
%TO.P,FID2,*%
%TO.N,*%
X5080000Y5080000D03*
%TD*%
D16*
%TO.P,Thprot,1,1*%
%TO.N,Net-(Q11-B)*%
X25200000Y26700000D03*
%TD*%
D14*
%TO.P,R5,1*%
%TO.N,/Vcc*%
X20180000Y37882500D03*
%TO.P,R5,2*%
%TO.N,Net-(Q7-E)*%
X20180000Y36057500D03*
%TD*%
D13*
%TO.P,Q7,1,B*%
%TO.N,Net-(Q3-C)*%
X19960000Y26072500D03*
%TO.P,Q7,2,E*%
%TO.N,Net-(Q7-E)*%
X21860000Y26072500D03*
%TO.P,Q7,3,C*%
%TO.N,Net-(Q10-C)*%
X20910000Y27947500D03*
%TD*%
%TO.P,Q10,1,B*%
%TO.N,Net-(Q10-B)*%
X34400000Y26842500D03*
%TO.P,Q10,2,E*%
%TO.N,/Vout*%
X36300000Y26842500D03*
%TO.P,Q10,3,C*%
%TO.N,Net-(Q10-C)*%
X35350000Y28717500D03*
%TD*%
D14*
%TO.P,R4,1*%
%TO.N,/Vcc*%
X16770000Y37932500D03*
%TO.P,R4,2*%
%TO.N,Net-(Q6-E)*%
X16770000Y36107500D03*
%TD*%
D21*
%TO.P,RL2,1*%
%TO.N,Net-(RL1-Pad2)*%
X37722500Y15020000D03*
%TO.P,RL2,2*%
%TO.N,GND*%
X35897500Y15020000D03*
%TD*%
D11*
%TO.P,Jin,1,Pin_1*%
%TO.N,/Vcc*%
X6465000Y34370000D03*
%TO.P,Jin,2,Pin_2*%
%TO.N,GND*%
X3155000Y36910000D03*
%TD*%
D22*
%TO.P,RV2,1,1*%
%TO.N,Net-(R9-Pad1)*%
X28930000Y17590000D03*
D23*
%TO.P,RV2,2,2*%
%TO.N,Net-(Q4-B)*%
X30080000Y23090000D03*
D22*
%TO.P,RV2,3,3*%
%TO.N,Net-(R10-Pad2)*%
X31230000Y17590000D03*
%TD*%
D14*
%TO.P,R6,1*%
%TO.N,Net-(Q5-E)*%
X14500000Y29162500D03*
%TO.P,R6,2*%
%TO.N,GND*%
X14500000Y27337500D03*
%TD*%
D21*
%TO.P,R10,1*%
%TO.N,/Vout*%
X33592500Y13870000D03*
%TO.P,R10,2*%
%TO.N,Net-(R10-Pad2)*%
X31767500Y13870000D03*
%TD*%
D19*
%TO.P,D2,1,K*%
%TO.N,GND*%
X3500000Y23812500D03*
%TO.P,D2,2,A*%
%TO.N,Net-(D2-A)*%
X3500000Y25687500D03*
%TD*%
D14*
%TO.P,R2,1*%
%TO.N,Net-(Q1-C)*%
X2500000Y20662500D03*
%TO.P,R2,2*%
%TO.N,GND*%
X2500000Y18837500D03*
%TD*%
D17*
%TO.P,RL1,1*%
%TO.N,/Vout*%
X35612500Y10325000D03*
%TO.P,RL1,2*%
%TO.N,Net-(RL1-Pad2)*%
X37437500Y10325000D03*
%TD*%
D20*
%TO.P,Q5,1,B*%
%TO.N,Net-(D4-A)*%
X14222500Y34180000D03*
%TO.P,Q5,2,E*%
%TO.N,Net-(Q5-E)*%
X14222500Y32280000D03*
%TO.P,Q5,3,C*%
%TO.N,Net-(Q3-E)*%
X16097500Y33230000D03*
%TD*%
D24*
%TO.P,RV1,1,1*%
%TO.N,Net-(D1-K)*%
X31230000Y30690000D03*
D25*
%TO.P,RV1,2,2*%
%TO.N,Net-(Q11-B)*%
X30080000Y25190000D03*
D24*
%TO.P,RV1,3,3*%
%TO.N,GND*%
X28930000Y30690000D03*
%TD*%
D14*
%TO.P,R1,1*%
%TO.N,/Vcc*%
X9800000Y37882500D03*
%TO.P,R1,2*%
%TO.N,Net-(Q1-B)*%
X9800000Y36057500D03*
%TD*%
D19*
%TO.P,D4,1,K*%
%TO.N,Net-(D3-A)*%
X11500000Y32062500D03*
%TO.P,D4,2,A*%
%TO.N,Net-(D4-A)*%
X11500000Y33937500D03*
%TD*%
D21*
%TO.P,R8,1*%
%TO.N,Net-(Q10-B)*%
X36482500Y23960000D03*
%TO.P,R8,2*%
%TO.N,Net-(R8-Pad2)*%
X34657500Y23960000D03*
%TD*%
D13*
%TO.P,Q11,1,B*%
%TO.N,Net-(Q11-B)*%
X24210000Y30442500D03*
%TO.P,Q11,2,E*%
%TO.N,GND*%
X26110000Y30442500D03*
%TO.P,Q11,3,C*%
%TO.N,Net-(Q10-C)*%
X25160000Y32317500D03*
%TD*%
%TO.P,D1,1,A*%
%TO.N,GND*%
X7050000Y18812500D03*
%TO.P,D1,2,NC*%
%TO.N,unconnected-(D1-NC-Pad2)*%
X8950000Y18812500D03*
%TO.P,D1,3,K*%
%TO.N,Net-(D1-K)*%
X8000000Y20687500D03*
%TD*%
D21*
%TO.P,R9,1*%
%TO.N,Net-(R9-Pad1)*%
X28222500Y13870000D03*
%TO.P,R9,2*%
%TO.N,GND*%
X26397500Y13870000D03*
%TD*%
D26*
%TO.N,Net-(D1-K)*%
X23599999Y24400001D03*
X16750000Y23425600D03*
X29765000Y28785000D03*
X21918800Y23360000D03*
%TO.N,GND*%
X14500000Y26000000D03*
X2500000Y17250000D03*
X3470000Y22230000D03*
X3150000Y31930000D03*
X38200000Y4070000D03*
X5750000Y18000000D03*
X28930000Y30690000D03*
X24930000Y13870000D03*
X35890000Y13390000D03*
X12000000Y24250000D03*
%TO.N,Net-(Q3-E)*%
X17390000Y27760000D03*
X18800000Y24650000D03*
%TO.N,Net-(Q4-B)*%
X23572973Y23017027D03*
X25698800Y23060000D03*
%TO.N,Net-(Q10-C)*%
X32898452Y33688452D03*
X30704200Y33715856D03*
%TO.N,Net-(Q7-E)*%
X22518799Y29546675D03*
X22580000Y32900000D03*
%TD*%
D27*
%TO.N,Net-(D1-K)*%
X14212500Y23250000D02*
X14282500Y23320000D01*
X14388100Y23425600D02*
X14282500Y23320000D01*
X31230000Y30250000D02*
X31230000Y30690000D01*
X8000000Y25437500D02*
X8000000Y20687500D01*
X8000000Y20687500D02*
X10267500Y20687500D01*
X23599999Y24400001D02*
X22559998Y23360000D01*
X14282500Y23320000D02*
X12900000Y23320000D01*
X16750000Y23425600D02*
X14388100Y23425600D01*
X29765000Y28785000D02*
X31230000Y30250000D01*
X22559998Y23360000D02*
X21918800Y23360000D01*
X12900000Y23320000D02*
X11300000Y21720000D01*
X10267500Y20687500D02*
X11300000Y21720000D01*
D28*
%TO.N,GND*%
X35897500Y13397500D02*
X35890000Y13390000D01*
X14500000Y27337500D02*
X14500000Y26000000D01*
X28682500Y30442500D02*
X28930000Y30690000D01*
X2500000Y18837500D02*
X2500000Y17250000D01*
X3500000Y23812500D02*
X3500000Y22260000D01*
X3500000Y22260000D02*
X3470000Y22230000D01*
X35625000Y4090000D02*
X38180000Y4090000D01*
X7050000Y18812500D02*
X6237500Y18000000D01*
X26110000Y30442500D02*
X28682500Y30442500D01*
X6237500Y18000000D02*
X5750000Y18000000D01*
X35897500Y15020000D02*
X35897500Y13397500D01*
X3155000Y31935000D02*
X3150000Y31930000D01*
X38180000Y4090000D02*
X38200000Y4070000D01*
X12000000Y25562500D02*
X12000000Y24250000D01*
X3155000Y36910000D02*
X3155000Y31935000D01*
X26397500Y13870000D02*
X24930000Y13870000D01*
D29*
%TO.N,Net-(D2-A)*%
X3250000Y25937500D02*
X3500000Y25687500D01*
X3250000Y28337500D02*
X3250000Y25937500D01*
D27*
%TO.N,Net-(D3-A)*%
X11500000Y32062500D02*
X12000000Y31562500D01*
X12000000Y31562500D02*
X12000000Y27437500D01*
%TO.N,Net-(D4-A)*%
X13350000Y35052500D02*
X14222500Y34180000D01*
X13350000Y36087500D02*
X13350000Y35787500D01*
X13350000Y35787500D02*
X11500000Y33937500D01*
X13350000Y36087500D02*
X13350000Y35052500D01*
D28*
%TO.N,/Vcc*%
X16770000Y37932500D02*
X20130000Y37932500D01*
X16750000Y37912500D02*
X16770000Y37932500D01*
X7050000Y29937500D02*
X7050000Y33785000D01*
X20180000Y37882500D02*
X25615000Y37882500D01*
X6465000Y33377500D02*
X6465000Y34370000D01*
X13320000Y37882500D02*
X13350000Y37912500D01*
X9580738Y37882500D02*
X9800000Y37882500D01*
X6465000Y34766762D02*
X9580738Y37882500D01*
X20130000Y37932500D02*
X20180000Y37882500D01*
X6465000Y34370000D02*
X6465000Y34766762D01*
X3250000Y30162500D02*
X6465000Y33377500D01*
X13350000Y37912500D02*
X16750000Y37912500D01*
X9800000Y37882500D02*
X13320000Y37882500D01*
X25820000Y37677500D02*
X30840000Y37677500D01*
X25615000Y37882500D02*
X25820000Y37677500D01*
X7050000Y33785000D02*
X6465000Y34370000D01*
%TO.N,/Vout*%
X35612500Y9927500D02*
X32315000Y6630000D01*
X35612500Y10325000D02*
X35612500Y11850000D01*
X37681800Y25460700D02*
X37681800Y21829300D01*
X36392500Y20540000D02*
X37681800Y21829300D01*
X36332500Y18039262D02*
X33592500Y15299262D01*
X36332500Y20540000D02*
X36332500Y18039262D01*
X33592500Y13870000D02*
X33592500Y15299262D01*
X36300000Y26842500D02*
X37681800Y25460700D01*
X36332500Y20540000D02*
X36392500Y20540000D01*
X35612500Y10325000D02*
X35612500Y9927500D01*
X35612500Y11850000D02*
X33592500Y13870000D01*
D29*
%TO.N,Net-(Q1-C)*%
X8000000Y28062500D02*
X7050000Y27112500D01*
X7050000Y27112500D02*
X7050000Y23562500D01*
X7050000Y23562500D02*
X4150000Y20662500D01*
X4150000Y20662500D02*
X2500000Y20662500D01*
%TO.N,Net-(Q1-B)*%
X8950000Y29937500D02*
X8950000Y35207500D01*
X8950000Y35207500D02*
X9800000Y36057500D01*
X8950000Y29937500D02*
X8950000Y23562500D01*
D27*
%TO.N,Net-(Q3-E)*%
X16770000Y32557500D02*
X16097500Y33230000D01*
X20010000Y23440000D02*
X20010000Y21397500D01*
X17390000Y29190000D02*
X16770000Y29810000D01*
X18800000Y24650000D02*
X20010000Y23440000D01*
X17390000Y27760000D02*
X17390000Y29190000D01*
X19987500Y21420000D02*
X20010000Y21397500D01*
X14282500Y21420000D02*
X19987500Y21420000D01*
X16770000Y29810000D02*
X16770000Y32557500D01*
%TO.N,Net-(Q3-C)*%
X19960000Y26072500D02*
X19960000Y30402500D01*
X16157500Y22370000D02*
X17051763Y22370000D01*
X17840200Y25047563D02*
X18865137Y26072500D01*
X20310000Y30527500D02*
X20197500Y30640000D01*
X18865137Y26072500D02*
X19960000Y26072500D01*
X18322500Y31590000D02*
X19247500Y31590000D01*
X17840200Y23158437D02*
X17840200Y25047563D01*
X19960000Y30402500D02*
X20197500Y30640000D01*
X17812500Y31500000D02*
X18737500Y31500000D01*
X17051763Y22370000D02*
X17840200Y23158437D01*
X19247500Y31590000D02*
X20197500Y30640000D01*
%TO.N,Net-(Q4-B)*%
X21953445Y21397500D02*
X21910000Y21397500D01*
X23572973Y23017027D02*
X21953445Y21397500D01*
X25728800Y23090000D02*
X25698800Y23060000D01*
X30080000Y23090000D02*
X27785760Y23090000D01*
X27785760Y23090000D02*
X25728800Y23090000D01*
%TO.N,Net-(Q10-C)*%
X35350000Y31600000D02*
X35400000Y31650000D01*
X20870000Y27907500D02*
X20910000Y27947500D01*
X25160000Y35512500D02*
X24870000Y35802500D01*
X30704200Y33715856D02*
X26956644Y33715856D01*
X23519536Y32317500D02*
X21559999Y30357963D01*
X32898452Y33688452D02*
X33361548Y33688452D01*
X20960000Y27897500D02*
X20910000Y27947500D01*
X35350000Y28717500D02*
X35350000Y31600000D01*
X21559999Y28597499D02*
X21559999Y30357963D01*
X25160000Y32317500D02*
X23519536Y32317500D01*
X20960000Y19522500D02*
X20960000Y27897500D01*
X20910000Y27947500D02*
X21559999Y28597499D01*
X25160000Y32317500D02*
X25160000Y35512500D01*
X33361548Y33688452D02*
X35400000Y31650000D01*
X26956644Y33715856D02*
X24870000Y35802500D01*
%TO.N,Net-(Q5-E)*%
X14222500Y29440000D02*
X14500000Y29162500D01*
X14562500Y29225000D02*
X14500000Y29162500D01*
X14222500Y32280000D02*
X14222500Y29440000D01*
%TO.N,Net-(Q6-E)*%
X16770000Y35967500D02*
X20197500Y32540000D01*
X16770000Y36107500D02*
X16770000Y35967500D01*
%TO.N,Net-(Q7-E)*%
X22580000Y33657500D02*
X20180000Y36057500D01*
X22518799Y29546675D02*
X22518799Y26731299D01*
X22518799Y26731299D02*
X21860000Y26072500D01*
X22580000Y32900000D02*
X22580000Y33657500D01*
%TO.N,Net-(Q8-E)*%
X26770000Y35802500D02*
X29890000Y35802500D01*
D28*
%TO.N,Net-(Q10-B)*%
X34400000Y26760000D02*
X36482500Y24677500D01*
X36482500Y24677500D02*
X36482500Y23960000D01*
X34400000Y26842500D02*
X34400000Y26760000D01*
X31790000Y33261350D02*
X33400000Y31651350D01*
X31790000Y35802500D02*
X31790000Y33261350D01*
X34537500Y26705000D02*
X34400000Y26842500D01*
X33400000Y31651350D02*
X33400000Y27842500D01*
X33400000Y27842500D02*
X34400000Y26842500D01*
D27*
%TO.N,Net-(Q11-B)*%
X30080000Y25190000D02*
X26710000Y25190000D01*
X29937794Y25332206D02*
X30080000Y25190000D01*
X24210000Y27690000D02*
X25200000Y26700000D01*
X24210000Y30442500D02*
X24210000Y27690000D01*
X26710000Y25190000D02*
X25200000Y26700000D01*
%TO.N,Net-(R9-Pad1)*%
X28222500Y16882500D02*
X28930000Y17590000D01*
X28222500Y13870000D02*
X28222500Y16882500D01*
D28*
%TO.N,Net-(RL1-Pad2)*%
X38120000Y11007500D02*
X37437500Y10325000D01*
X38120000Y14622500D02*
X38120000Y11007500D01*
X37722500Y15020000D02*
X38120000Y14622500D01*
%TO.N,Net-(R8-Pad2)*%
X34507500Y23810000D02*
X34657500Y23960000D01*
X34507500Y20540000D02*
X34507500Y23810000D01*
D27*
%TO.N,Net-(R10-Pad2)*%
X31767500Y17052500D02*
X31230000Y17590000D01*
X31767500Y13870000D02*
X31767500Y17052500D01*
%TD*%
M02*
